<?xml version="1.0" encoding="UTF-8"?>
<svg id="Layer_2" data-name="Layer 2" xmlns="http://www.w3.org/2000/svg" xmlns:xlink="http://www.w3.org/1999/xlink" viewBox="0 0 337.98 409.43">
  <defs>
    <style>
      .cls-1 {
        clip-path: url(#clippath-1);
      }

      .cls-2 {
        fill: #2e1b10;
      }

      .cls-3 {
        clip-path: url(#clippath);
      }

      .cls-4, .cls-5 {
        fill: none;
      }

      .cls-6 {
        fill: url(#linear-gradient);
      }

      .cls-6, .cls-7, .cls-5 {
        stroke-miterlimit: 10;
      }

      .cls-6, .cls-5 {
        stroke: #3b2314;
        stroke-width: 6px;
      }

      .cls-7 {
        fill: #00aeb7;
        stroke: #007a72;
        stroke-width: 4px;
      }
    </style>
    <clipPath id="clippath">
      <path id="Form_big" data-name="Form big" class="cls-5" d="M166.27,3.1H19.82C.54,3.1,3.11,21.39,3.11,21.39c0,0-1.54,253.78,30.06,308.36,31.6,54.58,113.05,76.68,133.09,76.68s101.49-22.1,133.09-76.68c31.6-54.58,30.06-308.36,30.06-308.36,0,0,2.57-18.28-16.7-18.28H166.27Z"/>
    </clipPath>
    <linearGradient id="linear-gradient" x1="9978.6" y1="-1768.51" x2="10305.13" y2="-1768.51" gradientTransform="translate(-9975.6 1965.28)" gradientUnits="userSpaceOnUse">
      <stop offset="0" stop-color="#fbcdab"/>
      <stop offset="1" stop-color="#fde4d9"/>
    </linearGradient>
    <clipPath id="clippath-1">
      <polygon class="cls-4" points="202.3 23.39 250.42 71.51 250.42 139.57 202.3 187.69 134.24 187.69 86.12 139.57 86.12 71.51 134.24 23.39 202.3 23.39"/>
    </clipPath>
  </defs>
  <g id="Main_JAP_copy" data-name="Main JAP copy">
    <g id="north_big_jap_copy_17" data-name="north big jap copy 17">
      <path id="Shadow" class="cls-2" d="M169.02,0H17.45C-2.49,0,.17,18.5,.17,18.5c0,0-1.6,256.77,31.11,311.99,32.7,55.22,116.99,77.58,137.73,77.58s105.03-22.36,137.73-77.58c32.71-55.22,31.11-311.99,31.11-311.99,0,0,2.66-18.5-17.28-18.5H169.02Z"/>
      <g>
        <g class="cls-3">
          <rect id="Color_gradient" data-name="Color gradient" class="cls-6" x="3" y="-56.19" width="326.53" height="505.92"/>
        </g>
        <path id="Form_big-2" data-name="Form big" class="cls-5" d="M166.27,3.1H19.82C.54,3.1,3.11,21.39,3.11,21.39c0,0-1.54,253.78,30.06,308.36,31.6,54.58,113.05,76.68,133.09,76.68s101.49-22.1,133.09-76.68c31.6-54.58,30.06-308.36,30.06-308.36,0,0,2.57-18.28-16.7-18.28H166.27Z"/>
      </g>
      <g id="Pieces_copy_53" data-name="Pieces copy 53">
        <g id="Bear_s_Eyes_copy_26" data-name="Bear&amp;apos;s Eyes copy 26">
          <g id="BE_move_copy_24" data-name="BE move copy 24">
            <g id="Lines">
              <g class="cls-1">
                <g>
                  <rect class="cls-7" x="163.28" y="-10.24" width="9.1" height="231.58" transform="translate(-25.47 149.6) rotate(-45)"/>
                  <rect class="cls-7" x="52.04" y="101" width="231.58" height="9.1" transform="translate(-25.48 149.57) rotate(-45)"/>
                  <rect class="cls-7" x="85.95" y="100.99" width="163.75" height="9.1"/>
                  <rect class="cls-7" x="163.28" y="23.36" width="9.1" height="164.36"/>
                </g>
              </g>
            </g>
            <rect id="Center" class="cls-7" x="148.86" y="86.25" width="37.93" height="37.93"/>
          </g>
          <g>
            <path class="cls-7" d="M234.91,295.42c.72,1.56,1.68,3.24,2.76,5.04,15.36-1.08,30.84-2.04,40.92-2.52,.36-1.08,1.2-1.68,2.16-1.8l3.6,13.08-10.08,.24c-2.76,5.4-5.52,12.24-7.2,17.4l-15.84-4.56c.48-.96,1.56-1.44,3.12-1.44,1.68-3.24,3.96-7.2,6.36-11.04l-15.96,.48c1.92,2.52,3.84,4.92,5.76,6.96l-11.28,5.16c-6.12-6.36-13.2-15.24-16.32-21.36l12-5.64Zm21.24-59.64c2.52-8.28,7.44-16.92,13.08-22.44l13.68,5.52c-5.16,4.32-10.2,12.48-12.84,20.28l-13.92-3.36Zm-24.48,58.56v-40.56c0-10.68,4.68-11.76,21.6-11.76,.6,3.12,2.16,7.2,3.6,10.08-12-.36-12,0-12,1.68v4.44h18v-16.2h12.72v52.32h-43.92Zm13.2-9.72h18v-4.92h-18v4.92Zm18-18.24h-18v5.04h18v-5.04Zm-16.08-52.2c-.12,5.28,.48,13.8,1.56,20.4l-13.2,1.2c-1.44-6.36-2.4-14.76-2.4-19.92l14.04-1.68Zm-27.84,0c.72,5.16,3.12,13.56,5.52,19.92l-13.44,2.76c-2.64-6.12-5.4-14.28-6.24-19.56l14.16-3.12Zm-29.76,82.08c-3.72,0-4.56,1.44-5.04,9.48-2.76-2.04-8.16-3.84-11.76-4.56,1.44-12.84,5.04-16.2,15.36-16.2h17.04c13.92,0,17.16,3.48,17.16,15.36v25.56l-16.8-.84c.12-1.2,.96-1.92,3.12-2.28v-7.92c-8.04,2.16-15.96,4.8-21.36,7.32l-9.48-9.72c.48-.48,1.08-.48,2.76-.48,7.2-2.76,17.88-5.52,28.08-7.56v-3.96c0-3.6-.72-4.2-5.28-4.2h-13.8Zm19.08-38.88c0-3.6-.72-4.2-5.52-4.2h-14.16c-3.72,0-4.56,1.44-5.04,9.84-2.76-2.04-8.28-3.96-12-4.8,1.56-13.08,5.28-16.68,15.72-16.68h17.4c13.92,0,17.28,3.6,17.28,15.72v26.4l-16.8-.96c.12-1.08,.96-1.8,3.12-2.16v-7.92c-8.16,2.28-16.32,5.04-21.72,7.8l-9.6-9.84c.36-.48,1.08-.48,2.76-.48,7.2-3,18.24-5.88,28.56-8.04v-4.68Zm-21.48-44.16c2.28,5.76,8.28,14.76,13.8,21.36l-13.56,4.56c-5.52-6.12-12-14.64-14.76-20.76l14.52-5.16Z"/>
            <path class="cls-7" d="M122.47,233.26h24.84v-9.72h13.2v97.32h-38.04v-87.6Zm13.56,75h11.28v-12.48h-11.28v12.48Zm11.28-24.6v-12.72h-11.28v12.72h11.28Zm0-37.8h-11.28v12.96h11.28v-12.96Zm-68.28,20.4c-1.32-4.56-2.76-9-4.56-13.2-4.56,3.72-9.48,8.16-12.72,11.88l-10.56-10.92c.48-.48,1.2-.72,2.04-.72,.48,0,.96,.12,1.44,.24,3.36-3,9.36-7.44,14.4-10.8-4.8-7.44-10.8-13.56-18.48-17.4,3.12-2.76,7.56-8.16,9.48-11.88,8.52,5.28,15.12,12.84,20.16,22.2l-1.2-11.88c13.2-3.12,27-6.12,36-8.04,.12-1.08,1.08-1.8,1.92-2.04l5.52,15.12c-2.64,.36-5.64,.84-8.88,1.44v91.56H58.39v-55.56h20.64Zm-6.84,43.44h27.36v-9.72h-27.36v9.72Zm27.36-31.32h-27.36v9.96h27.36v-9.96Zm0-12.12v-33.6c-6.24,1.08-12.72,2.28-19.08,3.48,4.56,8.64,7.92,18.96,10.44,30.12h8.64Z"/>
          </g>
        </g>
      </g>
    </g>
  </g>
</svg>