<?xml version="1.0" encoding="UTF-8"?>
<svg id="Layer_2" data-name="Layer 2" xmlns="http://www.w3.org/2000/svg" xmlns:xlink="http://www.w3.org/1999/xlink" viewBox="0 0 337.98 409.43">
  <defs>
    <style>
      .cls-1 {
        clip-path: url(#clippath-1);
      }

      .cls-2 {
        fill: #2e1b10;
      }

      .cls-3 {
        clip-path: url(#clippath);
      }

      .cls-4, .cls-5 {
        fill: none;
      }

      .cls-6 {
        fill: url(#linear-gradient);
      }

      .cls-6, .cls-5 {
        stroke: #3b2314;
        stroke-miterlimit: 10;
        stroke-width: 6px;
      }
    </style>
    <clipPath id="clippath">
      <path id="Form_big" data-name="Form big" class="cls-5" d="M166.27,3.1H19.82C.54,3.1,3.11,21.39,3.11,21.39c0,0-1.54,253.78,30.06,308.36,31.6,54.58,113.05,76.68,133.09,76.68s101.49-22.1,133.09-76.68c31.6-54.58,30.06-308.36,30.06-308.36,0,0,2.57-18.28-16.7-18.28H166.27Z"/>
    </clipPath>
    <linearGradient id="linear-gradient" x1="12904.56" y1="-1768.51" x2="13231.09" y2="-1768.51" gradientTransform="translate(-12901.56 1965.28)" gradientUnits="userSpaceOnUse">
      <stop offset="0" stop-color="#fbcdab"/>
      <stop offset="1" stop-color="#fde4d9"/>
    </linearGradient>
    <clipPath id="clippath-1">
      <polygon class="cls-4" points="202.3 23.39 250.42 71.51 250.42 139.57 202.3 187.69 134.24 187.69 86.12 139.57 86.12 71.51 134.24 23.39 202.3 23.39"/>
    </clipPath>
  </defs>
  <g id="Main_JAP_copy" data-name="Main JAP copy">
    <g id="north_big_jap_copy_2" data-name="north big jap copy 2">
      <path id="Shadow" class="cls-2" d="M169.02,0H17.45C-2.49,0,.17,18.5,.17,18.5c0,0-1.6,256.77,31.11,311.99,32.7,55.22,116.99,77.58,137.73,77.58s105.03-22.36,137.73-77.58c32.71-55.22,31.11-311.99,31.11-311.99,0,0,2.66-18.5-17.28-18.5H169.02Z"/>
      <g>
        <g class="cls-3">
          <rect id="Color_gradient" data-name="Color gradient" class="cls-6" x="3" y="-56.19" width="326.53" height="505.92"/>
        </g>
        <path id="Form_big-2" data-name="Form big" class="cls-5" d="M166.27,3.1H19.82C.54,3.1,3.11,21.39,3.11,21.39c0,0-1.54,253.78,30.06,308.36,31.6,54.58,113.05,76.68,133.09,76.68s101.49-22.1,133.09-76.68c31.6-54.58,30.06-308.36,30.06-308.36,0,0,2.57-18.28-16.7-18.28H166.27Z"/>
      </g>
      <g id="Pieces_copy_38" data-name="Pieces copy 38">
        <g id="Cloud_Eagle_copy_10" data-name="Cloud Eagle copy 10">
          <g id="CE_move_copy_9" data-name="CE move copy 9">
            <g id="Arrows_copy_39" data-name="Arrows copy 39">
              <polygon class="cls-2" points="152.03 36.18 167.29 9.76 182.54 36.18 152.03 36.18"/>
              <polygon class="cls-2" points="183.52 174.48 168.27 200.9 153.01 174.48 183.52 174.48"/>
            </g>
            <g id="squares_copy_14" data-name="squares copy 14">
              <g>
                <rect class="cls-2" x="186.79" y="124.18" width="14.25" height="14.25"/>
                <rect class="cls-2" x="201.38" y="138.5" width="14.25" height="14.25"/>
                <rect class="cls-2" x="215.63" y="152.75" width="14.25" height="14.25"/>
              </g>
              <g>
                <rect class="cls-2" x="134.61" y="124.18" width="14.25" height="14.25"/>
                <rect class="cls-2" x="120.02" y="138.5" width="14.25" height="14.25"/>
                <rect class="cls-2" x="105.77" y="152.75" width="14.25" height="14.25"/>
              </g>
            </g>
            <g id="Lines">
              <g class="cls-1">
                <g>
                  <rect class="cls-2" x="121.05" y="7.25" width="9.1" height="112.13" transform="translate(-7.98 107.36) rotate(-45)"/>
                  <rect class="cls-2" x="150.22" y="60.33" width="116.55" height="9.1" transform="translate(15.18 166.41) rotate(-45)"/>
                  <rect class="cls-2" x="85.95" y="100.99" width="163.75" height="9.1"/>
                  <rect class="cls-2" x="163.28" y="23.36" width="9.1" height="164.36"/>
                </g>
              </g>
            </g>
            <rect id="Center" class="cls-2" x="148.86" y="86.25" width="37.93" height="37.93"/>
          </g>
          <g>
            <path class="cls-2" d="M172.99,248.14v-10.92h26.64c-7.8-5.4-16.56-12.36-21.48-17.64l13.56-6.24c1.44,1.68,3.36,3.72,5.64,5.76,26.64-1.2,54.36-2.16,72.36-2.64,.24-1.08,1.2-1.68,2.04-1.8l4.32,13.56c-4.32,0-9.24,0-14.64,.12-1.92,2.76-3.84,5.88-5.64,8.88h26.88v10.92h-109.68Zm95.16,47.64v-16.68h12.72v27.24h-45.6v5.16h37.56v10.92h-89.52v-10.92h37.92v-5.16h-46.68v-27.24h13.32v16.68h33.36v-29.16h14.04v29.16h32.88Zm.24-42.6v10.44h-81.6v-10.44h81.6Zm-2.4,15.48v9h-26.16v-9h26.16Zm-26.28,22.56v-9h23.76v9h-23.76Zm-28.44-54h27c2.16-2.76,4.56-5.88,7.08-8.76l-36,.72c2.52,2.04,5.16,3.84,7.56,5.52l-5.64,2.52Zm5.4,54h-23.88v-9h23.88v9Zm0-22.56v9h-26.88v-9h26.88Z"/>
            <path class="cls-2" d="M141.07,289.18c.24-.96,1.32-1.2,2.52-1.08,3.24-4.2,8.64-9,13.92-12.12,1.68,1.8,5.04,4.32,7.2,5.64-4.8,2.64-9.72,6.96-12.6,11.16l-11.04-3.6Zm-35.88,32.4v-7.68h56.88v7.68h-21.96v5.28l-15.48-.84c.12-1.08,.96-1.8,3-2.16v-2.28h-22.44Zm31.92-94.2c2.64-5.76,6.84-10.56,14.64-13.68l9.96,7.56c-6.36,2.04-11.28,5.88-13.44,10.32l-11.16-4.2Zm-84.72,14.52h77.4v-3.24h-59.16l-2.76,.48-8.04-1.92c.24-1.08,.6-1.68,1.08-2.64,2.88-20.04,6.12-21.24,18-21.24,2.04,0,4.32,0,6.72,.12,.12,1.92,.72,4.44,1.56,6.6l3.12-1.68c1.56,2.52,4.68,6.48,7.44,9.12l-9.24,4.2c-3-2.52-6.12-5.88-7.8-8.28l3.6-1.92h-4.44c-2.88,0-4.32,3.72-5.4,10.2h69.36v45.48h-.36c.48,2.4,1.44,5.04,2.4,7.08-2.28-.12-4.44-.12-5.28-.12s-1.2,.24-1.2,1.08v8.28h15.24v17.28h-42.36v-17.28h15.96v-8.28c0-4.56,.6-6.6,4.08-8.04h-11.4l-2.16,5.28c2.4,2.4,5.4,5.04,7.8,6.72l-8.04,3.48c-3.6-2.28-8.04-5.76-10.08-8.28l3.72-1.8-7.8-1.32c1.32,2.4,3.24,5.04,4.92,6.48-10.08,3.36-14.28,8.64-16.2,17.28h11.28v9.72h-12.36c-.24,3.48-.36,7.44-.36,11.88l-14.76-.72c.12-1.08,.84-1.8,2.64-2.04,.12-3.24,.12-6.24,.36-9.12h-12.84c2.4,2.4,5.88,5.28,8.52,7.08l-8.4,5.04c-3.84-2.16-8.28-5.64-10.56-8.16l6.24-3.96h-8.76v-9.72h26.76l.36-2.28-9.6-.6c.12-.96,.84-1.56,2.76-1.92v-8.28c0-2.64-.36-2.88-2.76-2.88h-6.6c-2.16,0-2.64,.96-2.88,7.32-2.28-1.56-6.6-3.12-9.6-3.84,1.08-10.08,3.96-12.72,11.04-12.72h9.96c9.6,0,12,2.64,12.12,11.16,3.48-5.52,8.88-9.6,17.4-12.36,.12,.36,.36,.84,.6,1.32,.48-.24,1.08-.36,1.8-.36l1.92-2.4h-34.8v-25.2h57.24v-3.12H52.39v-6.96Zm91.32,62.64v-4.8h-19.92v4.8h19.92Zm-12.48-89.64c-.12,3.72,.72,9.36,1.8,13.68l-11.52,1.68c-1.32-4.08-2.4-9.6-2.52-13.2l12.24-2.16Zm-44.76,55.8h43.32v-3.36h-43.32v3.36Zm43.32-12.24h-43.32v3.36h43.32v-3.36Zm-19.68-42.6c.84,3.24,3.12,8.52,5.4,12.24l-10.44,2.76c-2.4-3.6-4.8-8.52-5.76-11.76l10.8-3.24Z"/>
          </g>
        </g>
      </g>
    </g>
  </g>
</svg>