<?xml version="1.0" encoding="UTF-8"?>
<svg id="Layer_2" data-name="Layer 2" xmlns="http://www.w3.org/2000/svg" xmlns:xlink="http://www.w3.org/1999/xlink" width="337" height="409" viewBox="0 0 337.98 409.43">
  <defs>
    <style>
      .cls-1 {
        clip-path: url(#clippath-1);
      }

      .cls-2 {
        fill: #2e1b10;
      }

      .cls-3 {
        clip-path: url(#clippath);
      }

      .cls-4, .cls-5 {
        fill: none;
      }

      .cls-6 {
        fill: url(#linear-gradient);
      }

      .cls-6, .cls-5 {
        stroke: #3b2314;
        stroke-miterlimit: 10;
        stroke-width: 6px;
      }
    </style>
    <clipPath id="clippath">
      <path id="Form_big" data-name="Form big" class="cls-5" d="M166.27,3.1H19.82C.54,3.1,3.11,21.39,3.11,21.39c0,0-1.54,253.78,30.06,308.36,31.6,54.58,113.05,76.68,133.09,76.68s101.49-22.1,133.09-76.68c31.6-54.58,30.06-308.36,30.06-308.36,0,0,2.57-18.28-16.7-18.28H166.27Z"/>
    </clipPath>
    <linearGradient id="linear-gradient" x1="-1.5" y1="211.29" x2="325.03" y2="211.29" gradientTransform="translate(4.5 -14.51)" gradientUnits="userSpaceOnUse">
      <stop offset="0" stop-color="#fbcdab"/>
      <stop offset="1" stop-color="#fde4d9"/>
    </linearGradient>
    <clipPath id="clippath-1">
      <polygon class="cls-4" points="202.3 23.39 250.42 71.51 250.42 139.57 202.3 187.69 134.24 187.69 86.12 139.57 86.12 71.51 134.24 23.39 202.3 23.39"/>
    </clipPath>
  </defs>
  <g id="Main_JAP_copy" data-name="Main JAP copy">
    <g id="north_big_jap_copy_3" data-name="north big jap copy 3">
      <path id="Shadow" class="cls-2" d="M169.02,0H17.45C-2.49,0,.17,18.5,.17,18.5c0,0-1.6,256.77,31.11,311.99,32.7,55.22,116.99,77.58,137.73,77.58s105.03-22.36,137.73-77.58c32.71-55.22,31.11-311.99,31.11-311.99,0,0,2.66-18.5-17.28-18.5H169.02Z"/>
      <g>
        <g class="cls-3">
          <rect id="Color_gradient" data-name="Color gradient" class="cls-6" x="3" y="-56.19" width="326.53" height="505.92"/>
        </g>
        <path id="Form_big-2" data-name="Form big" class="cls-5" d="M166.27,3.1H19.82C.54,3.1,3.11,21.39,3.11,21.39c0,0-1.54,253.78,30.06,308.36,31.6,54.58,113.05,76.68,133.09,76.68s101.49-22.1,133.09-76.68c31.6-54.58,30.06-308.36,30.06-308.36,0,0,2.57-18.28-16.7-18.28H166.27Z"/>
      </g>
      <g id="Pieces_copy_39" data-name="Pieces copy 39">
        <g id="Crane_King_copy_9" data-name="Crane King copy 9">
          <g id="CK_move_copy_7" data-name="CK move copy 7">
            <g id="Lines">
              <g class="cls-1">
                <g>
                  <rect class="cls-2" x="163.28" y="-10.24" width="9.1" height="231.58" transform="translate(-25.47 149.6) rotate(-45)"/>
                  <rect class="cls-2" x="52.04" y="101" width="231.58" height="9.1" transform="translate(-25.48 149.57) rotate(-45)"/>
                  <rect class="cls-2" x="85.95" y="100.99" width="163.75" height="9.1"/>
                  <rect class="cls-2" x="163.28" y="23.36" width="9.1" height="164.36"/>
                </g>
              </g>
            </g>
            <rect id="Center" class="cls-2" x="148.86" y="86.25" width="37.93" height="37.93"/>
          </g>
          <g>
            <path class="cls-2" d="M232.87,226.3v-3.24c-1.92,2.76-3.36,6-4.2,9.12l-8.88-3c1.56-5.88,3.96-11.76,8.88-15.48l6.48,4.2h28.8v-4.08h10.8v25.32c1.32-1.32,2.76-2.64,4.2-3.84,1.44,2.28,4.56,6.72,6.48,8.76-6.96,5.64-13.32,14.28-18.24,24.12h5.04v-8.4h9.6v16.32h-18c-.96,2.52-1.8,5.04-2.64,7.56h5.64v6.48h-27.84v-6.48h18.48l-9.24-2.52c.36-.84,1.32-1.44,2.88-1.32,.36-1.2,.84-2.52,1.32-3.72h-22.92v-16.32h9.96v8.4h16.08c1.56-3.48,3.24-6.72,5.04-9.96h-4.92c-1.2,3-2.28,6.48-2.88,9.12l-11.16-3.24c.36-.84,1.32-1.2,2.76-1.2,.48-1.32,1.2-3,2.04-4.68h-12.84v-7.44h12.96v-3.84h-11.28v-6.24h11.28v-3.96h-11.28v-6.36h11.28v-4.08h-13.68Zm36.48,77.16v-14.4h11.52v21.84h-45.6v3.72h36.48v8.28h-88.08v-8.28h37.8v-3.72h-46.68v-21.84h12.12v14.4h34.56v-21.24h13.8v21.24h34.08Zm-30.24-9.96h25.08v6.48h-25.08v-6.48Zm17.76-46.56v3.84h7.08v-3.84h-7.08Zm0-10.2v3.96h7.08v-3.96h-7.08Zm7.08-6.36v-4.08h-7.08v4.08h7.08Zm-91.92,12.48h42.12v-3.12h-31.44l-2.76,.12-6.36-.48,.36-2.88c.84-20.64,1.68-23.04,14.4-23.04,1.8,0,3.84,.12,6,.24,.12,2.04,.96,5.28,2.16,7.2-3.36-.36-4.44-.36-7.32-.36-.72,0-1.32,.12-1.92,.84-.84,1.08-1.32,4.2-1.68,11.64h6.24c-1.8-2.4-3.6-5.4-4.56-7.32l6.12-2.76c.84,2.28,2.88,5.76,4.8,8.4l-4.08,1.68h32.88v44.4h-13.08c-.84,2.04-1.56,4.32-2.16,6.24h6v6.48h-28.2v-6.48h14.64l-8.52-2.04c.36-.84,1.32-1.32,2.88-1.32l1.8-2.88h-18.72v-24.6h32.52v-3.12h-42.12v-6.84Zm45.36-27.12c0,3.96,.72,10.08,1.8,14.88l-7.8,1.32c-1.2-4.56-2.04-10.8-2.16-14.76l8.16-1.44Zm-25.44,77.76h25.8v6.48h-25.8v-6.48Zm2.64-25.44v3.24h19.56v-3.24h-19.56Zm19.56-9.12h-19.56v3.24h19.56v-3.24Zm-9.72-40.68c.48,3.36,2.16,8.52,3.84,12.36l-6.72,1.92c-1.92-3.72-3.6-8.76-4.2-12l7.08-2.28Z"/>
            <path class="cls-2" d="M101.23,231.7H52.87v-14.04h109.68v14.04h-45.84v33h34.68v14.04h-34.68v26.64h40.44v14.16H58.27v-14.16h42.96v-26.64H63.67v-14.04h37.56v-33Zm-27.48,1.08c3.96,6.12,12.96,15.48,20.16,21.96l-11.28,8.52c-7.08-6-16.56-14.76-21-20.76l12.12-9.72Z"/>
          </g>
        </g>
      </g>
    </g>
  </g>
</svg>