<?xml version="1.0" encoding="UTF-8"?>
<svg id="Layer_2" data-name="Layer 2" xmlns="http://www.w3.org/2000/svg" xmlns:xlink="http://www.w3.org/1999/xlink" viewBox="0 0 337.98 409.43">
  <defs>
    <style>
      .cls-1 {
        clip-path: url(#clippath-1);
      }

      .cls-2 {
        fill: #2e1b10;
      }

      .cls-3 {
        clip-path: url(#clippath);
      }

      .cls-4, .cls-5 {
        fill: none;
      }

      .cls-6 {
        fill: url(#linear-gradient);
      }

      .cls-6, .cls-5 {
        stroke: #3b2314;
        stroke-miterlimit: 10;
        stroke-width: 6px;
      }
    </style>
    <clipPath id="clippath">
      <path id="Form_big" data-name="Form big" class="cls-5" d="M166.27,3.1H19.82C.54,3.1,3.11,21.39,3.11,21.39c0,0-1.54,253.78,30.06,308.36,31.6,54.58,113.05,76.68,133.09,76.68s101.49-22.1,133.09-76.68c31.6-54.58,30.06-308.36,30.06-308.36,0,0,2.57-18.28-16.7-18.28H166.27Z"/>
    </clipPath>
    <linearGradient id="linear-gradient" x1="11415.54" y1="-1768.51" x2="11742.07" y2="-1768.51" gradientTransform="translate(-11412.54 1965.28)" gradientUnits="userSpaceOnUse">
      <stop offset="0" stop-color="#fbcdab"/>
      <stop offset="1" stop-color="#fde4d9"/>
    </linearGradient>
    <clipPath id="clippath-1">
      <polygon class="cls-4" points="202.3 23.39 250.42 71.51 250.42 139.57 202.3 187.69 134.24 187.69 86.12 139.57 86.12 71.51 134.24 23.39 202.3 23.39"/>
    </clipPath>
  </defs>
  <g id="Main_JAP_copy" data-name="Main JAP copy">
    <g id="north_big_jap_copy_4" data-name="north big jap copy 4">
      <path id="Shadow" class="cls-2" d="M169.02,0H17.45C-2.49,0,.17,18.5,.17,18.5c0,0-1.6,256.77,31.11,311.99,32.7,55.22,116.99,77.58,137.73,77.58s105.03-22.36,137.73-77.58c32.71-55.22,31.11-311.99,31.11-311.99,0,0,2.66-18.5-17.28-18.5H169.02Z"/>
      <g>
        <g class="cls-3">
          <rect id="Color_gradient" data-name="Color gradient" class="cls-6" x="3" y="-56.19" width="326.53" height="505.92"/>
        </g>
        <path id="Form_big-2" data-name="Form big" class="cls-5" d="M166.27,3.1H19.82C.54,3.1,3.11,21.39,3.11,21.39c0,0-1.54,253.78,30.06,308.36,31.6,54.58,113.05,76.68,133.09,76.68s101.49-22.1,133.09-76.68c31.6-54.58,30.06-308.36,30.06-308.36,0,0,2.57-18.28-16.7-18.28H166.27Z"/>
      </g>
      <g id="Pieces_copy_40" data-name="Pieces copy 40">
        <g id="Climbing_Monkey_copy_10" data-name="Climbing Monkey copy 10">
          <g id="CM_move_copy_8" data-name="CM move copy 8">
            <g id="Lines">
              <g class="cls-1">
                <g>
                  <rect class="cls-2" x="204.17" y="88.48" width="9.1" height="115.91" transform="translate(-42.41 190.48) rotate(-45)"/>
                  <rect class="cls-2" x="68.97" y="141.87" width="115.97" height="9.1" transform="translate(-66.35 132.64) rotate(-45)"/>
                  <rect class="cls-2" x="163.28" y="23.36" width="9.1" height="164.36"/>
                </g>
              </g>
            </g>
            <rect id="Center" class="cls-2" x="148.86" y="86.25" width="37.93" height="37.93"/>
          </g>
          <g>
            <path class="cls-2" d="M184.99,316.3c.72-.84,2.28-.96,3.48-.72,3.36-3.12,9-7.56,13.8-10.92-1.68-2.28-3.6-4.32-5.52-6.48-4.8,4.08-9.84,9-13.08,12.96l-12-8.88c.6-.6,1.92-.96,3.36-.72,3.36-3.12,8.52-7.44,13.32-10.92-5.52-4.44-11.64-8.04-18.24-10.68,3.24-2.76,7.56-8.28,9.72-12,9.84,4.68,18.48,11.4,25.92,19.56v-6.48h44.52v6c7.44-7.92,16.08-14.52,25.2-19.32,1.92,3.12,5.88,7.8,8.76,10.2-6.12,2.88-12.36,7.08-17.88,12.12,3.36,3.24,8.4,7.08,12.48,9.84l-7.68,7.92c-4.44-2.4-9.72-6.12-13.08-9.24-3.24,3.84-6.12,7.92-8.4,12.12h25.8v11.64h-33.36l-2.28,.48-9.84-4.68c.36-.84,1.08-1.32,1.8-1.8,3.12-8.4,7.68-16.2,13.2-23.16h-34.44c6.72,8.64,12.24,18.6,16.56,29.4l-12.36,3.72c-1.68-4.2-3.72-8.4-6.12-12.36-4.2,3.72-8.64,8.04-11.52,11.52l-12.12-9.12Zm19.68-74.64l-7.92-2.28c.24-.96,1.44-1.44,3-1.44,1.56-3,3.72-6.84,5.88-10.2h-30.12v-11.88h104.16v11.88h-28.92c1.56,4.08,3.72,8.64,6.12,12.36l-5.28,1.56h10.32v33.6h-68.76v-33.6h11.52Zm43.2,22.08v-10.68h-39.96v10.68h39.96Zm-28.2-36c-2.16,4.08-4.56,9.48-6.12,13.92h29.76c-2.88-4.44-5.4-9.96-6.6-13.92h-17.04Z"/>
            <path class="cls-2" d="M79.39,254.74c-1.44-3.96-3.24-7.68-5.4-11.04-4.68,3-9.72,6.6-12.96,9.48l-10.68-10.8c.48-.36,1.2-.6,2.04-.6,.48,0,.96,.12,1.44,.24,3.24-1.8,8.4-4.56,13.2-6.84-4.68-4.44-10.44-7.92-17.28-10.08,3-2.76,6.84-8.16,8.76-11.76,16.08,6.48,25.56,19.08,31.56,36.24,2.28-1.8,4.68-3.48,7.32-5.16v-14.04l-15.36,1.92-.6-11.52c12.84-2.04,26.16-4.08,34.68-5.28,.24-1.08,1.2-1.68,2.16-1.92l4.44,13.92c-3.6,.36-7.68,.72-12.24,1.32v8.52c3.72-1.68,7.56-3.24,11.4-4.56,1.2,2.4,3.96,7.2,6,10.08,2.52-26.64,8.52-30.12,29.88-29.28,0,4.68,1.32,9.84,3.84,13.92-3.12-.24-5.64-.36-7.8-.36-5.4,0-7.56,0-9.24,2.4-2.52,3.24-3.48,15.12-3.6,29.04,4.92-6.12,10.32-11.76,15.24-15.84,2.28,3.48,6.24,8.16,9.6,10.8-8.52,5.4-18,15.6-23.76,25.32,.48,3.96,1.32,7.8,2.52,11.52,3.72-3.6,7.44-6.96,11.28-9.84,2.16,2.76,6.84,7.08,9.84,9.36-5.16,3.72-10.32,8.4-15,13.68,3.36,5.16,7.8,10.08,13.56,15l-10.08,7.8c-4.8-3.96-8.76-8.04-12-12.12-2.64,3.84-5.04,7.68-6.96,11.4l-14.52-7.08c.36-.72,1.44-1.2,3-1.2,2.88-5.16,6.6-10.44,10.8-15.6-6.12-12.96-7.2-26.64-7.2-41.04,0-5.76,.12-11.4,.6-16.68-8.4,2.4-17.16,6.12-24.24,10.68h12.96v28.32H58.87v-28.32h20.52Zm16.2,44.88v5.64h22.68v11.64h-22.68v9.84l-17.64-.84c.12-1.32,1.08-1.92,3.24-2.4v-6.6h-23.88v-11.64h23.88v-5.64h-30.36v-12H124.03v12h-28.44Zm7.56-27v-7.44h-30v7.44h30Z"/>
          </g>
        </g>
      </g>
    </g>
  </g>
</svg>