<?xml version="1.0" encoding="UTF-8"?>
<svg id="Layer_2" data-name="Layer 2" xmlns="http://www.w3.org/2000/svg" xmlns:xlink="http://www.w3.org/1999/xlink" viewBox="0 0 337.98 409.43">
  <defs>
    <style>
      .cls-1 {
        clip-path: url(#clippath-1);
      }

      .cls-2 {
        fill: #2e1b10;
      }

      .cls-3 {
        clip-path: url(#clippath);
      }

      .cls-4, .cls-5 {
        fill: none;
      }

      .cls-6 {
        fill: url(#linear-gradient);
      }

      .cls-6, .cls-7, .cls-5 {
        stroke-miterlimit: 10;
      }

      .cls-6, .cls-5 {
        stroke: #3b2314;
        stroke-width: 6px;
      }

      .cls-7 {
        fill: #00aeb7;
        stroke: #007a72;
        stroke-width: 4px;
      }
    </style>
    <clipPath id="clippath">
      <path id="Form_big" data-name="Form big" class="cls-5" d="M166.27,3.1H19.82C.54,3.1,3.11,21.39,3.11,21.39c0,0-1.54,253.78,30.06,308.36,31.6,54.58,113.05,76.68,133.09,76.68s101.49-22.1,133.09-76.68c31.6-54.58,30.06-308.36,30.06-308.36,0,0,2.57-18.28-16.7-18.28H166.27Z"/>
    </clipPath>
    <linearGradient id="linear-gradient" x1="9978.6" y1="-1768.51" x2="10305.13" y2="-1768.51" gradientTransform="translate(-9975.6 1965.28)" gradientUnits="userSpaceOnUse">
      <stop offset="0" stop-color="#fbcdab"/>
      <stop offset="1" stop-color="#fde4d9"/>
    </linearGradient>
    <clipPath id="clippath-1">
      <polygon class="cls-4" points="202.3 23.39 250.42 71.51 250.42 139.57 202.3 187.69 134.24 187.69 86.12 139.57 86.12 71.51 134.24 23.39 202.3 23.39"/>
    </clipPath>
  </defs>
  <g id="Main_JAP_copy" data-name="Main JAP copy">
    <g id="north_big_jap_copy_19" data-name="north big jap copy 19">
      <path id="Shadow" class="cls-2" d="M169.02,0H17.45C-2.49,0,.17,18.5,.17,18.5c0,0-1.6,256.77,31.11,311.99,32.7,55.22,116.99,77.58,137.73,77.58s105.03-22.36,137.73-77.58c32.71-55.22,31.11-311.99,31.11-311.99,0,0,2.66-18.5-17.28-18.5H169.02Z"/>
      <g>
        <g class="cls-3">
          <rect id="Color_gradient" data-name="Color gradient" class="cls-6" x="3" y="-56.19" width="326.53" height="505.92"/>
        </g>
        <path id="Form_big-2" data-name="Form big" class="cls-5" d="M166.27,3.1H19.82C.54,3.1,3.11,21.39,3.11,21.39c0,0-1.54,253.78,30.06,308.36,31.6,54.58,113.05,76.68,133.09,76.68s101.49-22.1,133.09-76.68c31.6-54.58,30.06-308.36,30.06-308.36,0,0,2.57-18.28-16.7-18.28H166.27Z"/>
      </g>
      <g id="Pieces_copy_55" data-name="Pieces copy 55">
        <g id="Tenacious_Falcon_copy_28" data-name="Tenacious Falcon copy 28">
          <g id="FALCON_move_copy_26" data-name="FALCON move copy 26">
            <g id="Lines">
              <g class="cls-1">
                <g>
                  <rect class="cls-7" x="163.28" y="-10.24" width="9.1" height="231.58" transform="translate(-25.47 149.6) rotate(-45)"/>
                  <rect class="cls-7" x="52.04" y="101" width="231.58" height="9.1" transform="translate(-25.48 149.57) rotate(-45)"/>
                  <rect class="cls-7" x="85.95" y="100.99" width="163.75" height="9.1"/>
                  <rect class="cls-7" x="163.28" y="23.36" width="9.1" height="164.36"/>
                </g>
              </g>
            </g>
            <g id="Arrows_copy_56" data-name="Arrows copy 56">
              <polygon class="cls-7" points="227.9 143.09 235.8 172.56 206.33 164.67 227.9 143.09"/>
              <polygon class="cls-7" points="205.47 45.23 234.94 37.34 227.05 66.8 205.47 45.23"/>
              <polygon class="cls-7" points="152.03 36.18 167.29 9.76 182.54 36.18 152.03 36.18"/>
              <polygon class="cls-7" points="107.84 67.57 99.95 38.1 129.42 45.99 107.84 67.57"/>
              <polygon class="cls-7" points="130.18 165.2 100.71 173.09 108.61 143.62 130.18 165.2"/>
              <polygon class="cls-7" points="183.52 174.48 168.27 200.9 153.01 174.48 183.52 174.48"/>
            </g>
            <rect id="Center" class="cls-7" x="148.86" y="86.25" width="37.93" height="37.93"/>
          </g>
          <path class="cls-7" d="M112.39,238.18h68.28v-3h-55.68l-3,.36-8.04-1.08c.12-1.08,.36-1.68,.6-2.88,1.44-14.52,3.36-18.12,14.64-18.12,2.28,0,5.16,.12,8.16,.36,.12,1.32,.72,3.48,1.44,5.4l6.48-2.76c1.08,2.76,3.84,6.96,6.48,9.84l-7.56,2.88h49.2v39.12h-16.2c-1.08,2.52-2.16,5.52-2.76,7.68l-5.64-1.2v10.2l1.32-1.08c1.8,1.92,5.64,5.4,8.04,6.96-5.4,3.96-10.8,10.32-14.4,16.68h18.24l-9.48-3.48c.48-.84,1.44-1.2,2.88-1.2,1.44-2.04,3.24-4.08,5.04-6l-3.12-.6c.24-.96,1.08-1.8,2.88-1.92v-22.8h11.52v14.88c2.04-1.56,4.08-3,6.12-4.32,.96,1.08,2.52,2.88,4.08,4.44v-3.6c0-19.92,1.8-50.28,12.72-69.48,2.28,2.4,8.04,6.6,10.92,8.04-9.72,17.64-10.56,43.2-10.56,61.44v35.64h-43.44v8.04l-18.24-.96c.12-1.2,.96-1.92,3.24-2.4v-4.68h-43.8v-11.04h26.88l-10.32-2.52c.48-.84,1.32-1.32,2.88-1.32l1.56-1.92h-17.28v-5.4h18.48v-3.12h-15.72v-4.68h15.72v-3.12h-15.72v-4.56h15.72v-3.24h-21.48v-6h43.92v-1.44h5.64l1.2-1.92h-38.64v-21.12h55.08v-3.24H112.39v-5.76Zm95.76-19.92c-4.2,3-8.04,8.28-9.96,12.6-9.96-4.08-10.2-4.2-10.44-4.32,2.4-4.92,5.4-10.2,9.96-13.68l10.44,5.4Zm-6.24,89.28v-15.6c-6.12,4.08-12.12,9.84-16.2,15.6h16.2Zm-20.76-93.6c.48,3.36,1.92,8.16,3.6,11.88l-9.96,2.28c-1.92-3.48-3.6-8.16-4.08-11.28l10.44-2.88Zm-42.6,49.2h42.12v-3h-42.12v3Zm42.12-10.8h-42.12v3.12h42.12v-3.12Zm-17.76-38.04c.72,3.12,2.88,7.8,5.16,11.28l-9.48,2.76c-2.4-3.12-4.68-7.68-5.64-10.68l9.96-3.36Zm-16.2,78.96v3.12h10.68v-3.12h-10.68Zm0-7.8v3.12h10.68v-3.12h-10.68Zm0-7.8v3.24h10.68v-3.24h-10.68Zm-.48,24.12c-1.2,1.92-2.4,4.08-3.24,5.76h14.16l-7.08-2.4c.48-.72,1.44-1.2,2.88-.96l1.44-2.4h-8.16Zm-3.36-72.6c-2.52-2.52-4.92-5.64-6.24-8.28-.48,0-2.88-.12-3.36,0-2.76,0-3.72,.96-4.56,8.28h14.16Z"/>
        </g>
      </g>
    </g>
  </g>
</svg>