<?xml version="1.0" encoding="UTF-8"?>
<svg id="Layer_2" data-name="Layer 2" xmlns="http://www.w3.org/2000/svg" xmlns:xlink="http://www.w3.org/1999/xlink" width="337" height="409" viewBox="0 0 337.98 409.43">
  <defs>
    <style>
      .cls-1 {
        clip-path: url(#clippath-1);
      }

      .cls-2 {
        fill: #2e1b10;
      }

      .cls-3 {
        clip-path: url(#clippath);
      }

      .cls-4, .cls-5 {
        fill: none;
      }

      .cls-6 {
        fill: url(#linear-gradient);
      }

      .cls-6, .cls-5 {
        stroke: #3b2314;
        stroke-miterlimit: 10;
        stroke-width: 6px;
      }
    </style>
    <clipPath id="clippath">
      <path id="Form_big" data-name="Form big" class="cls-5" d="M166.27,3.1H19.82C.54,3.1,3.11,21.39,3.11,21.39c0,0-1.54,253.78,30.06,308.36,31.6,54.58,113.05,76.68,133.09,76.68s101.49-22.1,133.09-76.68c31.6-54.58,30.06-308.36,30.06-308.36,0,0,2.57-18.28-16.7-18.28H166.27Z"/>
    </clipPath>
    <linearGradient id="linear-gradient" x1="10701.67" y1="-1768.51" x2="11028.2" y2="-1768.51" gradientTransform="translate(-10698.66 1965.28)" gradientUnits="userSpaceOnUse">
      <stop offset="0" stop-color="#fbcdab"/>
      <stop offset="1" stop-color="#fde4d9"/>
    </linearGradient>
    <clipPath id="clippath-1">
      <polygon class="cls-4" points="202.3 23.39 250.42 71.51 250.42 139.57 202.3 187.69 134.24 187.69 86.12 139.57 86.12 71.51 134.24 23.39 202.3 23.39"/>
    </clipPath>
  </defs>
  <g id="Main_JAP_copy" data-name="Main JAP copy">
    <g id="north_big_jap_copy_5" data-name="north big jap copy 5">
      <path id="Shadow" class="cls-2" d="M169.02,0H17.45C-2.49,0,.17,18.5,.17,18.5c0,0-1.6,256.77,31.11,311.99,32.7,55.22,116.99,77.58,137.73,77.58s105.03-22.36,137.73-77.58c32.71-55.22,31.11-311.99,31.11-311.99,0,0,2.66-18.5-17.28-18.5H169.02Z"/>
      <g>
        <g class="cls-3">
          <rect id="Color_gradient" data-name="Color gradient" class="cls-6" x="3" y="-56.19" width="326.53" height="505.92"/>
        </g>
        <path id="Form_big-2" data-name="Form big" class="cls-5" d="M166.27,3.1H19.82C.54,3.1,3.11,21.39,3.11,21.39c0,0-1.54,253.78,30.06,308.36,31.6,54.58,113.05,76.68,133.09,76.68s101.49-22.1,133.09-76.68c31.6-54.58,30.06-308.36,30.06-308.36,0,0,2.57-18.28-16.7-18.28H166.27Z"/>
      </g>
      <g id="Pieces_copy_41" data-name="Pieces copy 41">
        <g id="Flying_Cock_copy_11" data-name="Flying Cock copy 11">
          <g id="FC_move_copy_9" data-name="FC move copy 9">
            <g id="Lines">
              <g class="cls-1">
                <g>
                  <rect class="cls-2" x="203.8" y="87.58" width="9.1" height="116.97" transform="translate(-42.26 190.12) rotate(-45)"/>
                  <rect class="cls-2" x="69.27" y="142.6" width="113.9" height="9.1" transform="translate(-67.08 132.34) rotate(-45)"/>
                  <rect class="cls-2" x="85.95" y="100.99" width="163.75" height="9.1"/>
                </g>
              </g>
            </g>
            <rect id="Center" class="cls-2" x="148.86" y="86.25" width="37.93" height="37.93"/>
          </g>
          <g>
            <path class="cls-2" d="M249.67,244.78c-5.52-5.52-11.88-12.48-15.12-17.04l10.08-8.16c2.52,3.84,7.08,9.48,11.64,14.64,3.84-7.68,10.08-14.88,19.8-20.76,1.92,2.76,6,7.2,9.12,9.48-11.28,5.88-16.68,13.92-19.32,21.84h17.88v12.36h-20.16c-.12,1.68-.12,2.88-.12,6.96h17.04v12.12h-17.04v8.52l-16.32-.84c.12-1.08,.96-1.92,3.12-2.16v-5.52h-17.4v-12.12h17.4c0-4.08,0-5.28,.12-6.96h-19.92v-12.36h19.2Zm23.76,60.48c-3.24-6-6-14.16-6.84-19.56l11.04-4.2c.72,5.52,3.24,13.8,6.36,20.04l-10.56,3.72Zm-44.28,9.6c.36-.36,.96-.48,1.8-.48,.36,0,.84,0,1.2,.12,12.36-3.12,31.44-5.88,47.88-7.32,.48,3,2.28,7.92,3.6,10.68-15.6,1.8-33.48,4.8-44.52,8.16l-9.96-11.16Zm25.92-6.72c-2.76-6.12-4.68-14.4-5.28-19.8l11.52-3c.24,5.52,2.16,13.92,4.56,20.28l-10.8,2.52Zm-83.88-44.76h42.36v-4.8h-31.8l-2.52,.12-6.24-.6c0-.84,.12-2.16,.24-3.36,1.08-24.6,2.28-33.96,5.04-37.32,2.28-3,4.68-4.44,18.48-4.08,.12,3.12,1.32,7.32,2.76,9.96-3.6-.36-6.72-.36-8.28-.36-4.2,0-4.68,3-5.28,10.2l5.64-2.04c.84,3.48,3.12,8.76,5.16,12.72l-6.48,2.28c-1.8-3-3.48-6.72-4.68-9.84-.24,3.24-.48,7.2-.72,12h41.28v54.48c.6-.36,1.32-.48,2.28-.48,2.28-6.36,6.24-15.72,9.48-21.6l9.6,3.96c-2.76,6.6-6.12,16.68-7.8,24.12l-13.56-4.8v11.64h-15c-1.08,3.72-2.04,7.92-2.52,11.16l-16.8-3.12c.24-1.08,1.32-1.56,3-1.56,.72-1.92,1.56-4.2,2.52-6.48h-18.6v-37.8h34.8v-4.44h-42.36v-9.96Zm47.4-20.76c1.2-9.72,3.12-20.04,8.16-26.52l9.72,5.4c-4.44,5.64-6.72,14.88-7.68,23.76l-10.2-2.64Zm-2.76-21.48c-.24,5.28,.36,13.32,1.56,19.56l-7.92,1.2c-1.2-6.12-2.04-14.16-1.92-19.44l8.28-1.32Zm-24.48,84.72h22.2v-4.92h-22.2v4.92Zm22.2-18.36h-22.2v4.92h22.2v-4.92Zm-10.68-61.68c.36,4.32,1.92,10.92,3.72,15.96l-7.08,1.68c-1.92-4.92-3.6-11.4-4.2-15.6l7.56-2.04Z"/>
            <path class="cls-2" d="M51.43,262.66c.6-.96,1.92-1.08,3.12-.96,2.64-2.4,7.08-6.24,10.56-8.88-5.16-2.88-9.96-5.88-13.08-8.4l6.36-6.72c-2.4-3.12-5.52-6.72-8.16-8.4,1.8-11.16,5.64-15.96,11.88-15.96,.96,0,1.92,0,2.88,.24,20.76,2.76,25.56,24.12,27.24,49.2h12.96v-47.64h14.04v47.64h14.04c.84-16.92,4.8-35.28,21.36-49.2,2.28,2.88,7.44,7.56,10.68,9.6-13.8,11.52-17.4,26.04-18.24,39.6h15.72v13.08h-15.96v10.68c3.6-1.44,7.2-2.88,10.68-3.96,1.56,2.64,5.04,8.04,7.32,10.44-11.04,2.88-23.64,7.92-30.6,13.8l-13.8-6.12c.36-.6,1.2-.96,2.16-.96,.24,0,.6,0,.96,.12,3.24-2.64,7.2-5.28,11.52-7.68l-5.04-.24c.12-1.2,1.08-1.8,3.12-2.28v-13.8h-13.92v29.16l-17.16-.96c.12-1.2,.96-1.92,3.12-2.28v-25.92h-25.8c-.12-6.6-.36-13.2-1.08-19.44l-2.16,2.16-2.16-.96c-3.12,3.36-7.08,8.52-9.24,12.12l-13.32-7.08Zm.12,54.24c.6-.72,1.56-1.08,3.24-.84,2.64-2.64,7.32-6.72,10.68-9.36-4.68-2.76-9.12-5.76-12-8.04l8.52-8.52c3.6,3.36,10.32,7.8,16.8,11.64-3-10.8-8.88-18.48-17.04-18.48-1.56,0-2.4,3.36-3.12,8.64-2.28-2.88-5.52-6.24-8.16-7.92,1.8-9.24,5.76-13.44,11.64-13.44,.84,0,1.8,0,2.76,.24,19.44,2.4,25.68,18.6,28.44,37.56h63.48v12.84H81.55c-.24-4.08-.6-8.28-1.2-12.24l-3.96,3.72c-1.44-.72-2.88-1.56-4.44-2.4v.12l2.16,1.32c-3.12,3.36-7.08,8.64-9.24,12.24l-13.32-7.08Zm8.88-81.24c3.48,3.24,10.08,7.44,16.44,11.16-2.52-11.88-7.8-20.28-15.24-20.28-1.44,0-2.4,4.44-3.12,11.16l1.92-2.04Z"/>
          </g>
        </g>
      </g>
    </g>
  </g>
</svg>