<?xml version="1.0" encoding="UTF-8"?>
<svg id="Layer_2" data-name="Layer 2" xmlns="http://www.w3.org/2000/svg" xmlns:xlink="http://www.w3.org/1999/xlink" width="337" height="409" viewBox="0 0 337.98 409.43">
  <defs>
    <style>
      .cls-1 {
        clip-path: url(#clippath-1);
      }

      .cls-2 {
        fill: #2e1b10;
      }

      .cls-3 {
        clip-path: url(#clippath);
      }

      .cls-4, .cls-5 {
        fill: none;
      }

      .cls-6 {
        fill: url(#linear-gradient);
      }

      .cls-6, .cls-5 {
        stroke: #3b2314;
        stroke-miterlimit: 10;
        stroke-width: 6px;
      }
    </style>
    <clipPath id="clippath">
      <path id="Form_big" data-name="Form big" class="cls-5" d="M166.27,3.1H19.82C.54,3.1,3.11,21.39,3.11,21.39c0,0-1.54,253.78,30.06,308.36,31.6,54.58,113.05,76.68,133.09,76.68s101.49-22.1,133.09-76.68c31.6-54.58,30.06-308.36,30.06-308.36,0,0,2.57-18.28-16.7-18.28H166.27Z"/>
    </clipPath>
    <linearGradient id="linear-gradient" x1="9978.6" y1="-1768.51" x2="10305.13" y2="-1768.51" gradientTransform="translate(-9975.6 1965.28)" gradientUnits="userSpaceOnUse">
      <stop offset="0" stop-color="#fbcdab"/>
      <stop offset="1" stop-color="#fde4d9"/>
    </linearGradient>
    <clipPath id="clippath-1">
      <polygon class="cls-4" points="202.3 23.39 250.42 71.51 250.42 139.57 202.3 187.69 134.24 187.69 86.12 139.57 86.12 71.51 134.24 23.39 202.3 23.39"/>
    </clipPath>
  </defs>
  <g id="Main_JAP_copy" data-name="Main JAP copy">
    <g id="north_big_jap_copy_7" data-name="north big jap copy 7">
      <path id="Shadow" class="cls-2" d="M169.02,0H17.45C-2.49,0,.17,18.5,.17,18.5c0,0-1.6,256.77,31.11,311.99,32.7,55.22,116.99,77.58,137.73,77.58s105.03-22.36,137.73-77.58c32.71-55.22,31.11-311.99,31.11-311.99,0,0,2.66-18.5-17.28-18.5H169.02Z"/>
      <g>
        <g class="cls-3">
          <rect id="Color_gradient" data-name="Color gradient" class="cls-6" x="3" y="-56.19" width="326.53" height="505.92"/>
        </g>
        <path id="Form_big-2" data-name="Form big" class="cls-5" d="M166.27,3.1H19.82C.54,3.1,3.11,21.39,3.11,21.39c0,0-1.54,253.78,30.06,308.36,31.6,54.58,113.05,76.68,133.09,76.68s101.49-22.1,133.09-76.68c31.6-54.58,30.06-308.36,30.06-308.36,0,0,2.57-18.28-16.7-18.28H166.27Z"/>
      </g>
      <g id="Pieces_copy_43" data-name="Pieces copy 43">
        <g id="Flying_Goose_copy_13" data-name="Flying Goose copy 13">
          <g id="FG_move_copy_11" data-name="FG move copy 11">
            <g id="Lines">
              <g class="cls-1">
                <g>
                  <rect class="cls-2" x="204.17" y="88.48" width="9.1" height="115.91" transform="translate(-42.41 190.48) rotate(-45)"/>
                  <rect class="cls-2" x="68.97" y="141.87" width="115.97" height="9.1" transform="translate(-66.35 132.64) rotate(-45)"/>
                  <rect class="cls-2" x="163.28" y="23.36" width="9.1" height="164.36"/>
                </g>
              </g>
            </g>
            <rect id="Center" class="cls-2" x="148.86" y="86.25" width="37.93" height="37.93"/>
          </g>
          <g>
            <path class="cls-2" d="M171.55,254.26h67.08v-4.2h-49.92l-3,.36-7.8-1.44c0-.96,.24-2.16,.6-3.12,3-30.48,5.52-32.4,20.76-32.4,2.04,0,4.32,0,6.72,.12,.12,3,1.32,7.44,2.88,10.2-3.84-.48-7.32-.6-8.88-.6s-2.52,.24-3.48,1.2c-1.44,1.56-2.88,6.24-3.96,16.44h59.76v60.6h-20.64c-.6,2.64-1.32,5.52-1.8,8.16h30.72v-24.48c0-20.76,1.68-51.84,12.36-71.76,2.76,2.28,9,5.76,12.6,7.2-9.96,18.48-10.8,45.48-10.8,64.56v37.32h-101.4v-12.84h39v-.12h-.72c.36-.96,1.2-1.56,3-1.56,.72-1.92,1.8-4.2,2.76-6.48h-25.56v-33.84h46.8v-4.2h-67.08v-9.12Zm73.32-18.48c1.68-9.24,4.8-17.28,12.84-22.2,9,6.12,9.24,6.36,9.48,6.48-6.72,3.96-10.32,10.68-11.64,18.36l-10.68-2.64Zm-5.52-19.8c-.12,5.4,1.08,13.68,3,19.92l-10.08,1.44c-2.16-6.12-3.6-14.4-3.72-19.68l10.8-1.68Zm-33.6,76.68h32.88v-4.2h-32.88v4.2Zm32.88-16.44h-32.88v4.56h32.88v-4.56Zm-17.16-57.84c.72,4.68,3.24,12,5.76,17.64l-9.72,2.16c-2.88-5.4-5.52-12.6-6.48-17.28l10.44-2.52Zm-18.36,21.36c-2.88-3.12-6-7.68-7.2-10.8l8.88-3.72c1.2,3.12,4.08,7.92,6.84,11.28l-8.52,3.24Z"/>
            <path class="cls-2" d="M51.43,262.66c.6-.96,1.92-1.08,3.12-.96,2.64-2.4,7.08-6.24,10.56-8.88-5.16-2.88-9.96-5.88-13.08-8.4l6.36-6.72c-2.4-3.12-5.52-6.72-8.16-8.4,1.8-11.16,5.64-15.96,11.88-15.96,.96,0,1.92,0,2.88,.24,20.76,2.76,25.56,24.12,27.24,49.2h12.96v-47.64h14.04v47.64h14.04c.84-16.92,4.8-35.28,21.36-49.2,2.28,2.88,7.44,7.56,10.68,9.6-13.8,11.52-17.4,26.04-18.24,39.6h15.72v13.08h-15.96v10.68c3.6-1.44,7.2-2.88,10.68-3.96,1.56,2.64,5.04,8.04,7.32,10.44-11.04,2.88-23.64,7.92-30.6,13.8l-13.8-6.12c.36-.6,1.2-.96,2.16-.96,.24,0,.6,0,.96,.12,3.24-2.64,7.2-5.28,11.52-7.68l-5.04-.24c.12-1.2,1.08-1.8,3.12-2.28v-13.8h-13.92v29.16l-17.16-.96c.12-1.2,.96-1.92,3.12-2.28v-25.92h-25.8c-.12-6.6-.36-13.2-1.08-19.44l-2.16,2.16-2.16-.96c-3.12,3.36-7.08,8.52-9.24,12.12l-13.32-7.08Zm.12,54.24c.6-.72,1.56-1.08,3.24-.84,2.64-2.64,7.32-6.72,10.68-9.36-4.68-2.76-9.12-5.76-12-8.04l8.52-8.52c3.6,3.36,10.32,7.8,16.8,11.64-3-10.8-8.88-18.48-17.04-18.48-1.56,0-2.4,3.36-3.12,8.64-2.28-2.88-5.52-6.24-8.16-7.92,1.8-9.24,5.76-13.44,11.64-13.44,.84,0,1.8,0,2.76,.24,19.44,2.4,25.68,18.6,28.44,37.56h63.48v12.84H81.55c-.24-4.08-.6-8.28-1.2-12.24l-3.96,3.72c-1.44-.72-2.88-1.56-4.44-2.4v.12l2.16,1.32c-3.12,3.36-7.08,8.64-9.24,12.24l-13.32-7.08Zm8.88-81.24c3.48,3.24,10.08,7.44,16.44,11.16-2.52-11.88-7.8-20.28-15.24-20.28-1.44,0-2.4,4.44-3.12,11.16l1.92-2.04Z"/>
          </g>
        </g>
      </g>
    </g>
  </g>
</svg>