<?xml version="1.0" encoding="UTF-8"?>
<svg id="Layer_2" data-name="Layer 2" xmlns="http://www.w3.org/2000/svg" xmlns:xlink="http://www.w3.org/1999/xlink" width="337" height="409" viewBox="0 0 337.98 409.43">
  <defs>
    <style>
      .cls-1 {
        fill: #f20000;
      }

      .cls-2 {
        clip-path: url(#clippath-1);
      }

      .cls-3 {
        fill: #2e1b10;
      }

      .cls-4 {
        clip-path: url(#clippath);
      }

      .cls-5, .cls-6 {
        fill: none;
      }

      .cls-7 {
        fill: url(#linear-gradient);
      }

      .cls-7, .cls-6 {
        stroke: #3b2314;
        stroke-miterlimit: 10;
        stroke-width: 6px;
      }
    </style>
    <clipPath id="clippath">
      <path id="Form_big" data-name="Form big" class="cls-6" d="M166.27,3.1H19.82C.54,3.1,3.11,21.39,3.11,21.39c0,0-1.54,253.78,30.06,308.36,31.6,54.58,113.05,76.68,133.09,76.68s101.49-22.1,133.09-76.68c31.6-54.58,30.06-308.36,30.06-308.36,0,0,2.57-18.28-16.7-18.28H166.27Z"/>
    </clipPath>
    <linearGradient id="linear-gradient" x1="9978.6" y1="-1768.51" x2="10305.13" y2="-1768.51" gradientTransform="translate(-9975.6 1965.28)" gradientUnits="userSpaceOnUse">
      <stop offset="0" stop-color="#fbcdab"/>
      <stop offset="1" stop-color="#fde4d9"/>
    </linearGradient>
    <clipPath id="clippath-1">
      <polygon class="cls-5" points="202.3 23.39 250.42 71.51 250.42 139.57 202.3 187.69 134.24 187.69 86.12 139.57 86.12 71.51 134.24 23.39 202.3 23.39"/>
    </clipPath>
  </defs>
  <g id="Main_JAP_copy" data-name="Main JAP copy">
    <g id="north_big_jap_copy_8" data-name="north big jap copy 8">
      <path id="Shadow" class="cls-3" d="M169.02,0H17.45C-2.49,0,.17,18.5,.17,18.5c0,0-1.6,256.77,31.11,311.99,32.7,55.22,116.99,77.58,137.73,77.58s105.03-22.36,137.73-77.58c32.71-55.22,31.11-311.99,31.11-311.99,0,0,2.66-18.5-17.28-18.5H169.02Z"/>
      <g>
        <g class="cls-4">
          <rect id="Color_gradient" data-name="Color gradient" class="cls-7" x="3" y="-56.19" width="326.53" height="505.92"/>
        </g>
        <path id="Form_big-2" data-name="Form big" class="cls-6" d="M166.27,3.1H19.82C.54,3.1,3.11,21.39,3.11,21.39c0,0-1.54,253.78,30.06,308.36,31.6,54.58,113.05,76.68,133.09,76.68s101.49-22.1,133.09-76.68c31.6-54.58,30.06-308.36,30.06-308.36,0,0,2.57-18.28-16.7-18.28H166.27Z"/>
      </g>
      <g id="Pieces_copy_44" data-name="Pieces copy 44">
        <g id="Fox_copy_14" data-name="Fox copy 14">
          <g id="FOX_move_copy_12" data-name="FOX move copy 12">
            <g id="Lines">
              <g class="cls-2">
                <g>
                  <rect class="cls-3" x="163.28" y="-10.24" width="9.1" height="231.58" transform="translate(-25.47 149.6) rotate(-45)"/>
                  <rect class="cls-3" x="52.04" y="101" width="231.58" height="9.1" transform="translate(-25.48 149.57) rotate(-45)"/>
                  <rect class="cls-3" x="163.28" y="23.36" width="9.1" height="164.36"/>
                </g>
              </g>
            </g>
            <g id="red_dots_copy_25" data-name="red dots copy 25">
              <rect class="cls-1" x="238.57" y="175.88" width="14.25" height="14.25" transform="translate(-57.44 227.33) rotate(-45)"/>
              <rect class="cls-1" x="161.14" y="175.95" width="14.25" height="14.25" transform="translate(-80.17 172.61) rotate(-45)"/>
              <rect class="cls-1" x="82.91" y="175.95" width="14.25" height="14.25" transform="translate(-103.08 117.29) rotate(-45)"/>
              <rect class="cls-1" x="78.91" y="16.19" width="14.25" height="14.25" transform="translate(8.71 67.67) rotate(-45)"/>
              <rect class="cls-1" x="160.34" y="16.27" width="14.25" height="14.25" transform="translate(32.51 125.27) rotate(-45)"/>
              <rect class="cls-1" x="242.57" y="16.27" width="14.25" height="14.25" transform="translate(56.59 183.41) rotate(-45)"/>
            </g>
            <rect id="Center" class="cls-3" x="148.86" y="86.25" width="37.93" height="37.93"/>
          </g>
          <g>
            <path class="cls-3" d="M174.79,316.54c.36-.36,1.08-.6,1.92-.6,.48,0,.84,0,1.32,.12,15.6-3.72,40.44-6.48,61.68-7.44,.36,1.92,1.2,4.8,2.16,7.2l.24-.24c2.52-9.6,6.48-22.44,9.96-32.04-7.68-9.12-10.44-16.44-10.44-23.64,0-18,10.68-19.44,21-18.96,0,3.48,1.32,8.76,3,11.88-2.16-.12-4.08-.12-5.52-.12-3.96,0-5.52,2.4-5.52,8.52,.12,5.4,2.64,12.6,9.72,20.76-2.52,7.68-5.04,18.36-6.96,26.64h9.6v-95.28h12.48v108.12h-27.24l-2.16,.48-7.08-3.6,.24,.6c-20.4,1.32-43.92,3.96-57.36,7.68l-11.04-10.08Zm55.44-77.28c2.04-8.16,5.4-17.28,11.16-23.16l10.2,7.56c-4.92,4.68-8.64,12.48-10.44,19.68l-10.92-4.08Zm-13.68-9.12c0-2.76-.36-3.12-3.6-3.12h-9c-2.64,0-3.24,.84-3.6,7.56-2.4-1.8-7.68-3.84-11.16-4.56,1.44-11.64,4.92-14.52,13.2-14.52h12.36c11.88,0,14.4,3.6,14.4,14.52v12.6l-13.32-.72c2.64,1.56,5.4,3.12,7.92,4.32l-4.08,3.72h20.64v10.08h-48.96v4.8h46.08v9.6h-46.08v4.68h48.96v10.2h-7.2c1.2,4.08,4.08,9.96,6.96,14.28l-10.8,4.44c-3.36-4.2-6.48-10.32-7.8-14.52l9.24-4.2h-39.6l6.12,3.12c-3.6,5.4-8.04,13.92-10.56,20.16l-14.04-6.6c.48-.72,1.68-1.08,3.24-1.08,2.4-4.56,6.6-10.92,9.96-15.6h-7.8v-39.36h28.56c-3.72-2.04-7.08-4.32-9.24-6.36l9.12-8.64c1.68,1.68,4.44,3.84,7.56,5.76,.48-.48,1.2-.84,2.52-1.08v-9.48Zm-9.36,80.04c-2.88-4.44-5.4-10.68-6.36-14.88l11.76-4.56c.72,4.32,3.12,10.68,5.76,15.48l-11.16,3.96Zm-24.72-93c2.04,6.72,7.8,16.44,14.04,23.28l-10.8,5.28c-6.6-6.6-12.48-15.84-14.76-22.56l11.52-6Z"/>
            <path class="cls-3" d="M154.15,326.02c-4.2-3.72-7.68-7.56-10.68-11.52-2.52,3.72-4.8,7.44-6.6,11.04l-14.4-6.96c.6-.96,1.68-1.32,3-1.2,2.88-5.04,6.48-10.44,10.56-15.6-5.76-12.84-6.72-26.52-6.72-41.04,0-17.04,1.2-33.84,6.6-41.4,2.64-3.72,7.44-6.48,21.72-5.76,0,4.56,1.08,9.72,3.48,13.8-2.88-.24-5.28-.24-7.2-.24-4.56,0-5.88,.24-7.68,2.16-2.28,3.12-3.24,14.88-3.36,28.44,4.44-5.64,9.24-10.8,13.8-14.64,2.28,3.36,6.12,8.04,9.36,10.68-7.92,5.16-16.92,15-22.32,24.24,.48,4.32,1.32,8.4,2.52,12.36,3.12-3.24,6.36-6.12,9.72-8.76,2.16,2.88,6.72,7.08,9.72,9.36-4.8,3.48-9.48,7.8-13.8,12.72,3.12,5.16,7.08,10.08,12.36,14.88l-10.08,7.44Zm-42.6-11.28c-15.96,3-32.52,7.44-42.6,12l-13.08-10.44c.48-.6,1.32-.6,3.24-.6,2.4-.96,5.04-1.8,7.92-2.76-2.16-35.4-6.36-70.56-17.64-89.28,3.36-2.4,8.16-7.2,10.56-10.8,12.12,21.96,16.32,57.72,18.6,96.84,5.76-1.44,11.88-2.76,18-3.96l-12.6-.72c.12-1.08,.96-1.68,2.88-2.04v-66l-5.88,.36c.96,4.56,1.92,9.12,3,13.2l-9.24,2.52c-3-10.56-5.88-24.12-6.96-33.24l9.84-2.76c.24,2.64,.6,5.64,1.2,8.76,11.16-1.08,21.84-2.16,29.16-2.76,.36-1.2,1.2-1.68,2.16-1.8l2.64,9.48c2.04-6.6,4.8-12.72,8.52-18.12,1.8,2.76,6.96,7.32,10.08,8.88-10.44,15.84-11.52,37.68-11.52,54.6v41.04l-8.28-2.4Zm-4.56-38.88c0-11.16,.72-25.92,4.2-39.84-3.6,.12-7.8,.24-12.36,.48v68.76l8.16-1.44v-27.96Z"/>
          </g>
        </g>
      </g>
    </g>
  </g>
</svg>