<?xml version="1.0" encoding="UTF-8"?>
<svg id="Layer_2" data-name="Layer 2" xmlns="http://www.w3.org/2000/svg" xmlns:xlink="http://www.w3.org/1999/xlink" width="337" height="409" viewBox="0 0 337.98 409.43">
  <defs>
    <style>
      .cls-1 {
        clip-path: url(#clippath-1);
      }

      .cls-2 {
        fill: #2e1b10;
      }

      .cls-3 {
        clip-path: url(#clippath);
      }

      .cls-4, .cls-5 {
        fill: none;
      }

      .cls-6 {
        fill: url(#linear-gradient);
      }

      .cls-6, .cls-7, .cls-5 {
        stroke-miterlimit: 10;
      }

      .cls-6, .cls-5 {
        stroke: #3b2314;
        stroke-width: 6px;
      }

      .cls-7 {
        fill: #00aeb7;
        stroke: #007a72;
        stroke-width: 4px;
      }
    </style>
    <clipPath id="clippath">
      <path id="Form_big" data-name="Form big" class="cls-5" d="M166.27,3.1H19.82C.54,3.1,3.11,21.39,3.11,21.39c0,0-1.54,253.78,30.06,308.36,31.6,54.58,113.05,76.68,133.09,76.68s101.49-22.1,133.09-76.68c31.6-54.58,30.06-308.36,30.06-308.36,0,0,2.57-18.28-16.7-18.28H166.27Z"/>
    </clipPath>
    <linearGradient id="linear-gradient" x1="9978.6" y1="-1768.51" x2="10305.13" y2="-1768.51" gradientTransform="translate(-9975.6 1965.28)" gradientUnits="userSpaceOnUse">
      <stop offset="0" stop-color="#fbcdab"/>
      <stop offset="1" stop-color="#fde4d9"/>
    </linearGradient>
    <clipPath id="clippath-1">
      <polygon class="cls-4" points="202.3 23.39 250.42 71.51 250.42 139.57 202.3 187.69 134.24 187.69 86.12 139.57 86.12 71.51 134.24 23.39 202.3 23.39"/>
    </clipPath>
  </defs>
  <g id="Main_JAP_copy" data-name="Main JAP copy">
    <g id="north_big_jap_copy_22" data-name="north big jap copy 22">
      <path id="Shadow" class="cls-2" d="M169.02,0H17.45C-2.49,0,.17,18.5,.17,18.5c0,0-1.6,256.77,31.11,311.99,32.7,55.22,116.99,77.58,137.73,77.58s105.03-22.36,137.73-77.58c32.71-55.22,31.11-311.99,31.11-311.99,0,0,2.66-18.5-17.28-18.5H169.02Z"/>
      <g>
        <g class="cls-3">
          <rect id="Color_gradient" data-name="Color gradient" class="cls-6" x="3" y="-56.19" width="326.53" height="505.92"/>
        </g>
        <path id="Form_big-2" data-name="Form big" class="cls-5" d="M166.27,3.1H19.82C.54,3.1,3.11,21.39,3.11,21.39c0,0-1.54,253.78,30.06,308.36,31.6,54.58,113.05,76.68,133.09,76.68s101.49-22.1,133.09-76.68c31.6-54.58,30.06-308.36,30.06-308.36,0,0,2.57-18.28-16.7-18.28H166.27Z"/>
      </g>
      <g id="Pieces_copy_58" data-name="Pieces copy 58">
        <g id="Golden_Bird_copy_31" data-name="Golden Bird copy 31">
          <g id="GB_move_copy_29" data-name="GB move copy 29">
            <g id="Lines">
              <g class="cls-1">
                <g>
                  <rect class="cls-7" x="204.24" y="88.65" width="9.1" height="115.71" transform="translate(-42.44 190.57) rotate(-45)"/>
                  <rect class="cls-7" x="68.96" y="141.85" width="116.02" height="9.1" transform="translate(-66.33 132.65) rotate(-45)"/>
                  <rect class="cls-7" x="85.95" y="100.99" width="163.75" height="9.1"/>
                  <rect class="cls-7" x="163.28" y="23.36" width="9.1" height="164.36"/>
                </g>
              </g>
            </g>
            <rect id="Center" class="cls-7" x="148.86" y="86.25" width="37.93" height="37.93"/>
          </g>
          <g>
            <path class="cls-7" d="M203.47,253.3l-14.52-6.24c.6-.84,1.8-1.32,3.36-1.2,2.88-4.92,7.68-11.64,11.64-16.56h-27.36v-12.36h102.36v12.36h-23.64c1.8,5.52,6,13.56,10.08,19.56l-10.8,4.44h18.36v12.36h-36.84v12h22.32v5.88c5.76-4.2,11.88-8.16,18.12-11.52,1.92,3.36,5.88,8.64,8.76,11.4-20.64,10.44-40.32,28.92-49.32,43.92l-19.2-1.08c.36-1.2,1.44-2.28,3.12-2.4-11.52-15.72-32.04-30.96-50.16-38.64,3.6-3.6,6.96-8.52,9.6-12.84,6.12,3.24,12.36,7.2,18.36,11.52v-6.24h23.16v-12h-37.32v-12.36h19.92Zm32.64,0h17.4c-4.56-6.12-9.24-14.28-11.04-19.8l9.72-4.2h-16.08v24Zm-30.12,36.96c9,7.32,16.92,15.24,22.32,22.68,5.04-7.32,12.6-15.24,21.48-22.68h-43.8Zm9.84-57.48c-3.96,5.4-8.88,14.04-11.64,20.52h16.68v-24h-12.36l7.32,3.48Z"/>
            <path class="cls-7" d="M139.87,240.34c2.64-9.6,6.6-19.92,13.32-26.64l11.52,7.2c-6.12,5.76-10.44,14.88-12.72,23.64l-12.12-4.2Zm-87.12,22.08h80.52v-5.4H66.19l-3,.36-7.68-1.2c0-1.08,.24-2.4,.48-3.72,1.56-22.08,3.24-31.2,6.36-34.8,2.76-2.88,5.64-4.32,15.6-4.32,2.04,0,4.32,0,6.6,.12,.12,3.48,1.56,8.4,3.36,11.52-4.44-.48-8.4-.48-10.2-.48s-2.76,.24-3.84,1.2c-1.56,1.8-3,7.56-3.96,21.12h77.64v70.8h-27.96c-1.2,3.36-2.28,6.84-2.88,9.72l-18.24-2.88c.36-.96,1.2-1.44,3-1.56l2.76-5.28h-34.56v-39.96h63.6v-5.28H52.75v-9.96Zm79.92-45.12c-.36,5.88,.6,15.24,2.28,22.44l-11.76,1.8c-2.04-7.08-3.12-16.44-3.12-22.32l12.6-1.92Zm-48.84,90.36h49.44v-5.4h-49.44v5.4Zm49.44-20.04h-49.44v5.76h49.44v-5.76Zm-23.16-68.04c.48,5.4,2.76,13.92,5.28,20.4l-10.92,2.64c-2.76-6.36-5.4-14.64-6.12-19.8l11.76-3.24Zm-20.76,6.48c1.2,4.32,4.32,11.04,7.32,16.08l-10.2,3.6c-3.12-4.8-6.48-11.4-7.92-15.6l10.8-4.08Z"/>
          </g>
        </g>
      </g>
    </g>
  </g>
</svg>