<?xml version="1.0" encoding="UTF-8"?>
<svg id="Layer_2" data-name="Layer 2" xmlns="http://www.w3.org/2000/svg" xmlns:xlink="http://www.w3.org/1999/xlink" viewBox="0 0 337.98 409.43">
  <defs>
    <style>
      .cls-1 {
        clip-path: url(#clippath-1);
      }

      .cls-2 {
        fill: #2e1b10;
      }

      .cls-3 {
        clip-path: url(#clippath);
      }

      .cls-4, .cls-5 {
        fill: none;
      }

      .cls-6 {
        fill: url(#linear-gradient);
      }

      .cls-6, .cls-5 {
        stroke: #3b2314;
        stroke-miterlimit: 10;
        stroke-width: 6px;
      }
    </style>
    <clipPath id="clippath">
      <path id="Form_big" data-name="Form big" class="cls-5" d="M166.27,3.1H19.82C.54,3.1,3.11,21.39,3.11,21.39c0,0-1.54,253.78,30.06,308.36,31.6,54.58,113.05,76.68,133.09,76.68s101.49-22.1,133.09-76.68c31.6-54.58,30.06-308.36,30.06-308.36,0,0,2.57-18.28-16.7-18.28H166.27Z"/>
    </clipPath>
    <linearGradient id="linear-gradient" x1="9978.6" y1="-1768.51" x2="10305.13" y2="-1768.51" gradientTransform="translate(-9975.6 1965.28)" gradientUnits="userSpaceOnUse">
      <stop offset="0" stop-color="#fbcdab"/>
      <stop offset="1" stop-color="#fde4d9"/>
    </linearGradient>
    <clipPath id="clippath-1">
      <polygon class="cls-4" points="202.3 23.39 250.42 71.51 250.42 139.57 202.3 187.69 134.24 187.69 86.12 139.57 86.12 71.51 134.24 23.39 202.3 23.39"/>
    </clipPath>
  </defs>
  <g id="Main_JAP_copy" data-name="Main JAP copy">
    <g id="north_big_jap_copy_10" data-name="north big jap copy 10">
      <path id="Shadow" class="cls-2" d="M169.02,0H17.45C-2.49,0,.17,18.5,.17,18.5c0,0-1.6,256.77,31.11,311.99,32.7,55.22,116.99,77.58,137.73,77.58s105.03-22.36,137.73-77.58c32.71-55.22,31.11-311.99,31.11-311.99,0,0,2.66-18.5-17.28-18.5H169.02Z"/>
      <g>
        <g class="cls-3">
          <rect id="Color_gradient" data-name="Color gradient" class="cls-6" x="3" y="-56.19" width="326.53" height="505.92"/>
        </g>
        <path id="Form_big-2" data-name="Form big" class="cls-5" d="M166.27,3.1H19.82C.54,3.1,3.11,21.39,3.11,21.39c0,0-1.54,253.78,30.06,308.36,31.6,54.58,113.05,76.68,133.09,76.68s101.49-22.1,133.09-76.68c31.6-54.58,30.06-308.36,30.06-308.36,0,0,2.57-18.28-16.7-18.28H166.27Z"/>
      </g>
      <g id="Pieces_copy_46" data-name="Pieces copy 46">
        <g id="Oxcart_copy_16" data-name="Oxcart copy 16">
          <g id="OC_move_copy_14" data-name="OC move copy 14">
            <g id="Arrows_copy_47" data-name="Arrows copy 47">
              <polygon class="cls-2" points="183.52 174.48 168.27 200.9 153.01 174.48 183.52 174.48"/>
            </g>
            <g id="Lines">
              <g class="cls-1">
                <rect class="cls-2" x="163.28" y="105.54" width="9.1" height="82.18"/>
              </g>
            </g>
            <rect id="Center" class="cls-2" x="148.86" y="86.25" width="37.93" height="37.93"/>
          </g>
          <g>
            <path class="cls-2" d="M172.63,267.94v-14.28h47.64v-40.08h15.36v40.08h47.16v14.28h-47.16v24.24h23.88c3.48-7.8,7.32-14.88,11.64-20.4,3.36,2.28,9.72,5.4,13.8,7.08-8.64,10.2-15.84,28.08-19.56,45.24l-18-4.2c.36-1.32,1.68-1.8,3.12-1.68,1.08-3.96,2.16-7.92,3.48-11.88h-18.36v20.4l-18.6-1.08c.12-1.2,1.08-1.92,3.24-2.28v-17.04h-40.8v-14.16h40.8v-24.24h-47.64Z"/>
            <path class="cls-2" d="M52.51,242.74v-13.08h48.36v-16.08h14.88v16.08h46.92v13.08h-46.92v6.36h34.8v48.72h-34.8v5.88h44.04v13.08h-44.04v9.96l-18.24-1.08c.12-1.2,1.08-1.92,3.36-2.28v-6.6H55.99v-13.08h44.88v-5.88h-35.88v-48.72h35.88v-6.36H52.51Zm84.24,43.56v-7.32h-21v7.32h21Zm0-25.68h-21v7.56h21v-7.56Zm-57.12,25.68h21.24v-7.32h-21.24v7.32Zm0-25.68v7.56h21.24v-7.56h-21.24Z"/>
          </g>
        </g>
      </g>
    </g>
  </g>
</svg>