<?xml version="1.0" encoding="UTF-8"?>
<svg id="Layer_2" data-name="Layer 2" xmlns="http://www.w3.org/2000/svg" xmlns:xlink="http://www.w3.org/1999/xlink" viewBox="0 0 337.98 409.43">
  <defs>
    <style>
      .cls-1 {
        clip-path: url(#clippath-1);
      }

      .cls-2 {
        fill: #2e1b10;
      }

      .cls-3 {
        clip-path: url(#clippath);
      }

      .cls-4, .cls-5 {
        fill: none;
      }

      .cls-6 {
        fill: url(#linear-gradient);
      }

      .cls-6, .cls-7, .cls-5 {
        stroke-miterlimit: 10;
      }

      .cls-6, .cls-5 {
        stroke: #3b2314;
        stroke-width: 6px;
      }

      .cls-7 {
        fill: #00aeb7;
        stroke: #007a72;
        stroke-width: 4px;
      }
    </style>
    <clipPath id="clippath">
      <path id="Form_big" data-name="Form big" class="cls-5" d="M166.27,3.1H19.82C.54,3.1,3.11,21.39,3.11,21.39c0,0-1.54,253.78,30.06,308.36,31.6,54.58,113.05,76.68,133.09,76.68s101.49-22.1,133.09-76.68c31.6-54.58,30.06-308.36,30.06-308.36,0,0,2.57-18.28-16.7-18.28H166.27Z"/>
    </clipPath>
    <linearGradient id="linear-gradient" x1="9978.6" y1="-1768.51" x2="10305.13" y2="-1768.51" gradientTransform="translate(-9975.6 1965.28)" gradientUnits="userSpaceOnUse">
      <stop offset="0" stop-color="#fbcdab"/>
      <stop offset="1" stop-color="#fde4d9"/>
    </linearGradient>
    <clipPath id="clippath-1">
      <polygon class="cls-4" points="202.3 23.39 250.42 71.51 250.42 139.57 202.3 187.69 134.24 187.69 86.12 139.57 86.12 71.51 134.24 23.39 202.3 23.39"/>
    </clipPath>
  </defs>
  <g id="Main_JAP_copy" data-name="Main JAP copy">
    <g id="north_big_jap_copy_25" data-name="north big jap copy 25">
      <path id="Shadow" class="cls-2" d="M169.02,0H17.45C-2.49,0,.17,18.5,.17,18.5c0,0-1.6,256.77,31.11,311.99,32.7,55.22,116.99,77.58,137.73,77.58s105.03-22.36,137.73-77.58c32.71-55.22,31.11-311.99,31.11-311.99,0,0,2.66-18.5-17.28-18.5H169.02Z"/>
      <g>
        <g class="cls-3">
          <rect id="Color_gradient" data-name="Color gradient" class="cls-6" x="3" y="-56.19" width="326.53" height="505.92"/>
        </g>
        <path id="Form_big-2" data-name="Form big" class="cls-5" d="M166.27,3.1H19.82C.54,3.1,3.11,21.39,3.11,21.39c0,0-1.54,253.78,30.06,308.36,31.6,54.58,113.05,76.68,133.09,76.68s101.49-22.1,133.09-76.68c31.6-54.58,30.06-308.36,30.06-308.36,0,0,2.57-18.28-16.7-18.28H166.27Z"/>
      </g>
      <g id="Pieces_copy_61" data-name="Pieces copy 61">
        <g id="Plodding_Ox_copy_34" data-name="Plodding Ox copy 34">
          <g id="PO_move_copy_32" data-name="PO move copy 32">
            <g id="Lines">
              <g class="cls-1">
                <g>
                  <rect class="cls-7" x="163.28" y="-10.24" width="9.1" height="231.58" transform="translate(-25.47 149.6) rotate(-45)"/>
                  <rect class="cls-7" x="52.04" y="101" width="231.58" height="9.1" transform="translate(-25.48 149.57) rotate(-45)"/>
                  <rect class="cls-7" x="85.95" y="100.99" width="163.75" height="9.1"/>
                  <rect class="cls-7" x="163.28" y="23.36" width="9.1" height="164.36"/>
                </g>
              </g>
            </g>
            <rect id="Center" class="cls-7" x="148.86" y="86.25" width="37.93" height="37.93"/>
          </g>
          <g>
            <path class="cls-7" d="M181.75,265.66l-11.88-9.96c.84-1.44,2.4-2.04,5.76-2.04h14.04v-24.12c0-8.52,2.04-14.64,16.2-15.84,0,9.96,2.64,12,11.04,12.96v1.56h-12.72c-1.32,0-1.68,.48-1.68,1.8v23.64h49.56c.96-16.44,6.84-31.44,29.4-40.32l1.08,1.2c-13.8,10.08-17.4,24.24-17.88,39.12h18.96l.6,2.4h-19.68v30.36l-14.64-5.4h-12.96c-.36,3.6-1.08,8.88-1.44,12.72h47.64l.6,2.4h-20.88v24.48l-17.4-1.68c.24-1.8,1.44-2.64,5.16-3.12v-19.68h-17.16v30.36l-17.88-1.8c.24-1.68,1.32-2.52,5.04-3.12v-9.48h-15.72l-6.72,8.88-12.72-9.12c.84-1.56,2.52-2.16,5.76-2.16h29.4v-13.56h-29.04l-6.96,9-12.96-9.24c.96-1.56,2.4-2.16,5.88-2.16h54.84l-16.08-2.52c.36-2.04,1.68-2.88,4.92-3,2.52-2.04,6.6-4.92,9.84-7.2h-27.36l-5.28,6.84-13.68-9.96c.72-.96,2.4-2.04,4.92-2.52v-19.32h-1.2l-6.72,9.6Zm70.2-9.6h-49.44v22.56h49.44v-22.56Zm-12.6,20.88c-15.24-2.28-20.28-8.28-20.28-13.08,0-3.72,3-6.72,6.48-6.72,1.56,0,3.36,.6,4.92,2.28,.72,5.88,4.8,12.72,9.6,16.44l-.72,1.08Zm-16.68-55.8c0-.12,2.4-3,12.84-3v32.76l-17.04-1.44c.12-1.44,.96-2.28,4.2-2.76v-25.56Z"/>
            <path class="cls-7" d="M52.63,267.94v-14.28h47.64v-40.08h15.36v40.08h47.16v14.28h-47.16v24.24h23.88c3.48-7.8,7.32-14.88,11.64-20.4,3.36,2.28,9.72,5.4,13.8,7.08-8.64,10.2-15.84,28.08-19.56,45.24l-18-4.2c.36-1.32,1.68-1.8,3.12-1.68,1.08-3.96,2.16-7.92,3.48-11.88h-18.36v20.4l-18.6-1.08c.12-1.2,1.08-1.92,3.24-2.28v-17.04H59.47v-14.16h40.8v-24.24H52.63Z"/>
          </g>
        </g>
      </g>
    </g>
  </g>
</svg>