<?xml version="1.0" encoding="UTF-8"?>
<svg id="Layer_2" data-name="Layer 2" xmlns="http://www.w3.org/2000/svg" xmlns:xlink="http://www.w3.org/1999/xlink" width="337" height="409" viewBox="0 0 337.98 409.43">
  <defs>
    <style>
      .cls-1 {
        clip-path: url(#clippath-1);
      }

      .cls-2 {
        fill: #2e1b10;
      }

      .cls-3 {
        clip-path: url(#clippath);
      }

      .cls-4, .cls-5 {
        fill: none;
      }

      .cls-6 {
        fill: url(#linear-gradient);
      }

      .cls-6, .cls-7, .cls-5 {
        stroke-miterlimit: 10;
      }

      .cls-6, .cls-5 {
        stroke: #3b2314;
        stroke-width: 6px;
      }

      .cls-7 {
        fill: #00aeb7;
        stroke: #007a72;
        stroke-width: 4px;
      }
    </style>
    <clipPath id="clippath">
      <path id="Form_big" data-name="Form big" class="cls-5" d="M166.27,3.1H19.82C.54,3.1,3.11,21.39,3.11,21.39c0,0-1.54,253.78,30.06,308.36,31.6,54.58,113.05,76.68,133.09,76.68s101.49-22.1,133.09-76.68c31.6-54.58,30.06-308.36,30.06-308.36,0,0,2.57-18.28-16.7-18.28H166.27Z"/>
    </clipPath>
    <linearGradient id="linear-gradient" x1="9978.6" y1="-1768.51" x2="10305.13" y2="-1768.51" gradientTransform="translate(-9975.6 1965.28)" gradientUnits="userSpaceOnUse">
      <stop offset="0" stop-color="#fbcdab"/>
      <stop offset="1" stop-color="#fde4d9"/>
    </linearGradient>
    <clipPath id="clippath-1">
      <polygon class="cls-4" points="202.3 23.39 250.42 71.51 250.42 139.57 202.3 187.69 134.24 187.69 86.12 139.57 86.12 71.51 134.24 23.39 202.3 23.39"/>
    </clipPath>
  </defs>
  <g id="Main_JAP_copy" data-name="Main JAP copy">
    <g id="north_big_jap_copy_26" data-name="north big jap copy 26">
      <path id="Shadow" class="cls-2" d="M169.02,0H17.45C-2.49,0,.17,18.5,.17,18.5c0,0-1.6,256.77,31.11,311.99,32.7,55.22,116.99,77.58,137.73,77.58s105.03-22.36,137.73-77.58c32.71-55.22,31.11-311.99,31.11-311.99,0,0,2.66-18.5-17.28-18.5H169.02Z"/>
      <g>
        <g class="cls-3">
          <rect id="Color_gradient" data-name="Color gradient" class="cls-6" x="3" y="-56.19" width="326.53" height="505.92"/>
        </g>
        <path id="Form_big-2" data-name="Form big" class="cls-5" d="M166.27,3.1H19.82C.54,3.1,3.11,21.39,3.11,21.39c0,0-1.54,253.78,30.06,308.36,31.6,54.58,113.05,76.68,133.09,76.68s101.49-22.1,133.09-76.68c31.6-54.58,30.06-308.36,30.06-308.36,0,0,2.57-18.28-16.7-18.28H166.27Z"/>
      </g>
      <g id="Pieces_copy_62" data-name="Pieces copy 62">
        <g id="Roaming_Boar_copy_35" data-name="Roaming Boar copy 35">
          <g id="RB_move_copy_33" data-name="RB move copy 33">
            <g id="Lines">
              <g class="cls-1">
                <g>
                  <rect class="cls-7" x="163.28" y="-10.24" width="9.1" height="231.58" transform="translate(-25.47 149.6) rotate(-45)"/>
                  <rect class="cls-7" x="52.04" y="101" width="231.58" height="9.1" transform="translate(-25.48 149.57) rotate(-45)"/>
                  <rect class="cls-7" x="85.95" y="100.99" width="163.75" height="9.1"/>
                  <rect class="cls-7" x="163.28" y="104.36" width="9.1" height="83.36"/>
                </g>
              </g>
            </g>
            <rect id="Center" class="cls-7" x="148.86" y="86.25" width="37.93" height="37.93"/>
          </g>
          <g>
            <path class="cls-7" d="M266.47,258.22c3.24-3.48,6.6-6.6,9.84-9.48,1.92,2.88,6.24,9,8.88,11.76-11.4,9.12-24.6,25.08-32.28,39.96l-15.84-6.6c.48-.84,1.8-1.44,3.36-1.08,3.24-5.4,7.08-11.04,11.04-16.44l-2.64-.84c.36-.96,1.32-1.92,3.24-2.16v-59.88h14.4v44.76Zm-24.72,61.68c.48-.72,1.44-1.32,3.36-1.08,7.44-9.24,20.28-21.6,31.8-29.64,1.8,3.24,5.64,9,8.04,11.88-10.08,6.36-21.6,17.16-27.48,25.56l-15.72-6.72Zm-70.32-34.92v-13.68h17.52v-41.4c0-14.28,5.4-16.32,30.36-16.32,.6,4.32,2.4,10.44,4.44,14.64-5.04-.12-10.8-.24-14.28-.24-4.8,0-5.88,0-5.88,2.28v41.04h35.76v13.68h-67.92Zm4.8,34.56v-13.68h58.92v13.68h-58.92Z"/>
            <path class="cls-7" d="M72.55,306.22c-2.76,4.2-5.28,8.64-7.44,13.2l-15.12-6c.6-.96,1.92-1.56,3.72-1.32,4.2-7.92,9-15.48,14.4-22.56h-17.64v-12.6h28.32c2.76-3,5.64-5.76,8.64-8.52h-29.76v-54.6h14.16v4.2h23.52v-4.8h13.44v38.88c3.84-2.4,7.8-4.68,11.76-6.72,1.32,2.28,3.96,6,6.36,8.76,.36-19.08,2.4-36.6,14.64-39.48,4.8-1.2,10.2-1.32,16.08-1.08,0,4.68,1.44,9.84,3.84,13.92-3.12-.24-5.76-.36-7.92-.36-6,0-7.56,0-9.36,2.52-2.64,3.36-3.72,15.12-3.84,29.28,5.04-6.24,10.68-12.12,15.84-16.32,2.28,3.48,6.24,8.16,9.6,10.8-8.76,5.4-18.48,15.84-24.36,25.8,.6,3.84,1.44,7.68,2.76,11.4,3.72-3.72,7.68-7.2,11.64-10.2,2.16,2.76,6.84,7.08,9.84,9.36-5.28,3.72-10.56,8.52-15.36,13.8,3.48,5.16,7.92,10.2,13.8,15l-9.96,7.8c-4.92-3.96-9-8.04-12.24-12.24-2.76,3.84-5.16,7.8-7.08,11.52l-14.52-7.08c.48-.72,1.44-1.2,3-1.2,2.88-5.16,6.6-10.44,10.8-15.6-7.32-15.24-7.32-31.2-7.32-44.4-6.12,3.12-12.24,6.72-18,10.8v.24c-.84,0-9.36,7.08-11.04,8.52h26.64v12.6h-22.8v11.76h17.04v12.36h-17.04v12.96l-17.16-.96c.12-1.2,1.08-1.92,3.24-2.28v-9.72h-15.12v-7.44Zm-.72-57.24v8.04h23.52v-8.04h-23.52Zm23.52-19.56h-23.52v8.76h23.52v-8.76Zm-7.68,60.12h-2.52c-3.36,3.72-6.48,7.68-9.36,11.76h11.88v-11.76Z"/>
          </g>
        </g>
      </g>
    </g>
  </g>
</svg>