<?xml version="1.0" encoding="UTF-8"?>
<svg id="Layer_2" data-name="Layer 2" xmlns="http://www.w3.org/2000/svg" xmlns:xlink="http://www.w3.org/1999/xlink" viewBox="0 0 337.98 409.43">
  <defs>
    <style>
      .cls-1 {
        clip-path: url(#clippath-1);
      }

      .cls-2 {
        fill: #2e1b10;
      }

      .cls-3 {
        clip-path: url(#clippath);
      }

      .cls-4, .cls-5 {
        fill: none;
      }

      .cls-6 {
        fill: url(#linear-gradient);
      }

      .cls-6, .cls-5 {
        stroke: #3b2314;
        stroke-miterlimit: 10;
        stroke-width: 6px;
      }
    </style>
    <clipPath id="clippath">
      <path id="Form_big" data-name="Form big" class="cls-5" d="M166.27,3.1H19.82C.54,3.1,3.11,21.39,3.11,21.39c0,0-1.54,253.78,30.06,308.36,31.6,54.58,113.05,76.68,133.09,76.68s101.49-22.1,133.09-76.68c31.6-54.58,30.06-308.36,30.06-308.36,0,0,2.57-18.28-16.7-18.28H166.27Z"/>
    </clipPath>
    <linearGradient id="linear-gradient" x1="9978.6" y1="-1768.51" x2="10305.13" y2="-1768.51" gradientTransform="translate(-9975.6 1965.28)" gradientUnits="userSpaceOnUse">
      <stop offset="0" stop-color="#fbcdab"/>
      <stop offset="1" stop-color="#fde4d9"/>
    </linearGradient>
    <clipPath id="clippath-1">
      <polygon class="cls-4" points="202.3 23.39 250.42 71.51 250.42 139.57 202.3 187.69 134.24 187.69 86.12 139.57 86.12 71.51 134.24 23.39 202.3 23.39"/>
    </clipPath>
  </defs>
  <g id="Main_JAP_copy" data-name="Main JAP copy">
    <g id="north_big_jap_copy_11" data-name="north big jap copy 11">
      <path id="Shadow" class="cls-2" d="M169.02,0H17.45C-2.49,0,.17,18.5,.17,18.5c0,0-1.6,256.77,31.11,311.99,32.7,55.22,116.99,77.58,137.73,77.58s105.03-22.36,137.73-77.58c32.71-55.22,31.11-311.99,31.11-311.99,0,0,2.66-18.5-17.28-18.5H169.02Z"/>
      <g>
        <g class="cls-3">
          <rect id="Color_gradient" data-name="Color gradient" class="cls-6" x="3" y="-56.19" width="326.53" height="505.92"/>
        </g>
        <path id="Form_big-2" data-name="Form big" class="cls-5" d="M166.27,3.1H19.82C.54,3.1,3.11,21.39,3.11,21.39c0,0-1.54,253.78,30.06,308.36,31.6,54.58,113.05,76.68,133.09,76.68s101.49-22.1,133.09-76.68c31.6-54.58,30.06-308.36,30.06-308.36,0,0,2.57-18.28-16.7-18.28H166.27Z"/>
      </g>
      <g id="Pieces_copy_47" data-name="Pieces copy 47">
        <g id="Running_Rabbit_copy_20" data-name="Running Rabbit copy 20">
          <g id="RR_move_copy_18" data-name="RR move copy 18">
            <g id="Arrows_copy_48" data-name="Arrows copy 48">
              <polygon class="cls-2" points="183.52 174.48 168.27 200.9 153.01 174.48 183.52 174.48"/>
            </g>
            <g id="Lines">
              <g class="cls-1">
                <g>
                  <rect class="cls-2" x="163.28" y="-10.24" width="9.1" height="231.58" transform="translate(-25.47 149.6) rotate(-45)"/>
                  <rect class="cls-2" x="52.04" y="101" width="231.58" height="9.1" transform="translate(-25.48 149.57) rotate(-45)"/>
                  <rect class="cls-2" x="163.28" y="23.36" width="9.1" height="164.36"/>
                </g>
              </g>
            </g>
            <rect id="Center" class="cls-2" x="148.86" y="86.25" width="37.93" height="37.93"/>
          </g>
          <g>
            <path class="cls-2" d="M220.87,249.82v-19.56c-7.32-1.32-13.92-1.44-27-1.44-7.56,0-18.12,0-23.04,.12,2.04-3.24,4.32-9.84,5.04-13.92h26.28c24,0,42.96,4.2,55.8,22.2,3.84-9.24,9.12-17.88,16.32-23.88,2.4,2.76,7.8,7.44,10.92,9.36-13.32,10.68-18.72,31.2-20.52,48.12l-17.64-2.64c.24-1.08,1.32-1.8,3-1.92,.72-4.2,1.56-8.76,2.76-13.44-4.08-8.64-10.08-14.28-17.16-17.88v41.04h45.96v13.32h-45.96v11.64h35.04v13.32h-35.04v12.36l-18-1.08c.12-1.08,.96-1.92,3.24-2.16v-9.12h-37.08v-13.32h37.08v-11.64h-46.92v-13.32h46.92v-13.32h-38.64v-12.84h38.64Z"/>
            <path class="cls-2" d="M113.35,253.18c.36-.96,1.44-1.8,3.24-2.04,3.72-16.92,9.24-30.48,40.32-38.28,1.44,3.84,5.16,9.96,8.28,12.96-27.48,5.28-31.44,15-33.48,29.4l-18.36-2.04Zm-21.96-21.72c0-3.96-.96-4.56-6.48-4.56h-15.84c-4.68,0-5.52,1.68-6.12,11.52-2.88-2.16-8.88-4.32-12.84-5.16,1.68-15.24,5.76-19.2,17.52-19.2h18.96c15.48,0,19.08,4.08,19.08,17.28v25.08h47.04v40.56h-37.2v9.96c13.56-.84,27.48-1.56,40.44-1.8,.24,3.6,1.92,9.12,3.12,12.24-31.44,.96-67.68,3.72-89.76,8.04l-9.72-12.36c.48-.24,1.08-.36,1.8-.36,.48,0,1.08,0,1.68,.12,10.68-1.92,23.88-3.48,38.04-4.68v-11.16H61.99v-40.56h28.44l.96-.24v-24.72Zm47.16,52.68v-14.88h-23.04v14.88h23.04Zm-61.56,0h24.12v-14.88h-24.12v14.88Zm1.44-28.8c-5.28-4.56-12.24-10.92-15.6-15.36,3.84-3,7.08-5.52,10.32-8.16,3,4.56,9.72,11.4,15,16.2l-9.72,7.32Z"/>
          </g>
        </g>
      </g>
    </g>
  </g>
</svg>