<?xml version="1.0" encoding="UTF-8"?>
<svg id="Layer_2" data-name="Layer 2" xmlns="http://www.w3.org/2000/svg" xmlns:xlink="http://www.w3.org/1999/xlink" viewBox="0 0 337.98 409.43">
  <defs>
    <style>
      .cls-1 {
        clip-path: url(#clippath-1);
      }

      .cls-2 {
        fill: #2e1b10;
      }

      .cls-3 {
        clip-path: url(#clippath);
      }

      .cls-4, .cls-5 {
        fill: none;
      }

      .cls-6 {
        fill: url(#linear-gradient);
      }

      .cls-6, .cls-5 {
        stroke: #3b2314;
        stroke-miterlimit: 10;
        stroke-width: 6px;
      }
    </style>
    <clipPath id="clippath">
      <path id="Form_big" data-name="Form big" class="cls-5" d="M166.27,3.1H19.82C.54,3.1,3.11,21.39,3.11,21.39c0,0-1.54,253.78,30.06,308.36,31.6,54.58,113.05,76.68,133.09,76.68s101.49-22.1,133.09-76.68c31.6-54.58,30.06-308.36,30.06-308.36,0,0,2.57-18.28-16.7-18.28H166.27Z"/>
    </clipPath>
    <linearGradient id="linear-gradient" x1="9978.6" y1="-1768.51" x2="10305.13" y2="-1768.51" gradientTransform="translate(-9975.6 1965.28)" gradientUnits="userSpaceOnUse">
      <stop offset="0" stop-color="#fbcdab"/>
      <stop offset="1" stop-color="#fde4d9"/>
    </linearGradient>
    <clipPath id="clippath-1">
      <polygon class="cls-4" points="202.3 23.39 250.42 71.51 250.42 139.57 202.3 187.69 134.24 187.69 86.12 139.57 86.12 71.51 134.24 23.39 202.3 23.39"/>
    </clipPath>
  </defs>
  <g id="Main_JAP_copy" data-name="Main JAP copy">
    <g id="north_big_jap_copy_12" data-name="north big jap copy 12">
      <path id="Shadow" class="cls-2" d="M169.02,0H17.45C-2.49,0,.17,18.5,.17,18.5c0,0-1.6,256.77,31.11,311.99,32.7,55.22,116.99,77.58,137.73,77.58s105.03-22.36,137.73-77.58c32.71-55.22,31.11-311.99,31.11-311.99,0,0,2.66-18.5-17.28-18.5H169.02Z"/>
      <g>
        <g class="cls-3">
          <rect id="Color_gradient" data-name="Color gradient" class="cls-6" x="3" y="-56.19" width="326.53" height="505.92"/>
        </g>
        <path id="Form_big-2" data-name="Form big" class="cls-5" d="M166.27,3.1H19.82C.54,3.1,3.11,21.39,3.11,21.39c0,0-1.54,253.78,30.06,308.36,31.6,54.58,113.05,76.68,133.09,76.68s101.49-22.1,133.09-76.68c31.6-54.58,30.06-308.36,30.06-308.36,0,0,2.57-18.28-16.7-18.28H166.27Z"/>
      </g>
      <g id="Pieces_copy_48" data-name="Pieces copy 48">
        <g id="Strutting_Crow_copy_21" data-name="Strutting Crow copy 21">
          <g id="SC_move_copy_19" data-name="SC move copy 19">
            <g id="Lines">
              <g class="cls-1">
                <g>
                  <rect class="cls-2" x="122.22" y="6.76" width="9.1" height="115.43" transform="translate(-8.46 108.53) rotate(-45)"/>
                  <rect class="cls-2" x="151.42" y="59.83" width="115.14" height="9.1" transform="translate(15.68 166.62) rotate(-45)"/>
                  <rect class="cls-2" x="163.28" y="105.54" width="9.1" height="82.18"/>
                </g>
              </g>
            </g>
            <rect id="Center" class="cls-2" x="148.86" y="86.25" width="37.93" height="37.93"/>
          </g>
          <g>
            <path class="cls-2" d="M259.75,241.66c2.64-10.08,6.48-20.76,13.56-27.48l11.52,7.2c-6.36,5.88-10.68,15.12-12.84,24.48l-12.24-4.2Zm-86.88,23.76h80.4v-6.12h-65.76l-3,.24-7.68-.72,.36-4.08c1.68-40.08,3.72-41.4,22.2-41.4,1.8,0,3.72,0,5.76,.12,.12,3.6,1.68,8.76,3.48,12-3.36-.36-6.6-.48-8.76-.48-3.6,0-4.32,.12-5.4,1.32-1.44,1.68-2.4,7.44-3.12,21.24h76.2v67.92h-29.04c-1.32,3.84-2.64,8.28-3.36,11.64l-18.24-2.88c.36-.96,1.2-1.56,3-1.68,1.08-2.16,2.4-4.68,3.72-7.08h-33.6v-32.64h63.24v-5.88h-80.4v-11.52Zm79.8-48c-.36,6.24,.48,15.96,2.28,23.28l-11.4,1.68c-2.04-7.32-3.24-16.8-3.12-23.04l12.24-1.92Zm-48.48,87.12h49.08v-10.8h-49.08v10.8Zm25.68-84.96c.48,5.52,2.88,14.52,5.52,21.24l-10.56,2.52c-3-6.6-5.76-15.24-6.36-20.76l11.4-3Zm-20.76,6.96c1.08,4.32,4.32,11.16,7.32,16.2l-9.96,3.48c-3-4.8-6.48-11.4-7.8-15.72l10.44-3.96Z"/>
            <path class="cls-2" d="M146.47,258.22c3.24-3.48,6.6-6.6,9.84-9.48,1.92,2.88,6.24,9,8.88,11.76-11.4,9.12-24.6,25.08-32.28,39.96l-15.84-6.6c.48-.84,1.8-1.44,3.36-1.08,3.24-5.4,7.08-11.04,11.04-16.44l-2.64-.84c.36-.96,1.32-1.92,3.24-2.16v-59.88h14.4v44.76Zm-24.72,61.68c.48-.72,1.44-1.32,3.36-1.08,7.44-9.24,20.28-21.6,31.8-29.64,1.8,3.24,5.64,9,8.04,11.88-10.08,6.36-21.6,17.16-27.48,25.56l-15.72-6.72Zm-70.32-34.92v-13.68h17.52v-41.4c0-14.28,5.4-16.32,30.36-16.32,.6,4.32,2.4,10.44,4.44,14.64-5.04-.12-10.8-.24-14.28-.24-4.8,0-5.88,0-5.88,2.28v41.04h35.76v13.68H51.43Zm4.8,34.56v-13.68h58.92v13.68H56.23Z"/>
          </g>
        </g>
      </g>
    </g>
  </g>
</svg>