<?xml version="1.0" encoding="UTF-8"?>
<svg id="Layer_2" data-name="Layer 2" xmlns="http://www.w3.org/2000/svg" xmlns:xlink="http://www.w3.org/1999/xlink" width="337" height="409" viewBox="0 0 337.98 409.43">
  <defs>
    <style>
      .cls-1 {
        clip-path: url(#clippath-1);
      }

      .cls-2 {
        fill: #2e1b10;
      }

      .cls-3 {
        clip-path: url(#clippath);
      }

      .cls-4, .cls-5 {
        fill: none;
      }

      .cls-6 {
        fill: url(#linear-gradient);
      }

      .cls-6, .cls-5 {
        stroke: #3b2314;
        stroke-miterlimit: 10;
        stroke-width: 6px;
      }
    </style>
    <clipPath id="clippath">
      <path id="Form_big" data-name="Form big" class="cls-5" d="M166.27,3.1H19.82C.54,3.1,3.11,21.39,3.11,21.39c0,0-1.54,253.78,30.06,308.36,31.6,54.58,113.05,76.68,133.09,76.68s101.49-22.1,133.09-76.68c31.6-54.58,30.06-308.36,30.06-308.36,0,0,2.57-18.28-16.7-18.28H166.27Z"/>
    </clipPath>
    <linearGradient id="linear-gradient" x1="9978.6" y1="-1768.51" x2="10305.13" y2="-1768.51" gradientTransform="translate(-9975.6 1965.28)" gradientUnits="userSpaceOnUse">
      <stop offset="0" stop-color="#fbcdab"/>
      <stop offset="1" stop-color="#fde4d9"/>
    </linearGradient>
    <clipPath id="clippath-1">
      <polygon class="cls-4" points="202.3 23.39 250.42 71.51 250.42 139.57 202.3 187.69 134.24 187.69 86.12 139.57 86.12 71.51 134.24 23.39 202.3 23.39"/>
    </clipPath>
  </defs>
  <g id="Main_JAP_copy" data-name="Main JAP copy">
    <g id="north_big_jap_copy_13" data-name="north big jap copy 13">
      <path id="Shadow" class="cls-2" d="M169.02,0H17.45C-2.49,0,.17,18.5,.17,18.5c0,0-1.6,256.77,31.11,311.99,32.7,55.22,116.99,77.58,137.73,77.58s105.03-22.36,137.73-77.58c32.71-55.22,31.11-311.99,31.11-311.99,0,0,2.66-18.5-17.28-18.5H169.02Z"/>
      <g>
        <g class="cls-3">
          <rect id="Color_gradient" data-name="Color gradient" class="cls-6" x="3" y="-56.19" width="326.53" height="505.92"/>
        </g>
        <path id="Form_big-2" data-name="Form big" class="cls-5" d="M166.27,3.1H19.82C.54,3.1,3.11,21.39,3.11,21.39c0,0-1.54,253.78,30.06,308.36,31.6,54.58,113.05,76.68,133.09,76.68s101.49-22.1,133.09-76.68c31.6-54.58,30.06-308.36,30.06-308.36,0,0,2.57-18.28-16.7-18.28H166.27Z"/>
      </g>
      <g id="Pieces_copy_49" data-name="Pieces copy 49">
        <g id="Swooping_Owl_copy_22" data-name="Swooping Owl copy 22">
          <g id="SO_move_copy_20" data-name="SO move copy 20">
            <g id="Lines">
              <g class="cls-1">
                <g>
                  <rect class="cls-2" x="122.22" y="6.76" width="9.1" height="115.43" transform="translate(-8.46 108.53) rotate(-45)"/>
                  <rect class="cls-2" x="151.42" y="59.83" width="115.14" height="9.1" transform="translate(15.68 166.62) rotate(-45)"/>
                  <rect class="cls-2" x="163.28" y="105.54" width="9.1" height="82.18"/>
                </g>
              </g>
            </g>
            <rect id="Center" class="cls-2" x="148.86" y="86.25" width="37.93" height="37.93"/>
          </g>
          <g>
            <path class="cls-2" d="M171.19,263.38h42.36v-4.8h-31.8l-2.52,.12-6.24-.6c0-.84,.12-2.16,.24-3.36,1.08-24.6,2.28-33.96,5.04-37.32,2.28-3,4.68-4.44,18.48-4.08,.12,3.12,1.32,7.32,2.76,9.96-3.6-.36-6.72-.36-8.28-.36-4.2,0-4.68,3-5.28,10.2l5.64-2.04c.84,3.48,3.12,8.76,5.16,12.72l-6.48,2.28c-1.8-3-3.48-6.72-4.68-9.84-.24,3.24-.48,7.2-.72,12h40.8l.72-3.6-7.8-2.04c1.2-9.72,3.12-20.04,8.16-26.52l9.72,5.4c-2.76,3.48-4.68,8.4-6,13.8,1.92-1.92,4.32-2.52,7.44-2.52,10.44,0,14.76,19.68,16.44,45.36h10.92v-26.88l-12.24,2.76-1.32-11.04c9.6-2.88,19.44-5.76,25.92-7.56,.12-1.08,.96-1.8,1.8-2.16l5.4,13.92c-2.16,.36-4.56,.96-7.2,1.44v69.48l-7.2-2.4c-10.92,2.88-22.2,6.72-29.04,10.56l-12-9.72c.6-.6,1.32-.6,3.12-.6,2.16-.96,4.68-2.04,7.44-3h-.48c0-1.08,1.08-1.8,3.12-2.16,.12-6.72,.12-13.56-.12-20.28h-12.84v-12.36h12.48c-.84-18.12-2.76-32.52-5.52-32.52-1.2,0-2.16,3.96-2.4,11.64-2.04-2.52-5.28-5.28-8.04-6.72v65.04h-15c-1.08,3.72-2.04,7.92-2.52,11.16l-16.8-3.12c.24-1.08,1.32-1.56,3-1.56,.72-1.92,1.56-4.2,2.52-6.48h-18.6v-37.8h34.8v-4.44h-42.36v-9.96Zm107.75-45.36v12.36h-37.2v-12.36h37.2Zm-13.68,72.48h-10.32c.24,5.76,.36,11.76,.48,17.76,3.24-.84,6.6-1.56,9.84-2.28v-15.48Zm-49.44-69.36c-.24,5.28,.36,13.32,1.56,19.56l-7.92,1.2c-1.2-6.12-2.04-14.16-1.92-19.44l8.28-1.32Zm-24.48,84.72h22.2v-4.92h-22.2v4.92Zm22.2-18.36h-22.2v4.92h22.2v-4.92Zm-10.68-61.68c.36,4.32,1.92,10.92,3.72,15.96l-7.08,1.68c-1.92-4.92-3.6-11.4-4.2-15.6l7.56-2.04Z"/>
            <path class="cls-2" d="M146.47,258.22c3.24-3.48,6.6-6.6,9.84-9.48,1.92,2.88,6.24,9,8.88,11.76-11.4,9.12-24.6,25.08-32.28,39.96l-15.84-6.6c.48-.84,1.8-1.44,3.36-1.08,3.24-5.4,7.08-11.04,11.04-16.44l-2.64-.84c.36-.96,1.32-1.92,3.24-2.16v-59.88h14.4v44.76Zm-24.72,61.68c.48-.72,1.44-1.32,3.36-1.08,7.44-9.24,20.28-21.6,31.8-29.64,1.8,3.24,5.64,9,8.04,11.88-10.08,6.36-21.6,17.16-27.48,25.56l-15.72-6.72Zm-70.32-34.92v-13.68h17.52v-41.4c0-14.28,5.4-16.32,30.36-16.32,.6,4.32,2.4,10.44,4.44,14.64-5.04-.12-10.8-.24-14.28-.24-4.8,0-5.88,0-5.88,2.28v41.04h35.76v13.68H51.43Zm4.8,34.56v-13.68h58.92v13.68H56.23Z"/>
          </g>
        </g>
      </g>
    </g>
  </g>
</svg>