<?xml version="1.0" encoding="UTF-8"?>
<svg id="Layer_2" data-name="Layer 2" xmlns="http://www.w3.org/2000/svg" xmlns:xlink="http://www.w3.org/1999/xlink" viewBox="0 0 329.86 375.5">
  <defs>
    <style>
      .cls-1 {
        fill: #2e1b10;
      }

      .cls-2 {
        clip-path: url(#clippath);
      }

      .cls-3 {
        fill: url(#linear-gradient);
      }

      .cls-3, .cls-4 {
        stroke: #3b2314;
        stroke-miterlimit: 10;
        stroke-width: 6px;
      }

      .cls-4 {
        fill: none;
      }
    </style>
    <clipPath id="clippath">
      <path id="Form_small" data-name="Form small" class="cls-4" d="M161.86,3H19.36C.61,3,3.11,19.75,3.11,19.75c0,0-1.5,232.5,29.25,282.5s110,70.25,129.5,70.25,98.75-20.25,129.5-70.25S320.61,19.75,320.61,19.75c0,0,2.5-16.75-16.25-16.75H161.86Z"/>
    </clipPath>
    <linearGradient id="linear-gradient" x1="13670.55" y1="-1746.04" x2="13988.27" y2="-1746.04" gradientTransform="translate(-13667.55 1940.29)" gradientUnits="userSpaceOnUse">
      <stop offset="0" stop-color="#fbcdab"/>
      <stop offset="1" stop-color="#fde4d9"/>
    </linearGradient>
  </defs>
  <g id="Main_JAP_copy" data-name="Main JAP copy">
    <g id="north_smal_jap_copy" data-name="north smal jap copy">
      <path id="Shadow" class="cls-1" d="M165.86,0H18.75C-.61,0,1.97,16.89,1.97,16.89c0,0-1.55,234.39,30.2,284.79,31.74,50.41,113.56,70.82,133.69,70.82s101.95-20.41,133.69-70.82c31.75-50.41,30.2-284.79,30.2-284.79,0,0,2.58-16.89-16.78-16.89H165.86Z"/>
      <g>
        <g class="cls-2">
          <rect id="Color_gradient" data-name="Color gradient" class="cls-3" x="3" y="-55.25" width="317.72" height="499"/>
        </g>
        <path id="Form_small-2" data-name="Form small" class="cls-4" d="M161.86,3H19.36C.61,3,3.11,19.75,3.11,19.75c0,0-1.5,232.5,29.25,282.5s110,70.25,129.5,70.25,98.75-20.25,129.5-70.25S320.61,19.75,320.61,19.75c0,0,2.5-16.75-16.25-16.75H161.86Z"/>
      </g>
      <g id="Orientation_copy_7" data-name="Orientation copy 7">
        <rect class="cls-1" x="146.5" y="45.23" width="37.93" height="37.93"/>
        <rect class="cls-1" x="160.46" y="83.16" width="10" height="80.13"/>
      </g>
      <g>
        <path class="cls-1" d="M194.5,267.91h14.04v6.6h27.36v-6.6h6.72l-5.88-1.92c.6-1.2,1.92-1.56,3.36-1.44,1.2-2.52,2.4-5.16,3.72-7.68h-20.16c-2.16,4.32-4.2,9.36-5.4,13.2l-17.64-4.32c.48-1.08,1.56-1.44,3.24-1.56,1.32-2.16,2.88-4.8,4.56-7.32h-34.56v-12h36.36v-6.96h-30.6v-11.4h30.6v-7.08h-30.6v-11.4h30.6v-7.56h-41.16v-12.12h77.28v-5.52h14.16v49.56c2.88-3.24,5.76-6.24,8.76-8.76,2.04,2.88,6.6,8.16,9.48,10.68-10.32,8.16-20.28,22.56-25.8,36.96l-2.88-.96v4.2h25.32v12.84h-25.32v8.52l-17.16-.84c.12-1.2,.96-1.92,3-2.28v-5.4h-27.36v8.52l-17.28-.84c.12-1.2,.96-1.92,3.24-2.28v-5.4h-26.4v-12.84h26.4v-6.6Zm30.12-30v6.96h21.72v-6.96h-21.72Zm0-18.48v7.08h21.72v-7.08h-21.72Zm0-18.96v7.56h21.72v-7.56h-21.72Z"/>
        <path class="cls-1" d="M94.3,224.23c0-12.72,5.76-14.16,26.16-14.16,.6,3.96,2.52,9.36,4.32,12.96-5.4-.24-12-.24-13.68-.24-1.8,.12-2.4,.48-2.4,1.8v22.08h47.4v13.56h-16.32v27.48l-17.88-.96c.12-1.2,.96-1.92,3.24-2.28v-24.24h-16.32v35.64l-18-.96c.12-1.2,.96-1.92,3.24-2.28v-8.16H59.14v-12.96h34.92v-11.28H47.39v-13.56h44.04c.36-.72,1.32-1.32,2.88-1.56v-20.88Zm22.92,15.12c.48-.84,1.68-1.44,3.24-1.2,5.88-9,15-19.2,23.52-25.8,2.88,2.64,8.52,6.48,12,8.64-8.4,5.64-17.04,15.48-22.08,24.24l-16.68-5.88Zm-46.8,6.36c-8.64-7.32-19.2-18-23.88-25.68l12.72-8.28c1.56,2.88,4.08,6.36,7.08,9.96,12.6-25.8,35.16-35.28,73.56-39.96,1.2,4.56,4.08,10.44,6.96,14.04-34.68,2.52-56.4,9.72-66.36,32.4l-10.92-2.52c3.96,4.44,8.52,9,12.6,12.72l-11.76,7.32Z"/>
      </g>
    </g>
  </g>
</svg>