<?xml version="1.0" encoding="UTF-8"?>
<svg id="Layer_2" data-name="Layer 2" xmlns="http://www.w3.org/2000/svg" xmlns:xlink="http://www.w3.org/1999/xlink" width="337" height="409" viewBox="0 0 337.98 409.43">
  <defs>
    <style>
      .cls-1 {
        clip-path: url(#clippath-1);
      }

      .cls-2 {
        fill: #2e1b10;
      }

      .cls-3 {
        clip-path: url(#clippath);
      }

      .cls-4, .cls-5 {
        fill: none;
      }

      .cls-6 {
        fill: url(#linear-gradient);
      }

      .cls-6, .cls-5 {
        stroke: #3b2314;
        stroke-miterlimit: 10;
        stroke-width: 6px;
      }
    </style>
    <clipPath id="clippath">
      <path id="Form_big" data-name="Form big" class="cls-5" d="M166.27,3.1H19.82C.54,3.1,3.11,21.39,3.11,21.39c0,0-1.54,253.78,30.06,308.36,31.6,54.58,113.05,76.68,133.09,76.68s101.49-22.1,133.09-76.68c31.6-54.58,30.06-308.36,30.06-308.36,0,0,2.57-18.28-16.7-18.28H166.27Z"/>
    </clipPath>
    <linearGradient id="linear-gradient" x1="9978.6" y1="-1768.51" x2="10305.13" y2="-1768.51" gradientTransform="translate(-9975.6 1965.28)" gradientUnits="userSpaceOnUse">
      <stop offset="0" stop-color="#fbcdab"/>
      <stop offset="1" stop-color="#fde4d9"/>
    </linearGradient>
    <clipPath id="clippath-1">
      <polygon class="cls-4" points="202.3 23.39 250.42 71.51 250.42 139.57 202.3 187.69 134.24 187.69 86.12 139.57 86.12 71.51 134.24 23.39 202.3 23.39"/>
    </clipPath>
  </defs>
  <g id="Main_JAP_copy" data-name="Main JAP copy">
    <g id="north_big_jap_copy_14" data-name="north big jap copy 14">
      <path id="Shadow" class="cls-2" d="M169.02,0H17.45C-2.49,0,.17,18.5,.17,18.5c0,0-1.6,256.77,31.11,311.99,32.7,55.22,116.99,77.58,137.73,77.58s105.03-22.36,137.73-77.58c32.71-55.22,31.11-311.99,31.11-311.99,0,0,2.66-18.5-17.28-18.5H169.02Z"/>
      <g>
        <g class="cls-3">
          <rect id="Color_gradient" data-name="Color gradient" class="cls-6" x="3" y="-56.19" width="326.53" height="505.92"/>
        </g>
        <path id="Form_big-2" data-name="Form big" class="cls-5" d="M166.27,3.1H19.82C.54,3.1,3.11,21.39,3.11,21.39c0,0-1.54,253.78,30.06,308.36,31.6,54.58,113.05,76.68,133.09,76.68s101.49-22.1,133.09-76.68c31.6-54.58,30.06-308.36,30.06-308.36,0,0,2.57-18.28-16.7-18.28H166.27Z"/>
      </g>
      <g id="Pieces_copy_50" data-name="Pieces copy 50">
        <g id="Swallow_s_Wings_copy_23" data-name="Swallow&amp;apos;s Wings copy 23">
          <g id="SW_move_copy_21" data-name="SW move copy 21">
            <g id="Arrows_copy_51" data-name="Arrows copy 51">
              <polygon class="cls-2" points="237.09 89.52 263.51 104.77 237.09 120.03 237.09 89.52"/>
              <polygon class="cls-2" points="98.79 121.01 72.37 105.75 98.79 90.5 98.79 121.01"/>
            </g>
            <g id="Lines">
              <g class="cls-1">
                <g>
                  <rect class="cls-2" x="85.95" y="100.99" width="163.75" height="9.1"/>
                  <rect class="cls-2" x="163.28" y="23.36" width="9.1" height="164.36"/>
                </g>
              </g>
            </g>
            <rect id="Center" class="cls-2" x="148.86" y="86.25" width="37.93" height="37.93"/>
          </g>
          <g>
            <path class="cls-2" d="M206.23,288.94h43.8v5.88c.48-.36,1.2-.6,2.16-.72v-49.44h12.84v9.96c4.32-1.68,8.4-3.36,11.4-4.44,.12-1.08,.72-1.92,1.56-2.16l5.76,13.44c-5.04,1.2-11.64,2.88-18.72,4.8v10.56h15.84v12.12h-15.84v8.04l-15-.84v10.44h31.32v11.76h-31.32v8.4l-15.48-.84c.12-1.08,.96-1.8,3-2.16v-5.4h-18.36v8.4l-16.08-.84c.12-1.08,1.08-1.8,3.12-2.16v-5.4h-32.04v-11.76h32.04v-17.64Zm49.56-50.16c2.76-9.24,7.68-19.08,13.56-25.44l13.8,5.64c-5.4,5.04-10.68,14.4-13.32,23.16l-14.04-3.36Zm-9.96-24c0,5.88,.96,15.72,2.28,23.16l-13.32,1.56c-1.56-7.32-3-16.92-3.12-22.68l14.16-2.04Zm-36.36,34.08h36v34.08h-36v-34.08Zm9.72,57.72h18.36v-7.2h-18.36v7.2Zm14.64-34.08v-13.2h-12v13.2h12Zm-15.96-57.84c.72,5.88,3.48,15.6,6.24,23.04l-13.56,2.28c-3-7.08-6-16.56-7.08-22.56l14.4-2.76Zm-33.24,42.36c-1.92,0-2.28,1.56-2.64,10.92-2.4-2.04-7.56-3.96-11.04-4.8,1.2-13.44,4.32-17.4,12.24-17.4h8.4c10.32,0,12.6,3.6,12.6,15v36.24l-15.96-.96c.12-1.08,.96-1.8,3-2.16v-10.68c-3.84,2.4-7.44,5.04-10.2,7.32l-9.24-10.56c.36-.36,1.44-.72,2.64-.48,4.32-2.64,10.68-5.76,16.8-8.28v-10.32c0-3.48-.24-3.84-2.04-3.84h-4.56Zm1.08-43.56c2.64,6.48,9,17.16,14.4,24.84l-13.8,4.44c-5.52-7.44-12.24-17.64-15.36-24.36l14.76-4.92Z"/>
            <path class="cls-2" d="M164.59,247.78c-8.4,3.72-21,10.32-33,16.56l-3.84-12c9.84-6,20.52-12.12,27.72-16.08,0-1.08,.6-2.04,1.44-2.52l7.68,14.04Zm-51.48,72.36v-89.88c0-14.52,5.28-16.56,28.56-16.56,.6,3.84,2.64,10.44,4.56,14.16-3.48-.24-7.32-.36-10.44-.36-7.92,0-8.4,0-8.4,2.88v75.96h33.96v13.8h-48.24Zm36.48-21.72c-6.48-5.76-12.96-13.8-15.84-19.68l12-7.8c2.52,6,8.88,14.76,15.12,20.76l-11.28,6.72Zm-38.88-47.88c-8.52,3.84-21.84,10.56-34.32,17.04l-3.72-11.88c10.32-6.36,21.36-12.96,28.8-17.04-.12-1.08,.48-2.04,1.44-2.52l7.8,14.4Zm-15,48.96c-6.84-5.88-13.8-14.04-16.92-20.04l11.76-8.16c2.88,6,9.84,15,16.32,21.12l-11.16,7.08Zm-38.4,20.64v-89.16c0-15.72,6.84-17.28,31.68-17.28,.6,3.96,3,10.8,5.04,14.64-4.92-.36-10.44-.36-14.4-.36-6.84,0-7.56,0-7.56,3.12v75.24h34.68v13.8H57.31Z"/>
          </g>
        </g>
      </g>
    </g>
  </g>
</svg>