<?xml version="1.0" encoding="UTF-8"?>
<svg id="Layer_2" data-name="Layer 2" xmlns="http://www.w3.org/2000/svg" xmlns:xlink="http://www.w3.org/1999/xlink" width="337" height="409" viewBox="0 0 337.98 409.43">
  <defs>
    <style>
      .cls-1 {
        clip-path: url(#clippath-1);
      }

      .cls-2 {
        fill: #2e1b10;
      }

      .cls-3 {
        clip-path: url(#clippath);
      }

      .cls-4, .cls-5 {
        fill: none;
      }

      .cls-6 {
        fill: url(#linear-gradient);
      }

      .cls-6, .cls-7, .cls-5 {
        stroke-miterlimit: 10;
      }

      .cls-6, .cls-5 {
        stroke: #3b2314;
        stroke-width: 6px;
      }

      .cls-7 {
        fill: #00aeb7;
        stroke: #007a72;
        stroke-width: 4px;
      }
    </style>
    <clipPath id="clippath">
      <path id="Form_big" data-name="Form big" class="cls-5" d="M166.27,3.1H19.82C.54,3.1,3.11,21.39,3.11,21.39c0,0-1.54,253.78,30.06,308.36,31.6,54.58,113.05,76.68,133.09,76.68s101.49-22.1,133.09-76.68c31.6-54.58,30.06-308.36,30.06-308.36,0,0,2.57-18.28-16.7-18.28H166.27Z"/>
    </clipPath>
    <linearGradient id="linear-gradient" x1="9978.6" y1="-1768.51" x2="10305.13" y2="-1768.51" gradientTransform="translate(-9975.6 1965.28)" gradientUnits="userSpaceOnUse">
      <stop offset="0" stop-color="#fbcdab"/>
      <stop offset="1" stop-color="#fde4d9"/>
    </linearGradient>
    <clipPath id="clippath-1">
      <polygon class="cls-4" points="202.3 23.39 250.42 71.51 250.42 139.57 202.3 187.69 134.24 187.69 86.12 139.57 86.12 71.51 134.24 23.39 202.3 23.39"/>
    </clipPath>
  </defs>
  <g id="Main_JAP_copy" data-name="Main JAP copy">
    <g id="north_big_jap_copy_29" data-name="north big jap copy 29">
      <path id="Shadow" class="cls-2" d="M169.02,0H17.45C-2.49,0,.17,18.5,.17,18.5c0,0-1.6,256.77,31.11,311.99,32.7,55.22,116.99,77.58,137.73,77.58s105.03-22.36,137.73-77.58c32.71-55.22,31.11-311.99,31.11-311.99,0,0,2.66-18.5-17.28-18.5H169.02Z"/>
      <g>
        <g class="cls-3">
          <rect id="Color_gradient" data-name="Color gradient" class="cls-6" x="3" y="-56.19" width="326.53" height="505.92"/>
        </g>
        <path id="Form_big-2" data-name="Form big" class="cls-5" d="M166.27,3.1H19.82C.54,3.1,3.11,21.39,3.11,21.39c0,0-1.54,253.78,30.06,308.36,31.6,54.58,113.05,76.68,133.09,76.68s101.49-22.1,133.09-76.68c31.6-54.58,30.06-308.36,30.06-308.36,0,0,2.57-18.28-16.7-18.28H166.27Z"/>
      </g>
      <g id="Pieces_copy_65" data-name="Pieces copy 65">
        <g id="Violent_Stag_BLUE_copy_36" data-name="Violent Stag BLUE copy 36">
          <g id="VSP_move_copy_36" data-name="VSP move copy 36">
            <g id="Lines">
              <g class="cls-1">
                <g>
                  <rect class="cls-7" x="163.28" y="-10.24" width="9.1" height="231.58" transform="translate(-25.47 149.6) rotate(-45)"/>
                  <rect class="cls-7" x="52.04" y="101" width="231.58" height="9.1" transform="translate(-25.48 149.57) rotate(-45)"/>
                  <rect class="cls-7" x="163.28" y="103.66" width="9.1" height="84.06"/>
                </g>
              </g>
            </g>
            <rect id="Center" class="cls-7" x="148.86" y="86.25" width="37.93" height="37.93"/>
          </g>
          <g>
            <path class="cls-7" d="M274.27,326.14c-4.2-3.84-7.68-7.68-10.56-11.52-2.4,3.6-4.56,7.32-6.36,10.92l-14.4-6.96c.6-.96,1.68-1.32,3-1.2,2.76-5.04,6.36-10.44,10.44-15.6-5.64-12.84-6.6-26.52-6.6-40.92,0-21,.84-43.68,13.8-46.32,4.32-1.08,9.12-1.2,14.16-.96,0,4.56,1.08,9.72,3.48,13.8-2.76-.24-5.16-.24-7.08-.24-4.2,0-6,.12-7.56,2.16-2.28,3-3.24,14.88-3.36,28.32,4.32-5.64,9-10.8,13.44-14.64,2.16,3.48,6.12,8.16,9.36,10.8-7.92,5.28-16.68,15.12-21.96,24.48,.48,4.08,1.32,8.04,2.4,11.88,3.12-3.12,6.36-6.12,9.6-8.76,2.28,2.88,6.72,7.08,9.72,9.36-4.68,3.48-9.36,8.04-13.68,12.96,3,5.04,6.96,10.08,12.12,14.88l-9.96,7.56Zm-95.64-97.32h-7.32v-12.12h78v12.12h-7.32v31.08h-63.36v-31.08Zm38.16,76.32l-4.56-.24c-2.64,1.56-5.16,3.48-7.44,5.52h33.72v12.12h-46.68l-2.28,.6c-.24-.24-.48-.36-9.96-5.52,.36-.84,1.44-1.44,2.4-1.8,4.8-5.28,12.36-11.76,20.64-16.56v-3h-30v-12.12h30v-8.4c0-11.16,5.52-13.32,24.24-13.32,1.08,3.72,3.84,8.88,5.88,12.12-5.4-.24-11.76-.24-13.56-.24-1.8,.12-2.4,.36-2.4,1.8v8.04h29.76v12.12h-29.76v8.88Zm13.2-56.64v-19.68h-6v19.68h6Zm-22.44,0h6.24v-19.68h-6.24v19.68Zm-16.32,0h6.24v-19.68h-6.24v19.68Z"/>
            <path class="cls-7" d="M57.79,261.1h84.12c1.2-16.56,4.44-35.04,12-48.12,2.4,2.4,8.52,6.48,11.64,7.92-9.96,17.28-10.68,42.48-10.68,60.36v35.16h-43.32v10.2l-18.24-.96c.12-1.2,.96-1.92,3.24-2.4v-6.84H52.75v-12.6h88.44v-9.96h-14.28v9.36l-16.44-.96c.12-1.08,.96-1.8,3.12-2.16v-6.24h-14.28v9.36l-16.68-.96c.12-1.2,.96-1.8,3.12-2.16v-6.24h-27.96v-32.76Zm62.88-21.24v-10.32c-6.6,.48-13.68,1.08-20.52,1.68v-11.4c13.92-1.68,28.56-3.36,38.04-4.2,.24-1.08,1.08-1.68,2.04-1.92l5.28,14.16c-3.24,.12-7.08,.36-11.16,.72v31.56l-16.8-.96c.12-1.2,1.08-1.8,3.12-2.28v-5.64h-19.8v-11.4h19.8Zm6.24,42.72h14.28c0-4.56,0-7.2,.12-10.32h-14.4v10.32Zm-27.6,0h14.28v-10.32h-14.28v10.32Zm-17.16-52.2c0-3.72-.6-4.2-4.08-4.2h-10.2c-3,0-3.6,1.68-4.08,10.92-2.64-2.04-8.28-4.2-11.88-4.92,1.32-14.04,4.92-17.88,14.52-17.88h13.92c12.72,0,15.6,3.96,15.6,15.96v29.76l-16.92-.96c.12-1.2,1.08-1.8,3.12-2.28v-8.52c-6.24,2.28-12.24,5.04-16.2,7.8l-11.04-9.72c.48-.6,.96-.6,2.76-.6,6.24-3.24,15.6-6.48,24.48-8.88v-6.48Zm-10.56,52.2h14.16v-10.32h-14.16v10.32Z"/>
          </g>
        </g>
      </g>
    </g>
  </g>
</svg>