<?xml version="1.0" encoding="UTF-8"?>
<svg id="Layer_2" data-name="Layer 2" xmlns="http://www.w3.org/2000/svg" xmlns:xlink="http://www.w3.org/1999/xlink" viewBox="0 0 340.48 409.43">
  <defs>
    <style>
      .cls-1 {
        clip-path: url(#clippath-1);
      }

      .cls-2 {
        fill: #2e1b10;
      }

      .cls-3 {
        clip-path: url(#clippath);
      }

      .cls-4, .cls-5 {
        fill: none;
      }

      .cls-6 {
        fill: url(#linear-gradient);
      }

      .cls-6, .cls-5 {
        stroke: #3b2314;
        stroke-miterlimit: 10;
        stroke-width: 6px;
      }
    </style>
    <clipPath id="clippath">
      <path id="Form_big" data-name="Form big" class="cls-5" d="M166.27,406.32h146.45c19.27,0,16.7-18.28,16.7-18.28,0,0,1.54-253.78-30.06-308.36C267.76,25.1,186.31,3,166.27,3S64.78,25.1,33.18,79.68C1.57,134.26,3.11,388.04,3.11,388.04c0,0-2.57,18.28,16.7,18.28H166.27Z"/>
    </clipPath>
    <linearGradient id="linear-gradient" x1="8039.65" y1="-2280.45" x2="8366.18" y2="-2280.45" gradientTransform="translate(-8036.65 2493.1)" gradientUnits="userSpaceOnUse">
      <stop offset="0" stop-color="#fbcdab"/>
      <stop offset="1" stop-color="#fde4d9"/>
    </linearGradient>
    <clipPath id="clippath-1">
      <polygon class="cls-4" points="130.24 386.03 82.12 337.91 82.12 269.86 130.24 221.74 198.3 221.74 246.42 269.86 246.42 337.91 198.3 386.03 130.24 386.03"/>
    </clipPath>
  </defs>
  <g id="Main_JAP_copy" data-name="Main JAP copy">
    <g id="north_big_jap_copy_60" data-name="north big jap copy 60">
      <path id="Shadow" class="cls-2" d="M171.52,409.43h151.56c19.94,0,17.28-18.5,17.28-18.5,0,0,1.6-256.77-31.11-311.99C276.55,23.73,192.26,1.36,171.52,1.36S66.49,23.73,33.78,78.94C1.08,134.16,2.67,390.93,2.67,390.93c0,0-2.66,18.5,17.28,18.5H171.52Z"/>
      <g>
        <g class="cls-3">
          <rect id="Color_gradient" data-name="Color gradient" class="cls-6" x="3" y="-40.31" width="326.53" height="505.92"/>
        </g>
        <path id="Form_big-2" data-name="Form big" class="cls-5" d="M166.27,406.32h146.45c19.27,0,16.7-18.28,16.7-18.28,0,0,1.54-253.78-30.06-308.36C267.76,25.1,186.31,3,166.27,3S64.78,25.1,33.18,79.68C1.57,134.26,3.11,388.04,3.11,388.04c0,0-2.57,18.28,16.7,18.28H166.27Z"/>
      </g>
      <g id="Pieces_copy_96" data-name="Pieces copy 96">
        <g id="Blind_Dog_copy_9" data-name="Blind Dog copy 9">
          <g id="BD_move_copy_9" data-name="BD move copy 9">
            <g id="Lines">
              <g class="cls-1">
                <g>
                  <rect class="cls-2" x="120.61" y="204.48" width="9.1" height="119.71" transform="translate(-150.25 165.9) rotate(-45)"/>
                  <rect class="cls-2" x="144.24" y="259.85" width="119.9" height="9.1" transform="translate(-127.15 221.8) rotate(-45)"/>
                  <rect class="cls-2" x="82.84" y="299.34" width="163.75" height="9.1"/>
                  <rect class="cls-2" x="160.16" y="303.89" width="9.1" height="82.18"/>
                </g>
              </g>
            </g>
            <rect class="cls-2" x="145.74" y="285.25" width="37.93" height="37.93"/>
          </g>
          <g>
            <path class="cls-2" d="M159.9,106.33H77.23v6.12c0,3.72,1.32,5.16,8.4,5.16h42.48c6.96,0,18.12-.36,22.68-1.2,.6,3.96,1.08,8.76,1.56,11.76-3.72,.84-14.16,1.08-22.44,1.08h-43.56c-17.52,0-23.04-4.32-23.04-16.92v-6h-13.56v-11.04h47.76v-12.6l17.28,.84c-.12,1.2-.96,1.92-3.24,2.28v9.48h48.36v11.04Zm-92.4,89.64v-60.12h75.84v59.64h-14.64v-3.36h-47.28v3.84h-13.92Zm61.2-49.8h-47.28v5.52h47.28v-5.52Zm-47.28,20.52h47.28v-5.64h-47.28v5.64Zm0,15.12h47.28v-5.76h-47.28v5.76Z"/>
            <path class="cls-2" d="M279.18,131.65h-44.28c7.68,24.36,22.08,42.36,47.64,50.16-3.48,3.24-8.28,9.96-10.44,14.28-24-8.88-38.04-25.44-46.92-48.72-6.6,19.8-19.68,37.08-46.92,48.36-2.04-4.2-6.48-9.84-10.44-13.08,29.4-11.16,40.8-29.52,45.36-51h-42.96v-14.88h45c.96-11.04,.84-22.44,.96-33.96l19.08,1.2c-.24,1.32-1.32,2.16-3.36,2.52-.24,9.96-.36,20.16-1.08,30.24h48.36v14.88Zm-28.56-47.16c8.16,5.16,18.48,12.96,23.4,18.84l-10.92,9.96c-4.44-5.88-14.4-14.28-22.68-19.92l10.2-8.88Z"/>
          </g>
        </g>
      </g>
    </g>
  </g>
</svg>