<?xml version="1.0" encoding="UTF-8"?>
<svg id="Layer_2" data-name="Layer 2" xmlns="http://www.w3.org/2000/svg" xmlns:xlink="http://www.w3.org/1999/xlink" viewBox="0 0 340.48 409.43">
  <defs>
    <style>
      .cls-1 {
        clip-path: url(#clippath-1);
      }

      .cls-2 {
        fill: #2e1b10;
      }

      .cls-3 {
        clip-path: url(#clippath);
      }

      .cls-4, .cls-5 {
        fill: none;
      }

      .cls-6 {
        fill: url(#linear-gradient);
      }

      .cls-6, .cls-7, .cls-5 {
        stroke-miterlimit: 10;
      }

      .cls-6, .cls-5 {
        stroke: #3b2314;
        stroke-width: 6px;
      }

      .cls-7 {
        fill: #00aeb7;
        stroke: #007a72;
        stroke-width: 4px;
      }
    </style>
    <clipPath id="clippath">
      <path id="Form_big" data-name="Form big" class="cls-5" d="M166.27,406.32h146.45c19.27,0,16.7-18.28,16.7-18.28,0,0,1.54-253.78-30.06-308.36C267.76,25.1,186.31,3,166.27,3S64.78,25.1,33.18,79.68C1.57,134.26,3.11,388.04,3.11,388.04c0,0-2.57,18.28,16.7,18.28H166.27Z"/>
    </clipPath>
    <linearGradient id="linear-gradient" x1="15998.66" y1="-2280.45" x2="16325.2" y2="-2280.45" gradientTransform="translate(-15995.66 2493.1)" gradientUnits="userSpaceOnUse">
      <stop offset="0" stop-color="#fbcdab"/>
      <stop offset="1" stop-color="#fde4d9"/>
    </linearGradient>
    <clipPath id="clippath-1">
      <polygon class="cls-4" points="130.24 386.03 82.12 337.91 82.12 269.86 130.24 221.74 198.3 221.74 246.42 269.86 246.42 337.91 198.3 386.03 130.24 386.03"/>
    </clipPath>
  </defs>
  <g id="Main_JAP_copy" data-name="Main JAP copy">
    <g id="north_big_jap_copy_44" data-name="north big jap copy 44">
      <path id="Shadow" class="cls-2" d="M171.52,409.43h151.56c19.94,0,17.28-18.5,17.28-18.5,0,0,1.6-256.77-31.11-311.99C276.55,23.73,192.26,1.36,171.52,1.36S66.49,23.73,33.78,78.94C1.08,134.16,2.67,390.93,2.67,390.93c0,0-2.66,18.5,17.28,18.5H171.52Z"/>
      <g>
        <g class="cls-3">
          <rect id="Color_gradient" data-name="Color gradient" class="cls-6" x="3" y="-40.31" width="326.53" height="505.92"/>
        </g>
        <path id="Form_big-2" data-name="Form big" class="cls-5" d="M166.27,406.32h146.45c19.27,0,16.7-18.28,16.7-18.28,0,0,1.54-253.78-30.06-308.36C267.76,25.1,186.31,3,166.27,3S64.78,25.1,33.18,79.68C1.57,134.26,3.11,388.04,3.11,388.04c0,0-2.57,18.28,16.7,18.28H166.27Z"/>
      </g>
      <g id="Pieces_copy_80" data-name="Pieces copy 80">
        <g id="Bear_s_Eyes_copy_27" data-name="Bear&amp;apos;s Eyes copy 27">
          <g id="BE_move_copy_25" data-name="BE move copy 25">
            <g id="Lines">
              <g class="cls-1">
                <g>
                  <rect class="cls-7" x="160.16" y="188.1" width="9.1" height="231.58" transform="translate(-166.64 205.5) rotate(-45)"/>
                  <rect class="cls-7" x="48.92" y="299.34" width="231.58" height="9.1" transform="translate(-166.63 205.45) rotate(-45)"/>
                  <rect class="cls-7" x="82.84" y="299.34" width="163.75" height="9.1"/>
                  <rect class="cls-7" x="160.16" y="221.7" width="9.1" height="164.36"/>
                </g>
              </g>
            </g>
            <rect id="Center" class="cls-7" x="145.74" y="285.25" width="37.93" height="37.93"/>
          </g>
          <g>
            <path class="cls-7" d="M97.63,114.01c-.72-1.56-1.68-3.24-2.76-5.04-15.36,1.08-30.84,2.04-40.92,2.52-.36,1.08-1.2,1.68-2.16,1.8l-3.6-13.08,10.08-.24c2.76-5.4,5.52-12.24,7.2-17.4l15.84,4.56c-.48,.96-1.56,1.44-3.12,1.44-1.68,3.24-3.96,7.2-6.36,11.04l15.96-.48c-1.92-2.52-3.84-4.92-5.76-6.96l11.28-5.16c6.12,6.36,13.2,15.24,16.32,21.36l-12,5.64Zm-21.24,59.64c-2.52,8.28-7.44,16.92-13.08,22.44l-13.68-5.52c5.16-4.32,10.2-12.48,12.84-20.28l13.92,3.36Zm24.48-58.56v40.56c0,10.68-4.68,11.76-21.6,11.76-.6-3.12-2.16-7.2-3.6-10.08,12,.36,12,0,12-1.68v-4.44h-18v16.2h-12.72v-52.32h43.92Zm-13.2,9.72h-18v4.92h18v-4.92Zm-18,18.24h18v-5.04h-18v5.04Zm16.08,52.2c.12-5.28-.48-13.8-1.56-20.4l13.2-1.2c1.44,6.36,2.4,14.76,2.4,19.92l-14.04,1.68Zm27.84,0c-.72-5.16-3.12-13.56-5.52-19.92l13.44-2.76c2.64,6.12,5.4,14.28,6.24,19.56l-14.16,3.12Zm29.76-82.08c3.72,0,4.56-1.44,5.04-9.48,2.76,2.04,8.16,3.84,11.76,4.56-1.44,12.84-5.04,16.2-15.36,16.2h-17.04c-13.92,0-17.16-3.48-17.16-15.36v-25.56l16.8,.84c-.12,1.2-.96,1.92-3.12,2.28v7.92c8.04-2.16,15.96-4.8,21.36-7.32l9.48,9.72c-.48,.48-1.08,.48-2.76,.48-7.2,2.76-17.88,5.52-28.08,7.56v3.96c0,3.6,.72,4.2,5.28,4.2h13.8Zm-19.08,38.88c0,3.6,.72,4.2,5.52,4.2h14.16c3.72,0,4.56-1.44,5.04-9.84,2.76,2.04,8.28,3.96,12,4.8-1.56,13.08-5.28,16.68-15.72,16.68h-17.4c-13.92,0-17.28-3.6-17.28-15.72v-26.4l16.8,.96c-.12,1.08-.96,1.8-3.12,2.16v7.92c8.16-2.28,16.32-5.04,21.72-7.8l9.6,9.84c-.36,.48-1.08,.48-2.76,.48-7.2,3-18.24,5.88-28.56,8.04v4.68Zm21.48,44.16c-2.28-5.76-8.28-14.76-13.8-21.36l13.56-4.56c5.52,6.12,12,14.64,14.76,20.76l-14.52,5.16Z"/>
            <path class="cls-7" d="M210.07,176.17h-24.84v9.72h-13.2V88.57h38.04v87.6Zm-13.56-75h-11.28v12.48h11.28v-12.48Zm-11.28,24.6v12.72h11.28v-12.72h-11.28Zm0,37.8h11.28v-12.96h-11.28v12.96Zm68.28-20.4c1.32,4.56,2.76,9,4.56,13.2,4.56-3.72,9.48-8.16,12.72-11.88l10.56,10.92c-.48,.48-1.2,.72-2.04,.72-.48,0-.96-.12-1.44-.24-3.36,3-9.36,7.44-14.4,10.8,4.8,7.44,10.8,13.56,18.48,17.4-3.12,2.76-7.56,8.16-9.48,11.88-8.52-5.28-15.12-12.84-20.16-22.2l1.2,11.88c-13.2,3.12-27,6.12-36,8.04-.12,1.08-1.08,1.8-1.92,2.04l-5.52-15.12c2.64-.36,5.64-.84,8.88-1.44V87.61h55.2v55.56h-20.64Zm6.84-43.44h-27.36v9.72h27.36v-9.72Zm-27.36,31.32h27.36v-9.96h-27.36v9.96Zm0,12.12v33.6c6.24-1.08,12.72-2.28,19.08-3.48-4.56-8.64-7.92-18.96-10.44-30.12h-8.64Z"/>
          </g>
        </g>
      </g>
    </g>
  </g>
</svg>