<?xml version="1.0" encoding="UTF-8"?>
<svg id="Layer_2" data-name="Layer 2" xmlns="http://www.w3.org/2000/svg" xmlns:xlink="http://www.w3.org/1999/xlink" width="337" height="409" viewBox="0 0 340.48 409.43">
  <defs>
    <style>
      .cls-1 {
        clip-path: url(#clippath-1);
      }

      .cls-2 {
        fill: #2e1b10;
      }

      .cls-3 {
        clip-path: url(#clippath);
      }

      .cls-4, .cls-5 {
        fill: none;
      }

      .cls-6 {
        fill: url(#linear-gradient);
      }

      .cls-6, .cls-7, .cls-5 {
        stroke-miterlimit: 10;
      }

      .cls-6, .cls-5 {
        stroke: #3b2314;
        stroke-width: 6px;
      }

      .cls-7 {
        fill: #00aeb7;
        stroke: #007a72;
        stroke-width: 4px;
      }
    </style>
    <clipPath id="clippath">
      <path id="Form_big" data-name="Form big" class="cls-5" d="M166.27,406.32h146.45c19.27,0,16.7-18.28,16.7-18.28,0,0,1.54-253.78-30.06-308.36C267.76,25.1,186.31,3,166.27,3S64.78,25.1,33.18,79.68C1.57,134.26,3.11,388.04,3.11,388.04c0,0-2.57,18.28,16.7,18.28H166.27Z"/>
    </clipPath>
    <linearGradient id="linear-gradient" x1="15998.66" y1="-1253.84" x2="16325.2" y2="-1253.84" gradientTransform="translate(-15995.66 1466.5)" gradientUnits="userSpaceOnUse">
      <stop offset="0" stop-color="#fbcdab"/>
      <stop offset="1" stop-color="#fde4d9"/>
    </linearGradient>
    <clipPath id="clippath-1">
      <polygon class="cls-4" points="130.24 386.03 82.12 337.91 82.12 269.86 130.24 221.74 198.3 221.74 246.42 269.86 246.42 337.91 198.3 386.03 130.24 386.03"/>
    </clipPath>
  </defs>
  <g id="Main_JAP_copy" data-name="Main JAP copy">
    <g id="north_big_jap_copy_43" data-name="north big jap copy 43">
      <path id="Shadow" class="cls-2" d="M171.52,409.43h151.56c19.94,0,17.28-18.5,17.28-18.5,0,0,1.6-256.77-31.11-311.99C276.55,23.73,192.26,1.36,171.52,1.36S66.49,23.73,33.78,78.94C1.08,134.16,2.67,390.93,2.67,390.93c0,0-2.66,18.5,17.28,18.5H171.52Z"/>
      <g>
        <g class="cls-3">
          <rect id="Color_gradient" data-name="Color gradient" class="cls-6" x="3" y="-40.31" width="326.53" height="505.92"/>
        </g>
        <path id="Form_big-2" data-name="Form big" class="cls-5" d="M166.27,406.32h146.45c19.27,0,16.7-18.28,16.7-18.28,0,0,1.54-253.78-30.06-308.36C267.76,25.1,186.31,3,166.27,3S64.78,25.1,33.18,79.68C1.57,134.26,3.11,388.04,3.11,388.04c0,0-2.57,18.28,16.7,18.28H166.27Z"/>
      </g>
      <g id="Pieces_copy_79" data-name="Pieces copy 79">
        <g id="Cloud_Eagle_P_copy_28" data-name="Cloud Eagle P copy 28">
          <g id="CEP_move_copy_26" data-name="CEP move copy 26">
            <g id="squares_copy_37" data-name="squares copy 37">
              <g>
                <rect class="cls-7" x="131.49" y="271" width="14.25" height="14.25"/>
                <rect class="cls-7" x="116.9" y="256.68" width="14.25" height="14.25"/>
                <rect class="cls-7" x="102.65" y="242.43" width="14.25" height="14.25"/>
              </g>
              <g>
                <rect class="cls-7" x="183.67" y="271" width="14.25" height="14.25"/>
                <rect class="cls-7" x="198.26" y="256.68" width="14.25" height="14.25"/>
                <rect class="cls-7" x="212.51" y="242.43" width="14.25" height="14.25"/>
              </g>
            </g>
            <g id="Lines">
              <g class="cls-1">
                <g>
                  <rect class="cls-7" x="201.49" y="287.87" width="9.1" height="114.68" transform="translate(-183.76 246.83) rotate(-45)"/>
                  <rect class="cls-7" x="65.92" y="340.38" width="115.49" height="9.1" transform="translate(-207.67 188.45) rotate(-45)"/>
                  <rect class="cls-7" x="82.84" y="299.34" width="163.75" height="9.1"/>
                  <rect class="cls-7" x="160.16" y="221.7" width="9.1" height="164.36"/>
                </g>
              </g>
            </g>
            <g id="Arrows_copy_62" data-name="Arrows copy 62">
              <polygon class="cls-7" points="180.5 373.25 165.25 399.67 149.99 373.25 180.5 373.25"/>
              <polygon class="cls-7" points="149.01 234.95 164.27 208.53 179.52 234.95 149.01 234.95"/>
            </g>
            <rect id="Center" class="cls-7" x="145.74" y="285.25" width="37.93" height="37.93"/>
          </g>
          <g>
            <path class="cls-7" d="M159.54,161.29v10.92h-26.64c7.8,5.4,16.56,12.36,21.48,17.64l-13.56,6.24c-1.44-1.68-3.36-3.72-5.64-5.76-26.64,1.2-54.36,2.16-72.36,2.64-.24,1.08-1.2,1.68-2.04,1.8l-4.32-13.56c4.32,0,9.24,0,14.64-.12,1.92-2.76,3.84-5.88,5.64-8.88h-26.88v-10.92h109.68Zm-95.16-47.64v16.68h-12.72v-27.24h45.6v-5.16H59.71v-10.92h89.52v10.92h-37.92v5.16h46.68v27.24h-13.32v-16.68h-33.36v29.16h-14.04v-29.16h-32.88Zm-.24,42.6v-10.44h81.6v10.44H64.15Zm2.4-15.48v-9h26.16v9h-26.16Zm26.28-22.56v9h-23.76v-9h23.76Zm28.44,54h-27c-2.16,2.76-4.56,5.88-7.08,8.76l36-.72c-2.52-2.04-5.16-3.84-7.56-5.52l5.64-2.52Zm-5.4-54h23.88v9h-23.88v-9Zm0,22.56v-9h26.88v9h-26.88Z"/>
            <path class="cls-7" d="M191.47,120.25c-.24,.96-1.32,1.2-2.52,1.08-3.24,4.2-8.64,9-13.92,12.12-1.68-1.8-5.04-4.32-7.2-5.64,4.8-2.64,9.72-6.96,12.6-11.16l11.04,3.6Zm35.88-32.4v7.68h-56.88v-7.68h21.96v-5.28l15.48,.84c-.12,1.08-.96,1.8-3,2.16v2.28h22.44Zm-31.92,94.2c-2.64,5.76-6.84,10.56-14.64,13.68l-9.96-7.56c6.36-2.04,11.28-5.88,13.44-10.32l11.16,4.2Zm84.72-14.52h-77.4v3.24h59.16l2.76-.48,8.04,1.92c-.24,1.08-.6,1.68-1.08,2.64-2.88,20.04-6.12,21.24-18,21.24-2.04,0-4.32,0-6.72-.12-.12-1.92-.72-4.44-1.56-6.6l-3.12,1.68c-1.56-2.52-4.68-6.48-7.44-9.12l9.24-4.2c3,2.52,6.12,5.88,7.8,8.28l-3.6,1.92h4.44c2.88,0,4.32-3.72,5.4-10.2h-69.36v-45.48h.36c-.48-2.4-1.44-5.04-2.4-7.08,2.28,.12,4.44,.12,5.28,.12s1.2-.24,1.2-1.08v-8.28h-15.24v-17.28h42.36v17.28h-15.96v8.28c0,4.56-.6,6.6-4.08,8.04h11.4l2.16-5.28c-2.4-2.4-5.4-5.04-7.8-6.72l8.04-3.48c3.6,2.28,8.04,5.76,10.08,8.28l-3.72,1.8,7.8,1.32c-1.32-2.4-3.24-5.04-4.92-6.48,10.08-3.36,14.28-8.64,16.2-17.28h-11.28v-9.72h12.36c.24-3.48,.36-7.44,.36-11.88l14.76,.72c-.12,1.08-.84,1.8-2.64,2.04-.12,3.24-.12,6.24-.36,9.12h12.84c-2.4-2.4-5.88-5.28-8.52-7.08l8.4-5.04c3.84,2.16,8.28,5.64,10.56,8.16l-6.24,3.96h8.76v9.72h-26.76l-.36,2.28,9.6,.6c-.12,.96-.84,1.56-2.76,1.92v8.28c0,2.64,.36,2.88,2.76,2.88h6.6c2.16,0,2.64-.96,2.88-7.32,2.28,1.56,6.6,3.12,9.6,3.84-1.08,10.08-3.96,12.72-11.04,12.72h-9.96c-9.6,0-12-2.64-12.12-11.16-3.48,5.52-8.88,9.6-17.4,12.36-.12-.36-.36-.84-.6-1.32-.48,.24-1.08,.36-1.8,.36l-1.92,2.4h34.8v25.2h-57.24v3.12h77.4v6.96Zm-91.32-62.64v4.8h19.92v-4.8h-19.92Zm12.48,89.64c.12-3.72-.72-9.36-1.8-13.68l11.52-1.68c1.32,4.08,2.4,9.6,2.52,13.2l-12.24,2.16Zm44.76-55.8h-43.32v3.36h43.32v-3.36Zm-43.32,12.24h43.32v-3.36h-43.32v3.36Zm19.68,42.6c-.84-3.24-3.12-8.52-5.4-12.24l10.44-2.76c2.4,3.6,4.8,8.52,5.76,11.76l-10.8,3.24Z"/>
          </g>
        </g>
      </g>
    </g>
  </g>
</svg>