<?xml version="1.0" encoding="utf-8"?>
<!-- Generator: Adobe Illustrator 27.0.0, SVG Export Plug-In . SVG Version: 6.00 Build 0)  -->
<svg version="1.1" id="Layer_2_00000129889885087067064960000010264731927364510892_"
	 xmlns="http://www.w3.org/2000/svg" xmlns:xlink="http://www.w3.org/1999/xlink" x="0px" y="0px" viewBox="0 0 340.5 409.4"
	 style="enable-background:new 0 0 340.5 409.4;" xml:space="preserve">
<style type="text/css">
	.st0{fill:#2E1B10;}
	.st1{clip-path:url(#SVGID_00000035506177592203292750000014087623445062385026_);}
	
		.st2{fill:url(#Color_gradient_00000103226994739630724040000003977823269979635883_);stroke:#3B2314;stroke-width:6;stroke-miterlimit:10;}
	.st3{fill:none;stroke:#3B2314;stroke-width:6;stroke-miterlimit:10;}
	.st4{clip-path:url(#SVGID_00000043442077248951060300000010868235617799779728_);}
</style>
<g id="Main_JAP_copy">
	<g id="north_big_jap_copy_58">
		<path id="Shadow" class="st0" d="M171.5,409.4h151.6c19.9,0,17.3-18.5,17.3-18.5s1.6-256.8-31.1-312
			c-32.7-55.2-117-77.6-137.7-77.6S66.5,23.7,33.8,78.9c-32.7,55.2-31.1,312-31.1,312S0,409.4,20,409.4H171.5z"/>
		<g>
			<g>
				<defs>
					<path id="SVGID_1_" d="M166.3,406.3h146.4c19.3,0,16.7-18.3,16.7-18.3s1.5-253.8-30.1-308.4S186.3,3,166.3,3
						S64.8,25.1,33.2,79.7C1.6,134.3,3.1,388,3.1,388s-2.6,18.3,16.7,18.3H166.3z"/>
				</defs>
				<clipPath id="SVGID_00000068653427959294388640000006167967544341710495_">
					<use xlink:href="#SVGID_1_"  style="overflow:visible;"/>
				</clipPath>
				<g style="clip-path:url(#SVGID_00000068653427959294388640000006167967544341710495_);">
					
						<linearGradient id="Color_gradient_00000168837447206348647330000017664770231602451384_" gradientUnits="userSpaceOnUse" x1="7859.8999" y1="4914.0298" x2="8186.4297" y2="4914.0298" gradientTransform="matrix(1 0 0 -1 -7856.8999 5126.6797)">
						<stop  offset="0" style="stop-color:#FBCDAB"/>
						<stop  offset="1" style="stop-color:#FDE4D9"/>
					</linearGradient>
					
						<rect id="Color_gradient" x="3" y="-40.3" style="fill:url(#Color_gradient_00000168837447206348647330000017664770231602451384_);stroke:#3B2314;stroke-width:6;stroke-miterlimit:10;" width="326.5" height="505.9"/>
				</g>
			</g>
			<path id="Form_big-2" class="st3" d="M166.3,406.3h146.4c19.3,0,16.7-18.3,16.7-18.3s1.5-253.8-30.1-308.4S186.3,3,166.3,3
				S64.8,25.1,33.2,79.7C1.6,134.3,3.1,388,3.1,388s-2.6,18.3,16.7,18.3H166.3z"/>
		</g>
		<g id="Pieces_copy_94">
			<g id="Crane_King_copy_10">
				<g id="CK_move_copy_8">
					<g id="Lines">
						<g>
							<defs>
								<polygon id="SVGID_00000157283523428864938120000011779729004626602397_" points="130.2,386 82.1,337.9 82.1,269.9 
									130.2,221.7 198.3,221.7 246.4,269.9 246.4,337.9 198.3,386 								"/>
							</defs>
							<clipPath id="SVGID_00000028302605795659245440000009226992878095194548_">
								<use xlink:href="#SVGID_00000157283523428864938120000011779729004626602397_"  style="overflow:visible;"/>
							</clipPath>
							<g style="clip-path:url(#SVGID_00000028302605795659245440000009226992878095194548_);">
								<g>
									
										<rect x="160.2" y="188.1" transform="matrix(0.7071 -0.7071 0.7071 0.7071 -166.6579 205.4824)" class="st0" width="9.1" height="231.6"/>
									
										<rect x="48.9" y="299.3" transform="matrix(0.7071 -0.7071 0.7071 0.7071 -166.6196 205.4748)" class="st0" width="231.6" height="9.1"/>
									<rect x="82.8" y="299.3" class="st0" width="163.8" height="9.1"/>
									<rect x="160.2" y="221.7" class="st0" width="9.1" height="164.4"/>
								</g>
							</g>
						</g>
					</g>
					<rect id="Center" x="145.7" y="285.2" class="st0" width="37.9" height="37.9"/>
				</g>
				<g>
					<path class="st0" d="M99.7,183.1v3.2c1.9-2.8,3.4-6,4.2-9.1l8.9,3c-1.6,5.9-4,11.8-8.9,15.5l-6.5-4.2H68.6v4.1H57.8v-25.3
						c-1.3,1.3-2.8,2.6-4.2,3.8c-1.4-2.3-4.6-6.7-6.5-8.8c7-5.6,13.3-14.3,18.2-24.1h-5v8.4h-9.6v-16.3h18c1-2.5,1.8-5,2.6-7.6h-5.6
						v-6.5h27.8v6.5H75.1l9.2,2.5c-0.4,0.8-1.3,1.4-2.9,1.3c-0.4,1.2-0.8,2.5-1.3,3.7H103v16.3h-10v-8.4H77c-1.6,3.5-3.2,6.7-5,10
						h4.9c1.2-3,2.3-6.5,2.9-9.1l11.2,3.2c-0.4,0.8-1.3,1.2-2.8,1.2c-0.5,1.3-1.2,3-2,4.7h12.8v7.4H86v3.8h11.3v6.2H86v4h11.3v6.4
						H86v4.1L99.7,183.1L99.7,183.1z M63.2,106v14.4H51.7V98.5h45.6v-3.7H60.8v-8.3h88.1v8.3h-37.8v3.7h46.7v21.8h-12.1V106h-34.6
						v21.2H97.3V106C97.3,106,63.2,106,63.2,106z M93.4,115.9H68.3v-6.5h25.1V115.9z M75.7,162.5v-3.8h-7.1v3.8H75.7z M75.7,172.7
						v-4h-7.1v4H75.7z M68.6,179.1v4.1h7.1v-4.1H68.6z M160.5,166.6h-42.1v3.1h31.4l2.8-0.1l6.4,0.5l-0.4,2.9
						c-0.8,20.6-1.7,23-14.4,23c-1.8,0-3.8-0.1-6-0.2c-0.1-2-1-5.3-2.2-7.2c3.4,0.4,4.4,0.4,7.3,0.4c0.7,0,1.3-0.1,1.9-0.8
						c0.8-1.1,1.3-4.2,1.7-11.6h-6.2c1.8,2.4,3.6,5.4,4.6,7.3l-6.1,2.8c-0.8-2.3-2.9-5.8-4.8-8.4l4.1-1.7h-32.9V132h13.1
						c0.8-2,1.6-4.3,2.2-6.2h-6v-6.5H143v6.5h-14.6l8.5,2c-0.4,0.8-1.3,1.3-2.9,1.3l-1.8,2.9h18.7v24.6h-32.5v3.1h42.1L160.5,166.6
						L160.5,166.6z M115.1,193.7c0-4-0.7-10.1-1.8-14.9l7.8-1.3c1.2,4.6,2,10.8,2.2,14.8L115.1,193.7L115.1,193.7z M140.6,115.9
						h-25.8v-6.5h25.8V115.9z M137.9,141.4v-3.2h-19.6v3.2H137.9z M118.4,150.5h19.6v-3.2h-19.6V150.5z M128.1,191.2
						c-0.5-3.4-2.2-8.5-3.8-12.4l6.7-1.9c1.9,3.7,3.6,8.8,4.2,12L128.1,191.2z"/>
					<path class="st0" d="M231.3,177.7h48.4v14H170v-14h45.8v-33h-34.7v-14h34.7v-26.6h-40.4V89.9h98.9v14.2h-43v26.6h37.6v14h-37.6
						V177.7z M258.8,176.6c-4-6.1-13-15.5-20.2-22l11.3-8.5c7.1,6,16.6,14.8,21,20.8L258.8,176.6z"/>
				</g>
			</g>
		</g>
	</g>
</g>
</svg>
