<?xml version="1.0" encoding="UTF-8"?>
<svg id="Layer_2" data-name="Layer 2" xmlns="http://www.w3.org/2000/svg" xmlns:xlink="http://www.w3.org/1999/xlink" viewBox="0 0 340.48 409.43">
  <defs>
    <style>
      .cls-1 {
        clip-path: url(#clippath-1);
      }

      .cls-2 {
        fill: #2e1b10;
      }

      .cls-3 {
        clip-path: url(#clippath);
      }

      .cls-4, .cls-5 {
        fill: none;
      }

      .cls-6 {
        fill: url(#linear-gradient);
      }

      .cls-6, .cls-5 {
        stroke: #3b2314;
        stroke-miterlimit: 10;
        stroke-width: 6px;
      }
    </style>
    <clipPath id="clippath">
      <path id="Form_big" data-name="Form big" class="cls-5" d="M166.27,406.32h146.45c19.27,0,16.7-18.28,16.7-18.28,0,0,1.54-253.78-30.06-308.36C267.76,25.1,186.31,3,166.27,3S64.78,25.1,33.18,79.68C1.57,134.26,3.11,388.04,3.11,388.04c0,0-2.57,18.28,16.7,18.28H166.27Z"/>
    </clipPath>
    <linearGradient id="linear-gradient" x1="8039.65" y1="-2280.45" x2="8366.18" y2="-2280.45" gradientTransform="translate(-8036.65 2493.1)" gradientUnits="userSpaceOnUse">
      <stop offset="0" stop-color="#fbcdab"/>
      <stop offset="1" stop-color="#fde4d9"/>
    </linearGradient>
    <clipPath id="clippath-1">
      <polygon class="cls-4" points="130.24 386.03 82.12 337.91 82.12 269.86 130.24 221.74 198.3 221.74 246.42 269.86 246.42 337.91 198.3 386.03 130.24 386.03"/>
    </clipPath>
  </defs>
  <g id="Main_JAP_copy" data-name="Main JAP copy">
    <g id="north_big_jap_copy_57" data-name="north big jap copy 57">
      <path id="Shadow" class="cls-2" d="M171.52,409.43h151.56c19.94,0,17.28-18.5,17.28-18.5,0,0,1.6-256.77-31.11-311.99C276.55,23.73,192.26,1.36,171.52,1.36S66.49,23.73,33.78,78.94C1.08,134.16,2.67,390.93,2.67,390.93c0,0-2.66,18.5,17.28,18.5H171.52Z"/>
      <g>
        <g class="cls-3">
          <rect id="Color_gradient" data-name="Color gradient" class="cls-6" x="3" y="-40.31" width="326.53" height="505.92"/>
        </g>
        <path id="Form_big-2" data-name="Form big" class="cls-5" d="M166.27,406.32h146.45c19.27,0,16.7-18.28,16.7-18.28,0,0,1.54-253.78-30.06-308.36C267.76,25.1,186.31,3,166.27,3S64.78,25.1,33.18,79.68C1.57,134.26,3.11,388.04,3.11,388.04c0,0-2.57,18.28,16.7,18.28H166.27Z"/>
      </g>
      <g id="Pieces_copy_93" data-name="Pieces copy 93">
        <g id="Climbing_Monkey_copy_11" data-name="Climbing Monkey copy 11">
          <g id="CM_move_copy_9" data-name="CM move copy 9">
            <g id="Lines">
              <g class="cls-1">
                <g>
                  <rect class="cls-2" x="119.27" y="205.04" width="9.1" height="115.91" transform="translate(-149.7 164.58) rotate(-45)"/>
                  <rect class="cls-2" x="147.6" y="258.46" width="115.97" height="9.1" transform="translate(-125.76 222.38) rotate(-45)"/>
                  <rect class="cls-2" x="160.16" y="221.7" width="9.1" height="164.36"/>
                </g>
              </g>
            </g>
            <rect id="Center" class="cls-2" x="145.74" y="285.25" width="37.93" height="37.93"/>
          </g>
          <g>
            <path class="cls-2" d="M147.54,93.13c-.72,.84-2.28,.96-3.48,.72-3.36,3.12-9,7.56-13.8,10.92,1.68,2.28,3.6,4.32,5.52,6.48,4.8-4.08,9.84-9,13.08-12.96l12,8.88c-.6,.6-1.92,.96-3.36,.72-3.36,3.12-8.52,7.44-13.32,10.92,5.52,4.44,11.64,8.04,18.24,10.68-3.24,2.76-7.56,8.28-9.72,12-9.84-4.68-18.48-11.4-25.92-19.56v6.48h-44.52v-6c-7.44,7.92-16.08,14.52-25.2,19.32-1.92-3.12-5.88-7.8-8.76-10.2,6.12-2.88,12.36-7.08,17.88-12.12-3.36-3.24-8.4-7.08-12.48-9.84l7.68-7.92c4.44,2.4,9.72,6.12,13.08,9.24,3.24-3.84,6.12-7.92,8.4-12.12h-25.8v-11.64h33.36l2.28-.48,9.84,4.68c-.36,.84-1.08,1.32-1.8,1.8-3.12,8.4-7.68,16.2-13.2,23.16h34.44c-6.72-8.64-12.24-18.6-16.56-29.4l12.36-3.72c1.68,4.2,3.72,8.4,6.12,12.36,4.2-3.72,8.64-8.04,11.52-11.52l12.12,9.12Zm-19.68,74.64l7.92,2.28c-.24,.96-1.44,1.44-3,1.44-1.56,3-3.72,6.84-5.88,10.2h30.12v11.88H52.87v-11.88h28.92c-1.56-4.08-3.72-8.64-6.12-12.36l5.28-1.56h-10.32v-33.6h68.76v33.6h-11.52Zm-43.2-22.08v10.68h39.96v-10.68h-39.96Zm28.2,36c2.16-4.08,4.56-9.48,6.12-13.92h-29.76c2.88,4.44,5.4,9.96,6.6,13.92h17.04Z"/>
            <path class="cls-2" d="M253.15,154.69c1.44,3.96,3.24,7.68,5.4,11.04,4.68-3,9.72-6.6,12.96-9.48l10.68,10.8c-.48,.36-1.2,.6-2.04,.6-.48,0-.96-.12-1.44-.24-3.24,1.8-8.4,4.56-13.2,6.84,4.68,4.44,10.44,7.92,17.28,10.08-3,2.76-6.84,8.16-8.76,11.76-16.08-6.48-25.56-19.08-31.56-36.24-2.28,1.8-4.68,3.48-7.32,5.16v14.04l15.36-1.92,.6,11.52c-12.84,2.04-26.16,4.08-34.68,5.28-.24,1.08-1.2,1.68-2.16,1.92l-4.44-13.92c3.6-.36,7.68-.72,12.24-1.32v-8.52c-3.72,1.68-7.56,3.24-11.4,4.56-1.2-2.4-3.96-7.2-6-10.08-2.52,26.64-8.52,30.12-29.88,29.28,0-4.68-1.32-9.84-3.84-13.92,3.12,.24,5.64,.36,7.8,.36,5.4,0,7.56,0,9.24-2.4,2.52-3.24,3.48-15.12,3.6-29.04-4.92,6.12-10.32,11.76-15.24,15.84-2.28-3.48-6.24-8.16-9.6-10.8,8.52-5.4,18-15.6,23.76-25.32-.48-3.96-1.32-7.8-2.52-11.52-3.72,3.6-7.44,6.96-11.28,9.84-2.16-2.76-6.84-7.08-9.84-9.36,5.16-3.72,10.32-8.4,15-13.68-3.36-5.16-7.8-10.08-13.56-15l10.08-7.8c4.8,3.96,8.76,8.04,12,12.12,2.64-3.84,5.04-7.68,6.96-11.4l14.52,7.08c-.36,.72-1.44,1.2-3,1.2-2.88,5.16-6.6,10.44-10.8,15.6,6.12,12.96,7.2,26.64,7.2,41.04,0,5.76-.12,11.4-.6,16.68,8.4-2.4,17.16-6.12,24.24-10.68h-12.96v-28.32h57.72v28.32h-20.52Zm-16.2-44.88v-5.64h-22.68v-11.64h22.68v-9.84l17.64,.84c-.12,1.32-1.08,1.92-3.24,2.4v6.6h23.88v11.64h-23.88v5.64h30.36v12h-73.2v-12h28.44Zm-7.56,27v7.44h30v-7.44h-30Z"/>
          </g>
        </g>
      </g>
    </g>
  </g>
</svg>