<?xml version="1.0" encoding="UTF-8"?>
<svg id="Layer_2" data-name="Layer 2" xmlns="http://www.w3.org/2000/svg" xmlns:xlink="http://www.w3.org/1999/xlink" width="337" height="409" viewBox="0 0 340.48 409.43">
  <defs>
    <style>
      .cls-1 {
        clip-path: url(#clippath-1);
      }

      .cls-2 {
        fill: #2e1b10;
      }

      .cls-3 {
        clip-path: url(#clippath);
      }

      .cls-4, .cls-5 {
        fill: none;
      }

      .cls-6 {
        fill: url(#linear-gradient);
      }

      .cls-6, .cls-5 {
        stroke: #3b2314;
        stroke-miterlimit: 10;
        stroke-width: 6px;
      }
    </style>
    <clipPath id="clippath">
      <path id="Form_big" data-name="Form big" class="cls-5" d="M166.27,406.32h146.45c19.27,0,16.7-18.28,16.7-18.28,0,0,1.54-253.78-30.06-308.36C267.76,25.1,186.31,3,166.27,3S64.78,25.1,33.18,79.68C1.57,134.26,3.11,388.04,3.11,388.04c0,0-2.57,18.28,16.7,18.28,19.27,0,146.45,0,146.45,0Z"/>
    </clipPath>
    <linearGradient id="linear-gradient" x1="8039.65" y1="-2280.45" x2="8366.18" y2="-2280.45" gradientTransform="translate(-8036.65 2493.1)" gradientUnits="userSpaceOnUse">
      <stop offset="0" stop-color="#fbcdab"/>
      <stop offset="1" stop-color="#fde4d9"/>
    </linearGradient>
    <clipPath id="clippath-1">
      <polygon class="cls-4" points="130.24 386.03 82.12 337.91 82.12 269.86 130.24 221.74 198.3 221.74 246.42 269.86 246.42 337.91 198.3 386.03 130.24 386.03"/>
    </clipPath>
  </defs>
  <g id="Main_JAP_copy" data-name="Main JAP copy">
    <g id="north_big_jap_copy_56" data-name="north big jap copy 56">
      <path id="Shadow" class="cls-2" d="M171.52,409.43h151.56c19.94,0,17.28-18.5,17.28-18.5,0,0,1.6-256.77-31.11-311.99C276.55,23.73,192.26,1.36,171.52,1.36S66.49,23.73,33.78,78.94C1.08,134.16,2.67,390.93,2.67,390.93c0,0-2.66,18.5,17.28,18.5H171.52Z"/>
      <g>
        <g class="cls-3">
          <rect id="Color_gradient" data-name="Color gradient" class="cls-6" x="3" y="-40.31" width="326.53" height="505.92"/>
        </g>
        <path id="Form_big-2" data-name="Form big" class="cls-5" d="M166.27,406.32h146.45c19.27,0,16.7-18.28,16.7-18.28,0,0,1.54-253.78-30.06-308.36C267.76,25.1,186.31,3,166.27,3S64.78,25.1,33.18,79.68C1.57,134.26,3.11,388.04,3.11,388.04c0,0-2.57,18.28,16.7,18.28,19.27,0,146.45,0,146.45,0Z"/>
      </g>
      <g id="Pieces_copy_92" data-name="Pieces copy 92">
        <g id="Flying_Cock_copy_12" data-name="Flying Cock copy 12">
          <g id="FC_move_copy_10" data-name="FC move copy 10">
            <g id="Lines">
              <g class="cls-1">
                <g>
                  <rect class="cls-2" x="119.64" y="204.88" width="9.1" height="116.97" transform="translate(-149.86 164.97) rotate(-45)"/>
                  <rect class="cls-2" x="149.36" y="257.73" width="113.9" height="9.1" transform="translate(-125.03 222.68) rotate(-45)"/>
                  <rect class="cls-2" x="82.84" y="299.34" width="163.75" height="9.1"/>
                </g>
              </g>
            </g>
            <rect id="Center" class="cls-2" x="145.74" y="285.25" width="37.93" height="37.93"/>
          </g>
          <g>
            <path class="cls-2" d="M82.87,164.65c5.52,5.52,11.88,12.48,15.12,17.04l-10.08,8.16c-2.52-3.84-7.08-9.48-11.64-14.64-3.84,7.68-10.08,14.88-19.8,20.76-1.92-2.76-6-7.2-9.12-9.48,11.28-5.88,16.68-13.92,19.32-21.84h-17.88v-12.36h20.16c.12-1.68,.12-2.88,.12-6.96h-17.04v-12.12h17.04v-8.52l16.32,.84c-.12,1.08-.96,1.92-3.12,2.16v5.52h17.4v12.12h-17.4c0,4.08,0,5.28-.12,6.96h19.92v12.36h-19.2Zm-23.76-60.48c3.24,6,6,14.16,6.84,19.56l-11.04,4.2c-.72-5.52-3.24-13.8-6.36-20.04l10.56-3.72Zm44.28-9.6c-.36,.36-.96,.48-1.8,.48-.36,0-.84,0-1.2-.12-12.36,3.12-31.44,5.88-47.88,7.32-.48-3-2.28-7.92-3.6-10.68,15.6-1.8,33.48-4.8,44.52-8.16l9.96,11.16Zm-25.92,6.72c2.76,6.12,4.68,14.4,5.28,19.8l-11.52,3c-.24-5.52-2.16-13.92-4.56-20.28l10.8-2.52Zm83.88,44.76h-42.36v4.8h31.8l2.52-.12,6.24,.6c0,.84-.12,2.16-.24,3.36-1.08,24.6-2.28,33.96-5.04,37.32-2.28,3-4.68,4.44-18.48,4.08-.12-3.12-1.32-7.32-2.76-9.96,3.6,.36,6.72,.36,8.28,.36,4.2,0,4.68-3,5.28-10.2l-5.64,2.04c-.84-3.48-3.12-8.76-5.16-12.72l6.48-2.28c1.8,3,3.48,6.72,4.68,9.84,.24-3.24,.48-7.2,.72-12h-41.28v-54.48c-.6,.36-1.32,.48-2.28,.48-2.28,6.36-6.24,15.72-9.48,21.6l-9.6-3.96c2.76-6.6,6.12-16.68,7.8-24.12l13.56,4.8v-11.64h15c1.08-3.72,2.04-7.92,2.52-11.16l16.8,3.12c-.24,1.08-1.32,1.56-3,1.56-.72,1.92-1.56,4.2-2.52,6.48h18.6v37.8h-34.8v4.44h42.36v9.96Zm-47.4,20.76c-1.2,9.72-3.12,20.04-8.16,26.52l-9.72-5.4c4.44-5.64,6.72-14.88,7.68-23.76l10.2,2.64Zm2.76,21.48c.24-5.28-.36-13.32-1.56-19.56l7.92-1.2c1.2,6.12,2.04,14.16,1.92,19.44l-8.28,1.32Zm24.48-84.72h-22.2v4.92h22.2v-4.92Zm-22.2,18.36h22.2v-4.92h-22.2v4.92Zm10.68,61.68c-.36-4.32-1.92-10.92-3.72-15.96l7.08-1.68c1.92,4.92,3.6,11.4,4.2,15.6l-7.56,2.04Z"/>
            <path class="cls-2" d="M281.1,146.77c-.6,.96-1.92,1.08-3.12,.96-2.64,2.4-7.08,6.24-10.56,8.88,5.16,2.88,9.96,5.88,13.08,8.4l-6.36,6.72c2.4,3.12,5.52,6.72,8.16,8.4-1.8,11.16-5.64,15.96-11.88,15.96-.96,0-1.92,0-2.88-.24-20.76-2.76-25.56-24.12-27.24-49.2h-12.96v47.64h-14.04v-47.64h-14.04c-.84,16.92-4.8,35.28-21.36,49.2-2.28-2.88-7.44-7.56-10.68-9.6,13.8-11.52,17.4-26.04,18.24-39.6h-15.72v-13.08h15.96v-10.68c-3.6,1.44-7.2,2.88-10.68,3.96-1.56-2.64-5.04-8.04-7.32-10.44,11.04-2.88,23.64-7.92,30.6-13.8l13.8,6.12c-.36,.6-1.2,.96-2.16,.96-.24,0-.6,0-.96-.12-3.24,2.64-7.2,5.28-11.52,7.68l5.04,.24c-.12,1.2-1.08,1.8-3.12,2.28v13.8h13.92v-29.16l17.16,.96c-.12,1.2-.96,1.92-3.12,2.28v25.92h25.8c.12,6.6,.36,13.2,1.08,19.44l2.16-2.16,2.16,.96c3.12-3.36,7.08-8.52,9.24-12.12l13.32,7.08Zm-.12-54.24c-.6,.72-1.56,1.08-3.24,.84-2.64,2.64-7.32,6.72-10.68,9.36,4.68,2.76,9.12,5.76,12,8.04l-8.52,8.52c-3.6-3.36-10.32-7.8-16.8-11.64,3,10.8,8.88,18.48,17.04,18.48,1.56,0,2.4-3.36,3.12-8.64,2.28,2.88,5.52,6.24,8.16,7.92-1.8,9.24-5.76,13.44-11.64,13.44-.84,0-1.8,0-2.76-.24-19.44-2.4-25.68-18.6-28.44-37.56h-63.48v-12.84h75.24c.24,4.08,.6,8.28,1.2,12.24l3.96-3.72c1.44,.72,2.88,1.56,4.44,2.4v-.12l-2.16-1.32c3.12-3.36,7.08-8.64,9.24-12.24l13.32,7.08Zm-8.88,81.24c-3.48-3.24-10.08-7.44-16.44-11.16,2.52,11.88,7.8,20.28,15.24,20.28,1.44,0,2.4-4.44,3.12-11.16l-1.92,2.04Z"/>
          </g>
        </g>
      </g>
    </g>
  </g>
</svg>