<?xml version="1.0" encoding="UTF-8"?>
<svg id="Layer_2" data-name="Layer 2" xmlns="http://www.w3.org/2000/svg" xmlns:xlink="http://www.w3.org/1999/xlink" viewBox="0 0 340.48 409.43">
  <defs>
    <style>
      .cls-1 {
        clip-path: url(#clippath-1);
      }

      .cls-2 {
        fill: #2e1b10;
      }

      .cls-3 {
        clip-path: url(#clippath);
      }

      .cls-4, .cls-5 {
        fill: none;
      }

      .cls-6 {
        fill: url(#linear-gradient);
      }

      .cls-6, .cls-5 {
        stroke: #3b2314;
        stroke-miterlimit: 10;
        stroke-width: 6px;
      }
    </style>
    <clipPath id="clippath">
      <path id="Form_big" data-name="Form big" class="cls-5" d="M166.27,406.32h146.45c19.27,0,16.7-18.28,16.7-18.28,0,0,1.54-253.78-30.06-308.36C267.76,25.1,186.31,3,166.27,3S64.78,25.1,33.18,79.68C1.57,134.26,3.11,388.04,3.11,388.04c0,0-2.57,18.28,16.7,18.28H166.27Z"/>
    </clipPath>
    <linearGradient id="linear-gradient" x1="8039.65" y1="-2280.45" x2="8366.18" y2="-2280.45" gradientTransform="translate(-8036.65 2493.1)" gradientUnits="userSpaceOnUse">
      <stop offset="0" stop-color="#fbcdab"/>
      <stop offset="1" stop-color="#fde4d9"/>
    </linearGradient>
    <clipPath id="clippath-1">
      <polygon class="cls-4" points="130.24 386.03 82.12 337.91 82.12 269.86 130.24 221.74 198.3 221.74 246.42 269.86 246.42 337.91 198.3 386.03 130.24 386.03"/>
    </clipPath>
  </defs>
  <g id="Main_JAP_copy" data-name="Main JAP copy">
    <g id="north_big_jap_copy_55" data-name="north big jap copy 55">
      <path id="Shadow" class="cls-2" d="M171.52,409.43h151.56c19.94,0,17.28-18.5,17.28-18.5,0,0,1.6-256.77-31.11-311.99C276.55,23.73,192.26,1.36,171.52,1.36S66.49,23.73,33.78,78.94C1.08,134.16,2.67,390.93,2.67,390.93c0,0-2.66,18.5,17.28,18.5H171.52Z"/>
      <g>
        <g class="cls-3">
          <rect id="Color_gradient" data-name="Color gradient" class="cls-6" x="3" y="-40.31" width="326.53" height="505.92"/>
        </g>
        <path id="Form_big-2" data-name="Form big" class="cls-5" d="M166.27,406.32h146.45c19.27,0,16.7-18.28,16.7-18.28,0,0,1.54-253.78-30.06-308.36C267.76,25.1,186.31,3,166.27,3S64.78,25.1,33.18,79.68C1.57,134.26,3.11,388.04,3.11,388.04c0,0-2.57,18.28,16.7,18.28H166.27Z"/>
      </g>
      <g id="Pieces_copy_91" data-name="Pieces copy 91">
        <g id="Flying_Falcon_copy_13" data-name="Flying Falcon copy 13">
          <g id="FF_move_copy_11" data-name="FF move copy 11">
            <g id="Arrows_copy_44" data-name="Arrows copy 44">
              <polygon class="cls-2" points="104.63 266.33 96.73 236.86 126.2 244.76 104.63 266.33"/>
              <polygon class="cls-2" points="127.06 364.2 97.59 372.09 105.49 342.62 127.06 364.2"/>
              <polygon class="cls-2" points="224.69 341.86 232.59 371.33 203.12 363.43 224.69 341.86"/>
              <polygon class="cls-2" points="202.36 244.23 231.82 236.34 223.93 265.81 202.36 244.23"/>
            </g>
            <g id="Lines">
              <g class="cls-1">
                <g>
                  <rect class="cls-2" x="160.16" y="188.1" width="9.1" height="231.58" transform="translate(-166.64 205.5) rotate(-45)"/>
                  <rect class="cls-2" x="48.92" y="299.34" width="231.58" height="9.1" transform="translate(-166.63 205.45) rotate(-45)"/>
                  <rect class="cls-2" x="160.16" y="221.7" width="9.1" height="82.51"/>
                </g>
              </g>
            </g>
            <rect id="Center" class="cls-2" x="145.74" y="285.25" width="37.93" height="37.93"/>
          </g>
          <g>
            <path class="cls-2" d="M161.1,146.77c-.6,.96-1.92,1.08-3.12,.96-2.64,2.4-7.08,6.24-10.56,8.88,5.16,2.88,9.96,5.88,13.08,8.4l-6.36,6.72c2.4,3.12,5.52,6.72,8.16,8.4-1.8,11.16-5.64,15.96-11.88,15.96-.96,0-1.92,0-2.88-.24-20.76-2.76-25.56-24.12-27.24-49.2h-12.96v47.64h-14.04v-47.64h-14.04c-.84,16.92-4.8,35.28-21.36,49.2-2.28-2.88-7.44-7.56-10.68-9.6,13.8-11.52,17.4-26.04,18.24-39.6h-15.72v-13.08h15.96v-10.68c-3.6,1.44-7.2,2.88-10.68,3.96-1.56-2.64-5.04-8.04-7.32-10.44,11.04-2.88,23.64-7.92,30.6-13.8l13.8,6.12c-.36,.6-1.2,.96-2.16,.96-.24,0-.6,0-.96-.12-3.24,2.64-7.2,5.28-11.52,7.68l5.04,.24c-.12,1.2-1.08,1.8-3.12,2.28v13.8h13.92v-29.16l17.16,.96c-.12,1.2-.96,1.92-3.12,2.28v25.92h25.8c.12,6.6,.36,13.2,1.08,19.44l2.16-2.16,2.16,.96c3.12-3.36,7.08-8.52,9.24-12.12l13.32,7.08Zm-.12-54.24c-.6,.72-1.56,1.08-3.24,.84-2.64,2.64-7.32,6.72-10.68,9.36,4.68,2.76,9.12,5.76,12,8.04l-8.52,8.52c-3.6-3.36-10.32-7.8-16.8-11.64,3,10.8,8.88,18.48,17.04,18.48,1.56,0,2.4-3.36,3.12-8.64,2.28,2.88,5.52,6.24,8.16,7.92-1.8,9.24-5.76,13.44-11.64,13.44-.84,0-1.8,0-2.76-.24-19.44-2.4-25.68-18.6-28.44-37.56H55.75v-12.84h75.24c.24,4.08,.6,8.28,1.2,12.24l3.96-3.72c1.44,.72,2.88,1.56,4.44,2.4v-.12l-2.16-1.32c3.12-3.36,7.08-8.64,9.24-12.24l13.32,7.08Zm-8.88,81.24c-3.48-3.24-10.08-7.44-16.44-11.16,2.52,11.88,7.8,20.28,15.24,20.28,1.44,0,2.4-4.44,3.12-11.16l-1.92,2.04Z"/>
            <path class="cls-2" d="M280.14,171.25h-68.28v3h55.68l3-.36,8.04,1.08c-.12,1.08-.36,1.68-.6,2.88-1.44,14.52-3.36,18.12-14.64,18.12-2.28,0-5.16-.12-8.16-.36-.12-1.32-.72-3.48-1.44-5.4l-6.48,2.76c-1.08-2.76-3.84-6.96-6.48-9.84l7.56-2.88h-49.2v-39.12h16.2c1.08-2.52,2.16-5.52,2.76-7.68l5.64,1.2v-10.2l-1.32,1.08c-1.8-1.92-5.64-5.4-8.04-6.96,5.4-3.96,10.8-10.32,14.4-16.68h-18.24l9.48,3.48c-.48,.84-1.44,1.2-2.88,1.2-1.44,2.04-3.24,4.08-5.04,6l3.12,.6c-.24,.96-1.08,1.8-2.88,1.92v22.8h-11.52v-14.88c-2.04,1.56-4.08,3-6.12,4.32-.96-1.08-2.52-2.88-4.08-4.44v3.6c0,19.92-1.8,50.28-12.72,69.48-2.28-2.4-8.04-6.6-10.92-8.04,9.72-17.64,10.56-43.2,10.56-61.44v-35.64h43.44v-8.04l18.24,.96c-.12,1.2-.96,1.92-3.24,2.4v4.68h43.8v11.04h-26.88l10.32,2.52c-.48,.84-1.32,1.32-2.88,1.32l-1.56,1.92h17.28v5.4h-18.48v3.12h15.72v4.68h-15.72v3.12h15.72v4.56h-15.72v3.24h21.48v6h-43.92v1.44h-5.64l-1.2,1.92h38.64v21.12h-55.08v3.24h68.28v5.76Zm-95.76,19.92c4.2-3,8.04-8.28,9.96-12.6,9.96,4.08,10.2,4.2,10.44,4.32-2.4,4.92-5.4,10.2-9.96,13.68l-10.44-5.4Zm6.24-89.28v15.6c6.12-4.08,12.12-9.84,16.2-15.6h-16.2Zm20.76,93.6c-.48-3.36-1.92-8.16-3.6-11.88l9.96-2.28c1.92,3.48,3.6,8.16,4.08,11.28l-10.44,2.88Zm42.6-49.2h-42.12v3h42.12v-3Zm-42.12,10.8h42.12v-3.12h-42.12v3.12Zm17.76,38.04c-.72-3.12-2.88-7.8-5.16-11.28l9.48-2.76c2.4,3.12,4.68,7.68,5.64,10.68l-9.96,3.36Zm16.2-78.96v-3.12h-10.68v3.12h10.68Zm0,7.8v-3.12h-10.68v3.12h10.68Zm0,7.8v-3.24h-10.68v3.24h10.68Zm.48-24.12c1.2-1.92,2.4-4.08,3.24-5.76h-14.16l7.08,2.4c-.48,.72-1.44,1.2-2.88,.96l-1.44,2.4h8.16Zm3.36,72.6c2.52,2.52,4.92,5.64,6.24,8.28,.48,0,2.88,.12,3.36,0,2.76,0,3.72-.96,4.56-8.28h-14.16Z"/>
          </g>
        </g>
      </g>
    </g>
  </g>
</svg>