<?xml version="1.0" encoding="UTF-8"?>
<svg id="Layer_2" data-name="Layer 2" xmlns="http://www.w3.org/2000/svg" xmlns:xlink="http://www.w3.org/1999/xlink" width="337" height="409" viewBox="0 0 340.48 409.43">
  <defs>
    <style>
      .cls-1 {
        clip-path: url(#clippath-1);
      }

      .cls-2 {
        fill: #2e1b10;
      }

      .cls-3 {
        clip-path: url(#clippath);
      }

      .cls-4, .cls-5 {
        fill: none;
      }

      .cls-6 {
        fill: url(#linear-gradient);
      }

      .cls-6, .cls-5 {
        stroke: #3b2314;
        stroke-miterlimit: 10;
        stroke-width: 6px;
      }
    </style>
    <clipPath id="clippath">
      <path id="Form_big" data-name="Form big" class="cls-5" d="M166.27,406.32h146.45c19.27,0,16.7-18.28,16.7-18.28,0,0,1.54-253.78-30.06-308.36C267.76,25.1,186.31,3,166.27,3S64.78,25.1,33.18,79.68C1.57,134.26,3.11,388.04,3.11,388.04c0,0-2.57,18.28,16.7,18.28H166.27Z"/>
    </clipPath>
    <linearGradient id="linear-gradient" x1="8762.72" y1="-2280.45" x2="9089.25" y2="-2280.45" gradientTransform="translate(-8759.72 2493.1)" gradientUnits="userSpaceOnUse">
      <stop offset="0" stop-color="#fbcdab"/>
      <stop offset="1" stop-color="#fde4d9"/>
    </linearGradient>
    <clipPath id="clippath-1">
      <polygon class="cls-4" points="130.24 386.03 82.12 337.91 82.12 269.86 130.24 221.74 198.3 221.74 246.42 269.86 246.42 337.91 198.3 386.03 130.24 386.03"/>
    </clipPath>
  </defs>
  <g id="Main_JAP_copy" data-name="Main JAP copy">
    <g id="north_big_jap_copy_54" data-name="north big jap copy 54">
      <path id="Shadow" class="cls-2" d="M171.52,409.43h151.56c19.94,0,17.28-18.5,17.28-18.5,0,0,1.6-256.77-31.11-311.99C276.55,23.73,192.26,1.36,171.52,1.36S66.49,23.73,33.78,78.94C1.08,134.16,2.67,390.93,2.67,390.93c0,0-2.66,18.5,17.28,18.5H171.52Z"/>
      <g>
        <g class="cls-3">
          <rect id="Color_gradient" data-name="Color gradient" class="cls-6" x="3" y="-40.31" width="326.53" height="505.92"/>
        </g>
        <path id="Form_big-2" data-name="Form big" class="cls-5" d="M166.27,406.32h146.45c19.27,0,16.7-18.28,16.7-18.28,0,0,1.54-253.78-30.06-308.36C267.76,25.1,186.31,3,166.27,3S64.78,25.1,33.18,79.68C1.57,134.26,3.11,388.04,3.11,388.04c0,0-2.57,18.28,16.7,18.28H166.27Z"/>
      </g>
      <g id="Pieces_copy_90" data-name="Pieces copy 90">
        <g id="Flying_Goose_copy_14" data-name="Flying Goose copy 14">
          <g id="FG_move_copy_12" data-name="FG move copy 12">
            <g id="Lines">
              <g class="cls-1">
                <g>
                  <rect class="cls-2" x="119.27" y="205.04" width="9.1" height="115.91" transform="translate(-149.7 164.58) rotate(-45)"/>
                  <rect class="cls-2" x="147.6" y="258.46" width="115.97" height="9.1" transform="translate(-125.76 222.38) rotate(-45)"/>
                  <rect class="cls-2" x="160.16" y="221.7" width="9.1" height="164.36"/>
                </g>
              </g>
            </g>
            <rect id="Center" class="cls-2" x="145.74" y="285.25" width="37.93" height="37.93"/>
          </g>
          <g>
            <path class="cls-2" d="M160.98,155.17H93.91v4.2h49.92l3-.36,7.8,1.44c0,.96-.24,2.16-.6,3.12-3,30.48-5.52,32.4-20.76,32.4-2.04,0-4.32,0-6.72-.12-.12-3-1.32-7.44-2.88-10.2,3.84,.48,7.32,.6,8.88,.6s2.52-.24,3.48-1.2c1.44-1.56,2.88-6.24,3.96-16.44h-59.76v-60.6h20.64c.6-2.64,1.32-5.52,1.8-8.16h-30.72v24.48c0,20.76-1.68,51.84-12.36,71.76-2.76-2.28-9-5.76-12.6-7.2,9.96-18.48,10.8-45.48,10.8-64.56v-37.32h101.4v12.84h-39v.12h.72c-.36,.96-1.2,1.56-3,1.56-.72,1.92-1.8,4.2-2.76,6.48h25.56v33.84h-46.8v4.2h67.08v9.12Zm-73.32,18.48c-1.68,9.24-4.8,17.28-12.84,22.2-9-6.12-9.24-6.36-9.48-6.48,6.72-3.96,10.32-10.68,11.64-18.36l10.68,2.64Zm5.52,19.8c.12-5.4-1.08-13.68-3-19.92l10.08-1.44c2.16,6.12,3.6,14.4,3.72,19.68l-10.8,1.68Zm33.6-76.68h-32.88v4.2h32.88v-4.2Zm-32.88,16.44h32.88v-4.56h-32.88v4.56Zm17.16,57.84c-.72-4.68-3.24-12-5.76-17.64l9.72-2.16c2.88,5.4,5.52,12.6,6.48,17.28l-10.44,2.52Zm18.36-21.36c2.88,3.12,6,7.68,7.2,10.8l-8.88,3.72c-1.2-3.12-4.08-7.92-6.84-11.28l8.52-3.24Z"/>
            <path class="cls-2" d="M281.1,146.77c-.6,.96-1.92,1.08-3.12,.96-2.64,2.4-7.08,6.24-10.56,8.88,5.16,2.88,9.96,5.88,13.08,8.4l-6.36,6.72c2.4,3.12,5.52,6.72,8.16,8.4-1.8,11.16-5.64,15.96-11.88,15.96-.96,0-1.92,0-2.88-.24-20.76-2.76-25.56-24.12-27.24-49.2h-12.96v47.64h-14.04v-47.64h-14.04c-.84,16.92-4.8,35.28-21.36,49.2-2.28-2.88-7.44-7.56-10.68-9.6,13.8-11.52,17.4-26.04,18.24-39.6h-15.72v-13.08h15.96v-10.68c-3.6,1.44-7.2,2.88-10.68,3.96-1.56-2.64-5.04-8.04-7.32-10.44,11.04-2.88,23.64-7.92,30.6-13.8l13.8,6.12c-.36,.6-1.2,.96-2.16,.96-.24,0-.6,0-.96-.12-3.24,2.64-7.2,5.28-11.52,7.68l5.04,.24c-.12,1.2-1.08,1.8-3.12,2.28v13.8h13.92v-29.16l17.16,.96c-.12,1.2-.96,1.92-3.12,2.28v25.92h25.8c.12,6.6,.36,13.2,1.08,19.44l2.16-2.16,2.16,.96c3.12-3.36,7.08-8.52,9.24-12.12l13.32,7.08Zm-.12-54.24c-.6,.72-1.56,1.08-3.24,.84-2.64,2.64-7.32,6.72-10.68,9.36,4.68,2.76,9.12,5.76,12,8.04l-8.52,8.52c-3.6-3.36-10.32-7.8-16.8-11.64,3,10.8,8.88,18.48,17.04,18.48,1.56,0,2.4-3.36,3.12-8.64,2.28,2.88,5.52,6.24,8.16,7.92-1.8,9.24-5.76,13.44-11.64,13.44-.84,0-1.8,0-2.76-.24-19.44-2.4-25.68-18.6-28.44-37.56h-63.48v-12.84h75.24c.24,4.08,.6,8.28,1.2,12.24l3.96-3.72c1.44,.72,2.88,1.56,4.44,2.4v-.12l-2.16-1.32c3.12-3.36,7.08-8.64,9.24-12.24l13.32,7.08Zm-8.88,81.24c-3.48-3.24-10.08-7.44-16.44-11.16,2.52,11.88,7.8,20.28,15.24,20.28,1.44,0,2.4-4.44,3.12-11.16l-1.92,2.04Z"/>
          </g>
        </g>
      </g>
    </g>
  </g>
</svg>