<?xml version="1.0" encoding="UTF-8"?>
<svg id="Layer_2" data-name="Layer 2" xmlns="http://www.w3.org/2000/svg" xmlns:xlink="http://www.w3.org/1999/xlink" viewBox="0 0 340.48 409.43">
  <defs>
    <style>
      .cls-1 {
        fill: #f20000;
      }

      .cls-2 {
        clip-path: url(#clippath-1);
      }

      .cls-3 {
        fill: #2e1b10;
      }

      .cls-4 {
        clip-path: url(#clippath);
      }

      .cls-5, .cls-6 {
        fill: none;
      }

      .cls-7 {
        fill: url(#linear-gradient);
      }

      .cls-7, .cls-6 {
        stroke: #3b2314;
        stroke-miterlimit: 10;
        stroke-width: 6px;
      }
    </style>
    <clipPath id="clippath">
      <path id="Form_big" data-name="Form big" class="cls-6" d="M166.27,406.32h146.45c19.27,0,16.7-18.28,16.7-18.28,0,0,1.54-253.78-30.06-308.36C267.76,25.1,186.31,3,166.27,3S64.78,25.1,33.18,79.68C1.57,134.26,3.11,388.04,3.11,388.04c0,0-2.57,18.28,16.7,18.28H166.27Z"/>
    </clipPath>
    <linearGradient id="linear-gradient" x1="9498.04" y1="-2280.45" x2="9824.57" y2="-2280.45" gradientTransform="translate(-9495.03 2493.1)" gradientUnits="userSpaceOnUse">
      <stop offset="0" stop-color="#fbcdab"/>
      <stop offset="1" stop-color="#fde4d9"/>
    </linearGradient>
    <clipPath id="clippath-1">
      <polygon class="cls-5" points="130.24 386.03 82.12 337.91 82.12 269.86 130.24 221.74 198.3 221.74 246.42 269.86 246.42 337.91 198.3 386.03 130.24 386.03"/>
    </clipPath>
  </defs>
  <g id="Main_JAP_copy" data-name="Main JAP copy">
    <g id="north_big_jap_copy_53" data-name="north big jap copy 53">
      <path id="Shadow" class="cls-3" d="M171.52,409.43h151.56c19.94,0,17.28-18.5,17.28-18.5,0,0,1.6-256.77-31.11-311.99C276.55,23.73,192.26,1.36,171.52,1.36S66.49,23.73,33.78,78.94C1.08,134.16,2.67,390.93,2.67,390.93c0,0-2.66,18.5,17.28,18.5H171.52Z"/>
      <g>
        <g class="cls-4">
          <rect id="Color_gradient" data-name="Color gradient" class="cls-7" x="3" y="-40.31" width="326.53" height="505.92"/>
        </g>
        <path id="Form_big-2" data-name="Form big" class="cls-6" d="M166.27,406.32h146.45c19.27,0,16.7-18.28,16.7-18.28,0,0,1.54-253.78-30.06-308.36C267.76,25.1,186.31,3,166.27,3S64.78,25.1,33.18,79.68C1.57,134.26,3.11,388.04,3.11,388.04c0,0-2.57,18.28,16.7,18.28H166.27Z"/>
      </g>
      <g id="Pieces_copy_89" data-name="Pieces copy 89">
        <g id="Fox_copy_15" data-name="Fox copy 15">
          <g id="FOX_move_copy_13" data-name="FOX move copy 13">
            <g id="Lines">
              <g class="cls-2">
                <g>
                  <rect class="cls-3" x="160.16" y="188.1" width="9.1" height="231.58" transform="translate(-166.64 205.5) rotate(-45)"/>
                  <rect class="cls-3" x="48.92" y="299.34" width="231.58" height="9.1" transform="translate(-166.63 205.45) rotate(-45)"/>
                  <rect class="cls-3" x="160.16" y="221.7" width="9.1" height="164.36"/>
                </g>
              </g>
            </g>
            <g id="red_dots_copy_26" data-name="red dots copy 26">
              <rect class="cls-1" x="79.72" y="219.3" width="14.25" height="14.25" transform="translate(-134.67 127.73) rotate(-45)"/>
              <rect class="cls-1" x="157.14" y="219.23" width="14.25" height="14.25" transform="translate(-111.94 182.45) rotate(-45)"/>
              <rect class="cls-1" x="235.37" y="219.23" width="14.25" height="14.25" transform="translate(-89.03 237.77) rotate(-45)"/>
              <rect class="cls-1" x="239.37" y="378.99" width="14.25" height="14.25" transform="translate(-200.83 287.39) rotate(-45)"/>
              <rect class="cls-1" x="157.95" y="378.91" width="14.25" height="14.25" transform="translate(-224.62 229.79) rotate(-45)"/>
              <rect class="cls-1" x="75.72" y="378.91" width="14.25" height="14.25" transform="translate(-248.7 171.65) rotate(-45)"/>
            </g>
            <rect id="Center" class="cls-3" x="145.74" y="285.25" width="37.93" height="37.93"/>
          </g>
          <g>
            <path class="cls-3" d="M157.74,92.89c-.36,.36-1.08,.6-1.92,.6-.48,0-.84,0-1.32-.12-15.6,3.72-40.44,6.48-61.68,7.44-.36-1.92-1.2-4.8-2.16-7.2l-.24,.24c-2.52,9.6-6.48,22.44-9.96,32.04,7.68,9.12,10.44,16.44,10.44,23.64,0,18-10.68,19.44-21,18.96,0-3.48-1.32-8.76-3-11.88,2.16,.12,4.08,.12,5.52,.12,3.96,0,5.52-2.4,5.52-8.52-.12-5.4-2.64-12.6-9.72-20.76,2.52-7.68,5.04-18.36,6.96-26.64h-9.6v95.28h-12.48V87.97h27.24l2.16-.48,7.08,3.6-.24-.6c20.4-1.32,43.92-3.96,57.36-7.68l11.04,10.08Zm-55.44,77.28c-2.04,8.16-5.4,17.28-11.16,23.16l-10.2-7.56c4.92-4.68,8.64-12.48,10.44-19.68l10.92,4.08Zm13.68,9.12c0,2.76,.36,3.12,3.6,3.12h9c2.64,0,3.24-.84,3.6-7.56,2.4,1.8,7.68,3.84,11.16,4.56-1.44,11.64-4.92,14.52-13.2,14.52h-12.36c-11.88,0-14.4-3.6-14.4-14.52v-12.6l13.32,.72c-2.64-1.56-5.4-3.12-7.92-4.32l4.08-3.72h-20.64v-10.08h48.96v-4.8h-46.08v-9.6h46.08v-4.68h-48.96v-10.2h7.2c-1.2-4.08-4.08-9.96-6.96-14.28l10.8-4.44c3.36,4.2,6.48,10.32,7.8,14.52l-9.24,4.2h39.6l-6.12-3.12c3.6-5.4,8.04-13.92,10.56-20.16l14.04,6.6c-.48,.72-1.68,1.08-3.24,1.08-2.4,4.56-6.6,10.92-9.96,15.6h7.8v39.36h-28.56c3.72,2.04,7.08,4.32,9.24,6.36l-9.12,8.64c-1.68-1.68-4.44-3.84-7.56-5.76-.48,.48-1.2,.84-2.52,1.08v9.48Zm9.36-80.04c2.88,4.44,5.4,10.68,6.36,14.88l-11.76,4.56c-.72-4.32-3.12-10.68-5.76-15.48l11.16-3.96Zm24.72,93c-2.04-6.72-7.8-16.44-14.04-23.28l10.8-5.28c6.6,6.6,12.48,15.84,14.76,22.56l-11.52,6Z"/>
            <path class="cls-3" d="M178.39,83.41c4.2,3.72,7.68,7.56,10.68,11.52,2.52-3.72,4.8-7.44,6.6-11.04l14.4,6.96c-.6,.96-1.68,1.32-3,1.2-2.88,5.04-6.48,10.44-10.56,15.6,5.76,12.84,6.72,26.52,6.72,41.04,0,17.04-1.2,33.84-6.6,41.4-2.64,3.72-7.44,6.48-21.72,5.76,0-4.56-1.08-9.72-3.48-13.8,2.88,.24,5.28,.24,7.2,.24,4.56,0,5.88-.24,7.68-2.16,2.28-3.12,3.24-14.88,3.36-28.44-4.44,5.64-9.24,10.8-13.8,14.64-2.28-3.36-6.12-8.04-9.36-10.68,7.92-5.16,16.92-15,22.32-24.24-.48-4.32-1.32-8.4-2.52-12.36-3.12,3.24-6.36,6.12-9.72,8.76-2.16-2.88-6.72-7.08-9.72-9.36,4.8-3.48,9.48-7.8,13.8-12.72-3.12-5.16-7.08-10.08-12.36-14.88l10.08-7.44Zm42.6,11.28c15.96-3,32.52-7.44,42.6-12l13.08,10.44c-.48,.6-1.32,.6-3.24,.6-2.4,.96-5.04,1.8-7.92,2.76,2.16,35.4,6.36,70.56,17.64,89.28-3.36,2.4-8.16,7.2-10.56,10.8-12.12-21.96-16.32-57.72-18.6-96.84-5.76,1.44-11.88,2.76-18,3.96l12.6,.72c-.12,1.08-.96,1.68-2.88,2.04v66l5.88-.36c-.96-4.56-1.92-9.12-3-13.2l9.24-2.52c3,10.56,5.88,24.12,6.96,33.24l-9.84,2.76c-.24-2.64-.6-5.64-1.2-8.76-11.16,1.08-21.84,2.16-29.16,2.76-.36,1.2-1.2,1.68-2.16,1.8l-2.64-9.48c-2.04,6.6-4.8,12.72-8.52,18.12-1.8-2.76-6.96-7.32-10.08-8.88,10.44-15.84,11.52-37.68,11.52-54.6v-41.04l8.28,2.4Zm4.56,38.88c0,11.16-.72,25.92-4.2,39.84,3.6-.12,7.8-.24,12.36-.48V104.17l-8.16,1.44v27.96Z"/>
          </g>
        </g>
      </g>
    </g>
  </g>
</svg>