<?xml version="1.0" encoding="UTF-8"?>
<svg id="Layer_2" data-name="Layer 2" xmlns="http://www.w3.org/2000/svg" xmlns:xlink="http://www.w3.org/1999/xlink" viewBox="0 0 340.48 409.43">
  <defs>
    <style>
      .cls-1 {
        clip-path: url(#clippath-1);
      }

      .cls-2 {
        fill: #2e1b10;
      }

      .cls-3 {
        clip-path: url(#clippath);
      }

      .cls-4, .cls-5 {
        fill: none;
      }

      .cls-6 {
        fill: url(#linear-gradient);
      }

      .cls-6, .cls-7, .cls-5 {
        stroke-miterlimit: 10;
      }

      .cls-6, .cls-5 {
        stroke: #3b2314;
        stroke-width: 6px;
      }

      .cls-7 {
        fill: #00aeb7;
        stroke: #007a72;
        stroke-width: 4px;
      }
    </style>
    <clipPath id="clippath">
      <path id="Form_big" data-name="Form big" class="cls-5" d="M166.27,406.32h146.45c19.27,0,16.7-18.28,16.7-18.28,0,0,1.54-253.78-30.06-308.36C267.76,25.1,186.31,3,166.27,3S64.78,25.1,33.18,79.68C1.57,134.26,3.11,388.04,3.11,388.04c0,0-2.57,18.28,16.7,18.28H166.27Z"/>
    </clipPath>
    <linearGradient id="linear-gradient" x1="13122.79" y1="-1253.84" x2="13449.32" y2="-1253.84" gradientTransform="translate(-13119.79 1466.5)" gradientUnits="userSpaceOnUse">
      <stop offset="0" stop-color="#fbcdab"/>
      <stop offset="1" stop-color="#fde4d9"/>
    </linearGradient>
    <clipPath id="clippath-1">
      <polygon class="cls-4" points="130.24 386.03 82.12 337.91 82.12 269.86 130.24 221.74 198.3 221.74 246.42 269.86 246.42 337.91 198.3 386.03 130.24 386.03"/>
    </clipPath>
  </defs>
  <g id="Main_JAP_copy" data-name="Main JAP copy">
    <g id="north_big_jap_copy_39" data-name="north big jap copy 39">
      <path id="Shadow" class="cls-2" d="M171.52,409.43h151.56c19.94,0,17.28-18.5,17.28-18.5,0,0,1.6-256.77-31.11-311.99C276.55,23.73,192.26,1.36,171.52,1.36S66.49,23.73,33.78,78.94C1.08,134.16,2.67,390.93,2.67,390.93c0,0-2.66,18.5,17.28,18.5H171.52Z"/>
      <g>
        <g class="cls-3">
          <rect id="Color_gradient" data-name="Color gradient" class="cls-6" x="3" y="-40.31" width="326.53" height="505.92"/>
        </g>
        <path id="Form_big-2" data-name="Form big" class="cls-5" d="M166.27,406.32h146.45c19.27,0,16.7-18.28,16.7-18.28,0,0,1.54-253.78-30.06-308.36C267.76,25.1,186.31,3,166.27,3S64.78,25.1,33.18,79.68C1.57,134.26,3.11,388.04,3.11,388.04c0,0-2.57,18.28,16.7,18.28H166.27Z"/>
      </g>
      <g id="Pieces_copy_75" data-name="Pieces copy 75">
        <g id="Golden_Bird_copy_32" data-name="Golden Bird copy 32">
          <g id="GB_move_copy_30" data-name="GB move copy 30">
            <g id="Lines">
              <g class="cls-1">
                <g>
                  <rect class="cls-7" x="119.2" y="205.07" width="9.1" height="115.71" transform="translate(-149.68 164.53) rotate(-45)"/>
                  <rect class="cls-7" x="147.55" y="258.48" width="116.02" height="9.1" transform="translate(-125.78 222.37) rotate(-45)"/>
                  <rect class="cls-7" x="82.84" y="299.34" width="163.75" height="9.1"/>
                  <rect class="cls-7" x="160.16" y="221.7" width="9.1" height="164.36"/>
                </g>
              </g>
            </g>
            <rect id="Center" class="cls-7" x="145.74" y="285.25" width="37.93" height="37.93"/>
          </g>
          <g>
            <path class="cls-7" d="M129.07,156.13l14.52,6.24c-.6,.84-1.8,1.32-3.36,1.2-2.88,4.92-7.68,11.64-11.64,16.56h27.36v12.36H53.59v-12.36h23.64c-1.8-5.52-6-13.56-10.08-19.56l10.8-4.44h-18.36v-12.36h36.84v-12h-22.32v-5.88c-5.76,4.2-11.88,8.16-18.12,11.52-1.92-3.36-5.88-8.64-8.76-11.4,20.64-10.44,40.32-28.92,49.32-43.92l19.2,1.08c-.36,1.2-1.44,2.28-3.12,2.4,11.52,15.72,32.04,30.96,50.16,38.64-3.6,3.6-6.96,8.52-9.6,12.84-6.12-3.24-12.36-7.2-18.36-11.52v6.24h-23.16v12h37.32v12.36h-19.92Zm-32.64,0h-17.4c4.56,6.12,9.24,14.28,11.04,19.8l-9.72,4.2h16.08v-24Zm30.12-36.96c-9-7.32-16.92-15.24-22.32-22.68-5.04,7.32-12.6,15.24-21.48,22.68h43.8Zm-9.84,57.48c3.96-5.4,8.88-14.04,11.64-20.52h-16.68v24h12.36l-7.32-3.48Z"/>
            <path class="cls-7" d="M192.67,169.09c-2.64,9.6-6.6,19.92-13.32,26.64l-11.52-7.2c6.12-5.76,10.44-14.88,12.72-23.64l12.12,4.2Zm87.12-22.08h-80.52v5.4h67.08l3-.36,7.68,1.2c0,1.08-.24,2.4-.48,3.72-1.56,22.08-3.24,31.2-6.36,34.8-2.76,2.88-5.64,4.32-15.6,4.32-2.04,0-4.32,0-6.6-.12-.12-3.48-1.56-8.4-3.36-11.52,4.44,.48,8.4,.48,10.2,.48s2.76-.24,3.84-1.2c1.56-1.8,3-7.56,3.96-21.12h-77.64V91.81h27.96c1.2-3.36,2.28-6.84,2.88-9.72l18.24,2.88c-.36,.96-1.2,1.44-3,1.56l-2.76,5.28h34.56v39.96h-63.6v5.28h80.52v9.96Zm-79.92,45.12c.36-5.88-.6-15.24-2.28-22.44l11.76-1.8c2.04,7.08,3.12,16.44,3.12,22.32l-12.6,1.92Zm48.84-90.36h-49.44v5.4h49.44v-5.4Zm-49.44,20.04h49.44v-5.76h-49.44v5.76Zm23.16,68.04c-.48-5.4-2.76-13.92-5.28-20.4l10.92-2.64c2.76,6.36,5.4,14.64,6.12,19.8l-11.76,3.24Zm20.76-6.48c-1.2-4.32-4.32-11.04-7.32-16.08l10.2-3.6c3.12,4.8,6.48,11.4,7.92,15.6l-10.8,4.08Z"/>
          </g>
        </g>
      </g>
    </g>
  </g>
</svg>