<?xml version="1.0" encoding="UTF-8"?>
<svg id="Layer_2" data-name="Layer 2" xmlns="http://www.w3.org/2000/svg" xmlns:xlink="http://www.w3.org/1999/xlink" width="337" height="409" viewBox="0 0 340.48 409.43">
  <defs>
    <style>
      .cls-1 {
        clip-path: url(#clippath-1);
      }

      .cls-2 {
        fill: #2e1b10;
      }

      .cls-3 {
        clip-path: url(#clippath);
      }

      .cls-4, .cls-5 {
        fill: none;
      }

      .cls-6 {
        fill: url(#linear-gradient);
      }

      .cls-6, .cls-7, .cls-5 {
        stroke-miterlimit: 10;
      }

      .cls-6, .cls-5 {
        stroke: #3b2314;
        stroke-width: 6px;
      }

      .cls-7 {
        fill: #00aeb7;
        stroke: #007a72;
        stroke-width: 4px;
      }
    </style>
    <clipPath id="clippath">
      <path id="Form_big" data-name="Form big" class="cls-5" d="M166.27,406.32h146.45c19.27,0,16.7-18.28,16.7-18.28,0,0,1.54-253.78-30.06-308.36C267.76,25.1,186.31,3,166.27,3S64.78,25.1,33.18,79.68C1.57,134.26,3.11,388.04,3.11,388.04c0,0-2.57,18.28,16.7,18.28H166.27Z"/>
    </clipPath>
    <linearGradient id="linear-gradient" x1="12406.7" y1="-1253.84" x2="12733.24" y2="-1253.84" gradientTransform="translate(-12403.7 1466.5)" gradientUnits="userSpaceOnUse">
      <stop offset="0" stop-color="#fbcdab"/>
      <stop offset="1" stop-color="#fde4d9"/>
    </linearGradient>
    <clipPath id="clippath-1">
      <polygon class="cls-4" points="130.24 386.03 82.12 337.91 82.12 269.86 130.24 221.74 198.3 221.74 246.42 269.86 246.42 337.91 198.3 386.03 130.24 386.03"/>
    </clipPath>
  </defs>
  <g id="Main_JAP_copy" data-name="Main JAP copy">
    <g id="north_big_jap_copy_38" data-name="north big jap copy 38">
      <path id="Shadow" class="cls-2" d="M171.52,409.43h151.56c19.94,0,17.28-18.5,17.28-18.5,0,0,1.6-256.77-31.11-311.99C276.55,23.73,192.26,1.36,171.52,1.36S66.49,23.73,33.78,78.94C1.08,134.16,2.67,390.93,2.67,390.93c0,0-2.66,18.5,17.28,18.5H171.52Z"/>
      <g>
        <g class="cls-3">
          <rect id="Color_gradient" data-name="Color gradient" class="cls-6" x="3" y="-40.31" width="326.53" height="505.92"/>
        </g>
        <path id="Form_big-2" data-name="Form big" class="cls-5" d="M166.27,406.32h146.45c19.27,0,16.7-18.28,16.7-18.28,0,0,1.54-253.78-30.06-308.36C267.76,25.1,186.31,3,166.27,3S64.78,25.1,33.18,79.68C1.57,134.26,3.11,388.04,3.11,388.04c0,0-2.57,18.28,16.7,18.28H166.27Z"/>
      </g>
      <g id="Pieces_copy_74" data-name="Pieces copy 74">
        <g id="Gliding_Swallow_copy_33" data-name="Gliding Swallow copy 33">
          <g id="GS_move_copy_31" data-name="GS move copy 31">
            <g id="Lines">
              <g class="cls-1">
                <g>
                  <rect class="cls-7" x="82.84" y="299.34" width="163.75" height="9.1"/>
                  <rect class="cls-7" x="160.16" y="221.7" width="9.1" height="164.36"/>
                </g>
              </g>
            </g>
            <g id="Arrows_copy_61" data-name="Arrows copy 61">
              <polygon class="cls-7" points="95.44 319.91 69.02 304.66 95.44 289.4 95.44 319.91"/>
              <polygon class="cls-7" points="180.5 373.25 165.25 399.67 149.99 373.25 180.5 373.25"/>
              <polygon class="cls-7" points="233.74 288.42 260.16 303.68 233.74 318.93 233.74 288.42"/>
              <polygon class="cls-7" points="149.01 234.95 164.27 208.53 179.52 234.95 149.01 234.95"/>
            </g>
            <rect id="Center" class="cls-7" x="145.74" y="285.25" width="37.93" height="37.93"/>
          </g>
          <g>
            <path class="cls-7" d="M126.31,120.49h-43.8v-5.88c-.48,.36-1.2,.6-2.16,.72v49.44h-12.84v-9.96c-4.32,1.68-8.4,3.36-11.4,4.44-.12,1.08-.72,1.92-1.56,2.16l-5.76-13.44c5.04-1.2,11.64-2.88,18.72-4.8v-10.56h-15.84v-12.12h15.84v-8.04l15,.84v-10.44h-31.32v-11.76h31.32v-8.4l15.48,.84c-.12,1.08-.96,1.8-3,2.16v5.4h18.36v-8.4l16.08,.84c-.12,1.08-1.08,1.8-3.12,2.16v5.4h32.04v11.76h-32.04v17.64Zm-49.56,50.16c-2.76,9.24-7.68,19.08-13.56,25.44l-13.8-5.64c5.4-5.04,10.68-14.4,13.32-23.16l14.04,3.36Zm9.96,24c0-5.88-.96-15.72-2.28-23.16l13.32-1.56c1.56,7.32,3,16.92,3.12,22.68l-14.16,2.04Zm36.36-34.08h-36v-34.08h36v34.08Zm-9.72-57.72h-18.36v7.2h18.36v-7.2Zm-14.64,34.08v13.2h12v-13.2h-12Zm15.96,57.84c-.72-5.88-3.48-15.6-6.24-23.04l13.56-2.28c3,7.08,6,16.56,7.08,22.56l-14.4,2.76Zm33.24-42.36c1.92,0,2.28-1.56,2.64-10.92,2.4,2.04,7.56,3.96,11.04,4.8-1.2,13.44-4.32,17.4-12.24,17.4h-8.4c-10.32,0-12.6-3.6-12.6-15v-36.24l15.96,.96c-.12,1.08-.96,1.8-3,2.16v10.68c3.84-2.4,7.44-5.04,10.2-7.32l9.24,10.56c-.36,.36-1.44,.72-2.64,.48-4.32,2.64-10.68,5.76-16.8,8.28v10.32c0,3.48,.24,3.84,2.04,3.84h4.56Zm-1.08,43.56c-2.64-6.48-9-17.16-14.4-24.84l13.8-4.44c5.52,7.44,12.24,17.64,15.36,24.36l-14.76,4.92Z"/>
            <path class="cls-7" d="M186.07,151.21c-3.24,3.48-6.6,6.6-9.84,9.48-1.92-2.88-6.24-9-8.88-11.76,11.4-9.12,24.6-25.08,32.28-39.96l15.84,6.6c-.48,.84-1.8,1.44-3.36,1.08-3.24,5.4-7.08,11.04-11.04,16.44l2.64,.84c-.36,.96-1.32,1.92-3.24,2.16v59.88h-14.4v-44.76Zm24.72-61.68c-.48,.72-1.44,1.32-3.36,1.08-7.44,9.24-20.28,21.6-31.8,29.64-1.8-3.24-5.64-9-8.04-11.88,10.08-6.36,21.6-17.16,27.48-25.56l15.72,6.72Zm70.32,34.92v13.68h-17.52v41.4c0,14.28-5.4,16.32-30.36,16.32-.6-4.32-2.4-10.44-4.44-14.64,5.04,.12,10.8,.24,14.28,.24,4.8,0,5.88,0,5.88-2.28v-41.04h-35.76v-13.68h67.92Zm-4.8-34.56v13.68h-58.92v-13.68h58.92Z"/>
          </g>
        </g>
      </g>
    </g>
  </g>
</svg>