<?xml version="1.0" encoding="UTF-8"?>
<svg id="Layer_2" data-name="Layer 2" xmlns="http://www.w3.org/2000/svg" xmlns:xlink="http://www.w3.org/1999/xlink" viewBox="0 0 340.48 409.43">
  <defs>
    <style>
      .cls-1 {
        clip-path: url(#clippath-1);
      }

      .cls-2 {
        fill: #2e1b10;
      }

      .cls-3 {
        clip-path: url(#clippath);
      }

      .cls-4, .cls-5 {
        fill: none;
      }

      .cls-6 {
        fill: url(#linear-gradient);
      }

      .cls-6, .cls-5 {
        stroke: #3b2314;
        stroke-miterlimit: 10;
        stroke-width: 6px;
      }
    </style>
    <clipPath id="clippath">
      <path id="Form_big" data-name="Form big" class="cls-5" d="M166.27,406.32h146.45c19.27,0,16.7-18.28,16.7-18.28,0,0,1.54-253.78-30.06-308.36C267.76,25.1,186.31,3,166.27,3S64.78,25.1,33.18,79.68C1.57,134.26,3.11,388.04,3.11,388.04c0,0-2.57,18.28,16.7,18.28H166.27Z"/>
    </clipPath>
    <linearGradient id="linear-gradient" x1="10219.57" y1="-2280.45" x2="10546.1" y2="-2280.45" gradientTransform="translate(-10216.57 2493.1)" gradientUnits="userSpaceOnUse">
      <stop offset="0" stop-color="#fbcdab"/>
      <stop offset="1" stop-color="#fde4d9"/>
    </linearGradient>
    <clipPath id="clippath-1">
      <polygon class="cls-4" points="130.24 386.03 82.12 337.91 82.12 269.86 130.24 221.74 198.3 221.74 246.42 269.86 246.42 337.91 198.3 386.03 130.24 386.03"/>
    </clipPath>
  </defs>
  <g id="Main_JAP_copy" data-name="Main JAP copy">
    <g id="north_big_jap_copy_52" data-name="north big jap copy 52">
      <path id="Shadow" class="cls-2" d="M171.52,409.43h151.56c19.94,0,17.28-18.5,17.28-18.5,0,0,1.6-256.77-31.11-311.99C276.55,23.73,192.26,1.36,171.52,1.36S66.49,23.73,33.78,78.94C1.08,134.16,2.67,390.93,2.67,390.93c0,0-2.66,18.5,17.28,18.5H171.52Z"/>
      <g>
        <g class="cls-3">
          <rect id="Color_gradient" data-name="Color gradient" class="cls-6" x="3" y="-40.31" width="326.53" height="505.92"/>
        </g>
        <path id="Form_big-2" data-name="Form big" class="cls-5" d="M166.27,406.32h146.45c19.27,0,16.7-18.28,16.7-18.28,0,0,1.54-253.78-30.06-308.36C267.76,25.1,186.31,3,166.27,3S64.78,25.1,33.18,79.68C1.57,134.26,3.11,388.04,3.11,388.04c0,0-2.57,18.28,16.7,18.28H166.27Z"/>
      </g>
      <g id="Pieces_copy_88" data-name="Pieces copy 88">
        <g id="Liberated_Horse_copy_16" data-name="Liberated Horse copy 16">
          <g id="LH_move_copy_14" data-name="LH move copy 14">
            <g id="Arrows_copy_53" data-name="Arrows copy 53">
              <polygon class="cls-2" points="149.01 234.95 164.27 208.53 179.52 234.95 149.01 234.95"/>
            </g>
            <g id="squares_copy_28" data-name="squares copy 28">
              <rect class="cls-2" x="158.39" y="336.21" width="14.25" height="14.25" transform="translate(-194.29 217.6) rotate(-45)"/>
              <rect class="cls-2" x="158.39" y="363.36" width="14.25" height="14.25" transform="translate(-213.49 225.55) rotate(-45)"/>
            </g>
            <g id="Lines">
              <g class="cls-1">
                <rect class="cls-2" x="160.16" y="221.7" width="9.1" height="82.18"/>
              </g>
            </g>
            <rect id="Center" class="cls-2" x="145.74" y="285.25" width="37.93" height="37.93"/>
          </g>
          <g>
            <path class="cls-2" d="M60.67,87.61h87.36c-.12,11.64-.24,23.04-.24,33.84,0,33.12,1.08,58.92,5.4,58.92,1.08-.12,1.92-7.44,2.04-17.04,2.28,3.96,5.52,8.64,8.04,11.28-1.32,14.64-4.08,21.36-11.52,21.36-17.52,0-17.88-43.32-17.88-94.92h-59.52v28.68c0,20.16-1.92,48.84-15.36,66.6-2.4-2.4-8.4-6.36-11.64-7.8,12.24-16.32,13.32-40.56,13.32-58.8v-42.12Zm36.72,38.28v-6.84c-6.6,.72-13.2,1.2-19.56,1.56-.36-2.88-2.16-7.68-3.48-10.56,17.04-1.2,36.36-3.72,47.52-7.44l10.8,10.2c-.48,.6-.96,.6-2.88,.6-4.8,1.44-10.68,2.64-16.92,3.6-.24,.84-1.2,1.56-3,1.8v7.08h18.96v35.16h-18.96v11.88l8.16-.36c-1.2-2.4-2.52-4.8-3.84-6.96l11.52-3.48c5.16,8.04,10.32,18.48,12,25.68l-12.24,3.96c-.48-2.4-1.44-5.28-2.52-8.28-17.04,1.44-34.08,2.64-45.48,3.36-.12,1.2-.96,1.8-2.04,1.92l-4.2-14.64c6.84-.24,16.08-.48,26.16-.84v-12.24h-18.36v-35.16h18.36Zm-7.32,24.24h7.32v-13.32h-7.32v13.32Zm27.12-13.32h-7.32v13.32h7.32v-13.32Z"/>
            <path class="cls-2" d="M192.79,164.05c-2.28,11.88-5.76,23.76-13.92,31.08-4.32-2.76-7.92-5.04-11.64-7.32,6.96-6.36,11.04-16.56,12.84-27.24l12.72,3.48Zm77.88-19.2l8.28,1.08c-.12,1.2-.24,2.76-.48,4.08-2.64,44.04-4.56,45.96-24.84,45.96-1.8,0-3.72,0-5.76-.12-.12-4.08-1.68-9.6-3.84-13.32,3.72,.36,7.08,.48,9.48,.48,3.84,0,4.8,0,6-1.32,1.68-2.04,3-8.52,4.08-24.24h-80.52V87.49h86.88v12.36h-36.48v7.56h32.16v11.28h-32.16v7.56h32.16v11.16h-32.16v7.68h34.08l3.12-.24Zm-51.48-45h-21.96v7.56h21.96v-7.56Zm0,26.4v-7.56h-21.96v7.56h21.96Zm-21.96,11.16v7.68h21.96v-7.68h-21.96Zm4.08,53.76c-.12-6.72-1.8-17.16-3.96-25.08l12.12-1.92c2.52,7.92,4.32,18.12,4.68,24.84l-12.84,2.16Zm23.4-3c-.72-5.88-3.48-15.24-6.6-22.44l11.16-2.76c3.24,6.96,6.36,16.2,7.32,22.08l-11.88,3.12Zm23.16-27.96c3.6,5.16,7.56,12.12,9.12,16.8l-11.16,4.08c-1.32-4.68-4.92-12-8.4-17.4l10.44-3.48Z"/>
          </g>
        </g>
      </g>
    </g>
  </g>
</svg>