<?xml version="1.0" encoding="UTF-8"?>
<svg id="Layer_2" data-name="Layer 2" xmlns="http://www.w3.org/2000/svg" xmlns:xlink="http://www.w3.org/1999/xlink" width="337" height="409" viewBox="0 0 340.48 409.43">
  <defs>
    <style>
      .cls-1 {
        clip-path: url(#clippath-1);
      }

      .cls-2 {
        fill: #2e1b10;
      }

      .cls-3 {
        clip-path: url(#clippath);
      }

      .cls-4, .cls-5 {
        fill: none;
      }

      .cls-6 {
        fill: url(#linear-gradient);
      }

      .cls-6, .cls-7, .cls-5 {
        stroke-miterlimit: 10;
      }

      .cls-6, .cls-5 {
        stroke: #3b2314;
        stroke-width: 6px;
      }

      .cls-7 {
        fill: #00aeb7;
        stroke: #007a72;
        stroke-width: 4px;
      }
    </style>
    <clipPath id="clippath">
      <path id="Form_big" data-name="Form big" class="cls-5" d="M166.27,406.32h146.45c19.27,0,16.7-18.28,16.7-18.28,0,0,1.54-253.78-30.06-308.36C267.76,25.1,186.31,3,166.27,3S64.78,25.1,33.18,79.68C1.57,134.26,3.11,388.04,3.11,388.04c0,0-2.57,18.28,16.7,18.28H166.27Z"/>
    </clipPath>
    <linearGradient id="linear-gradient" x1="10979.73" y1="-1253.84" x2="11306.26" y2="-1253.84" gradientTransform="translate(11309.26 -1041.19) rotate(-180)" gradientUnits="userSpaceOnUse">
      <stop offset="0" stop-color="#fbcdab"/>
      <stop offset="1" stop-color="#fde4d9"/>
    </linearGradient>
    <clipPath id="clippath-1">
      <polygon class="cls-4" points="130.24 386.03 82.12 337.91 82.12 269.86 130.24 221.74 198.3 221.74 246.42 269.86 246.42 337.91 198.3 386.03 130.24 386.03"/>
    </clipPath>
  </defs>
  <g id="Main_JAP_copy" data-name="Main JAP copy">
    <g id="north_big_jap_copy_36" data-name="north big jap copy 36">
      <path id="Shadow" class="cls-2" d="M171.52,409.43h151.56c19.94,0,17.28-18.5,17.28-18.5,0,0,1.6-256.77-31.11-311.99C276.55,23.73,192.26,1.36,171.52,1.36S66.49,23.73,33.78,78.94C1.08,134.16,2.67,390.93,2.67,390.93c0,0-2.66,18.5,17.28,18.5H171.52Z"/>
      <g>
        <g class="cls-3">
          <rect id="Color_gradient" data-name="Color gradient" class="cls-6" x="3" y="-40.31" width="326.53" height="505.92"/>
        </g>
        <path id="Form_big-2" data-name="Form big" class="cls-5" d="M166.27,406.32h146.45c19.27,0,16.7-18.28,16.7-18.28,0,0,1.54-253.78-30.06-308.36C267.76,25.1,186.31,3,166.27,3S64.78,25.1,33.18,79.68C1.57,134.26,3.11,388.04,3.11,388.04c0,0-2.57,18.28,16.7,18.28H166.27Z"/>
      </g>
      <g id="Pieces_copy_72" data-name="Pieces copy 72">
        <g id="Plodding_Ox_copy_35" data-name="Plodding Ox copy 35">
          <g id="PO_move_copy_33" data-name="PO move copy 33">
            <g id="Lines">
              <g class="cls-1">
                <g>
                  <rect class="cls-7" x="160.16" y="188.1" width="9.1" height="231.58" transform="translate(-166.64 205.5) rotate(-45)"/>
                  <rect class="cls-7" x="48.92" y="299.34" width="231.58" height="9.1" transform="translate(-166.63 205.45) rotate(-45)"/>
                  <rect class="cls-7" x="82.84" y="299.34" width="163.75" height="9.1"/>
                  <rect class="cls-7" x="160.16" y="221.7" width="9.1" height="164.36"/>
                </g>
              </g>
            </g>
            <rect id="Center" class="cls-7" x="145.74" y="285.25" width="37.93" height="37.93"/>
          </g>
          <g>
            <path class="cls-7" d="M150.78,143.77l11.88,9.96c-.84,1.44-2.4,2.04-5.76,2.04h-14.04v24.12c0,8.52-2.04,14.64-16.2,15.84,0-9.96-2.64-12-11.04-12.96v-1.56h12.72c1.32,0,1.68-.48,1.68-1.8v-23.64h-49.56c-.96,16.44-6.84,31.44-29.4,40.32l-1.08-1.2c13.8-10.08,17.4-24.24,17.88-39.12h-18.96l-.6-2.4h19.68v-30.36l14.64,5.4h12.96c.36-3.6,1.08-8.88,1.44-12.72H49.39l-.6-2.4h20.88v-24.48l17.4,1.68c-.24,1.8-1.44,2.64-5.16,3.12v19.68h17.16v-30.36l17.88,1.8c-.24,1.68-1.32,2.52-5.04,3.12v9.48h15.72l6.72-8.88,12.72,9.12c-.84,1.56-2.52,2.16-5.76,2.16h-29.4v13.56h29.04l6.96-9,12.96,9.24c-.96,1.56-2.4,2.16-5.88,2.16h-54.84l16.08,2.52c-.36,2.04-1.68,2.88-4.92,3-2.52,2.04-6.6,4.92-9.84,7.2h27.36l5.28-6.84,13.68,9.96c-.72,.96-2.4,2.04-4.92,2.52v19.32h1.2l6.72-9.6Zm-70.2,9.6h49.44v-22.56h-49.44v22.56Zm12.6-20.88c15.24,2.28,20.28,8.28,20.28,13.08,0,3.72-3,6.72-6.48,6.72-1.56,0-3.36-.6-4.92-2.28-.72-5.88-4.8-12.72-9.6-16.44l.72-1.08Zm16.68,55.8c0,.12-2.4,3-12.84,3v-32.76l17.04,1.44c-.12,1.44-.96,2.28-4.2,2.76v25.56Z"/>
            <path class="cls-7" d="M279.9,141.49v14.28h-47.64v40.08h-15.36v-40.08h-47.16v-14.28h47.16v-24.24h-23.88c-3.48,7.8-7.32,14.88-11.64,20.4-3.36-2.28-9.72-5.4-13.8-7.08,8.64-10.2,15.84-28.08,19.56-45.24l18,4.2c-.36,1.32-1.68,1.8-3.12,1.68-1.08,3.96-2.16,7.92-3.48,11.88h18.36v-20.4l18.6,1.08c-.12,1.2-1.08,1.92-3.24,2.28v17.04h40.8v14.16h-40.8v24.24h47.64Z"/>
          </g>
        </g>
      </g>
    </g>
  </g>
</svg>