<?xml version="1.0" encoding="UTF-8"?>
<svg id="Layer_2" data-name="Layer 2" xmlns="http://www.w3.org/2000/svg" xmlns:xlink="http://www.w3.org/1999/xlink" viewBox="0 0 340.48 409.43">
  <defs>
    <style>
      .cls-1 {
        clip-path: url(#clippath-1);
      }

      .cls-2 {
        fill: #2e1b10;
      }

      .cls-3 {
        clip-path: url(#clippath);
      }

      .cls-4, .cls-5 {
        fill: none;
      }

      .cls-6 {
        fill: url(#linear-gradient);
      }

      .cls-6, .cls-5 {
        stroke: #3b2314;
        stroke-miterlimit: 10;
        stroke-width: 6px;
      }
    </style>
    <clipPath id="clippath">
      <path id="Form_big" data-name="Form big" class="cls-5" d="M166.27,406.32h146.45c19.27,0,16.7-18.28,16.7-18.28,0,0,1.54-253.78-30.06-308.36C267.76,25.1,186.31,3,166.27,3S64.78,25.1,33.18,79.68C1.57,134.26,3.11,388.04,3.11,388.04c0,0-2.57,18.28,16.7,18.28H166.27Z"/>
    </clipPath>
    <linearGradient id="linear-gradient" x1="11630.46" y1="-2280.45" x2="11956.99" y2="-2280.45" gradientTransform="translate(-11627.46 2493.1)" gradientUnits="userSpaceOnUse">
      <stop offset="0" stop-color="#fbcdab"/>
      <stop offset="1" stop-color="#fde4d9"/>
    </linearGradient>
    <clipPath id="clippath-1">
      <polygon class="cls-4" points="130.24 386.03 82.12 337.91 82.12 269.86 130.24 221.74 198.3 221.74 246.42 269.86 246.42 337.91 198.3 386.03 130.24 386.03"/>
    </clipPath>
  </defs>
  <g id="Main_JAP_copy" data-name="Main JAP copy">
    <g id="north_big_jap_copy_50" data-name="north big jap copy 50">
      <path id="Shadow" class="cls-2" d="M171.52,409.43h151.56c19.94,0,17.28-18.5,17.28-18.5,0,0,1.6-256.77-31.11-311.99C276.55,23.73,192.26,1.36,171.52,1.36S66.49,23.73,33.78,78.94C1.08,134.16,2.67,390.93,2.67,390.93c0,0-2.66,18.5,17.28,18.5H171.52Z"/>
      <g>
        <g class="cls-3">
          <rect id="Color_gradient" data-name="Color gradient" class="cls-6" x="3" y="-40.31" width="326.53" height="505.92"/>
        </g>
        <path id="Form_big-2" data-name="Form big" class="cls-5" d="M166.27,406.32h146.45c19.27,0,16.7-18.28,16.7-18.28,0,0,1.54-253.78-30.06-308.36C267.76,25.1,186.31,3,166.27,3S64.78,25.1,33.18,79.68C1.57,134.26,3.11,388.04,3.11,388.04c0,0-2.57,18.28,16.7,18.28H166.27Z"/>
      </g>
      <g id="Pieces_copy_86" data-name="Pieces copy 86">
        <g id="Running_Rabbit_copy_21" data-name="Running Rabbit copy 21">
          <g id="RR_move_copy_19" data-name="RR move copy 19">
            <g id="Arrows_copy_49" data-name="Arrows copy 49">
              <polygon class="cls-2" points="149.01 234.95 164.27 208.53 179.52 234.95 149.01 234.95"/>
            </g>
            <g id="Lines">
              <g class="cls-1">
                <g>
                  <rect class="cls-2" x="160.16" y="188.1" width="9.1" height="231.58" transform="translate(-166.64 205.5) rotate(-45)"/>
                  <rect class="cls-2" x="48.92" y="299.34" width="231.58" height="9.1" transform="translate(-166.63 205.45) rotate(-45)"/>
                  <rect class="cls-2" x="160.16" y="221.7" width="9.1" height="164.36"/>
                </g>
              </g>
            </g>
            <rect id="Center" class="cls-2" x="145.74" y="285.25" width="37.93" height="37.93"/>
          </g>
          <g>
            <path class="cls-2" d="M111.67,159.61v19.56c7.32,1.32,13.92,1.44,27,1.44,7.56,0,18.12,0,23.04-.12-2.04,3.24-4.32,9.84-5.04,13.92h-26.28c-24,0-42.96-4.2-55.8-22.2-3.84,9.24-9.12,17.88-16.32,23.88-2.4-2.76-7.8-7.44-10.92-9.36,13.32-10.68,18.72-31.2,20.52-48.12l17.64,2.64c-.24,1.08-1.32,1.8-3,1.92-.72,4.2-1.56,8.76-2.76,13.44,4.08,8.64,10.08,14.28,17.16,17.88v-41.04H50.95v-13.32h45.96v-11.64H61.87v-13.32h35.04v-12.36l18,1.08c-.12,1.08-.96,1.92-3.24,2.16v9.12h37.08v13.32h-37.08v11.64h46.92v13.32h-46.92v13.32h38.64v12.84h-38.64Z"/>
            <path class="cls-2" d="M219.19,156.25c-.36,.96-1.44,1.8-3.24,2.04-3.72,16.92-9.24,30.48-40.32,38.28-1.44-3.84-5.16-9.96-8.28-12.96,27.48-5.28,31.44-15,33.48-29.4l18.36,2.04Zm21.96,21.72c0,3.96,.96,4.56,6.48,4.56h15.84c4.68,0,5.52-1.68,6.12-11.52,2.88,2.16,8.88,4.32,12.84,5.16-1.68,15.24-5.76,19.2-17.52,19.2h-18.96c-15.48,0-19.08-4.08-19.08-17.28v-25.08h-47.04v-40.56h37.2v-9.96c-13.56,.84-27.48,1.56-40.44,1.8-.24-3.6-1.92-9.12-3.12-12.24,31.44-.96,67.68-3.72,89.76-8.04l9.72,12.36c-.48,.24-1.08,.36-1.8,.36-.48,0-1.08,0-1.68-.12-10.68,1.92-23.88,3.48-38.04,4.68v11.16h39.12v40.56h-28.44l-.96,.24v24.72Zm-47.16-52.68v14.88h23.04v-14.88h-23.04Zm61.56,0h-24.12v14.88h24.12v-14.88Zm-1.44,28.8c5.28,4.56,12.24,10.92,15.6,15.36-3.84,3-7.08,5.52-10.32,8.16-3-4.56-9.72-11.4-15-16.2l9.72-7.32Z"/>
          </g>
        </g>
      </g>
    </g>
  </g>
</svg>