<?xml version="1.0" encoding="UTF-8"?>
<svg id="Layer_2" data-name="Layer 2" xmlns="http://www.w3.org/2000/svg" xmlns:xlink="http://www.w3.org/1999/xlink" viewBox="0 0 340.48 409.43">
  <defs>
    <style>
      .cls-1 {
        clip-path: url(#clippath-1);
      }

      .cls-2 {
        fill: #2e1b10;
      }

      .cls-3 {
        clip-path: url(#clippath);
      }

      .cls-4, .cls-5 {
        fill: none;
      }

      .cls-6 {
        fill: url(#linear-gradient);
      }

      .cls-6, .cls-5 {
        stroke: #3b2314;
        stroke-miterlimit: 10;
        stroke-width: 6px;
      }
    </style>
    <clipPath id="clippath">
      <path id="Form_big" data-name="Form big" class="cls-5" d="M166.27,406.32h146.45c19.27,0,16.7-18.28,16.7-18.28,0,0,1.54-253.78-30.06-308.36C267.76,25.1,186.31,3,166.27,3S64.78,25.1,33.18,79.68C1.57,134.26,3.11,388.04,3.11,388.04c0,0-2.57,18.28,16.7,18.28H166.27Z"/>
    </clipPath>
    <linearGradient id="linear-gradient" x1="12347.4" y1="-2280.45" x2="12673.93" y2="-2280.45" gradientTransform="translate(-12344.4 2493.1)" gradientUnits="userSpaceOnUse">
      <stop offset="0" stop-color="#fbcdab"/>
      <stop offset="1" stop-color="#fde4d9"/>
    </linearGradient>
    <clipPath id="clippath-1">
      <polygon class="cls-4" points="130.24 386.03 82.12 337.91 82.12 269.86 130.24 221.74 198.3 221.74 246.42 269.86 246.42 337.91 198.3 386.03 130.24 386.03"/>
    </clipPath>
  </defs>
  <g id="Main_JAP_copy" data-name="Main JAP copy">
    <g id="north_big_jap_copy_49" data-name="north big jap copy 49">
      <path id="Shadow" class="cls-2" d="M171.52,409.43h151.56c19.94,0,17.28-18.5,17.28-18.5,0,0,1.6-256.77-31.11-311.99C276.55,23.73,192.26,1.36,171.52,1.36S66.49,23.73,33.78,78.94C1.08,134.16,2.67,390.93,2.67,390.93c0,0-2.66,18.5,17.28,18.5H171.52Z"/>
      <g>
        <g class="cls-3">
          <rect id="Color_gradient" data-name="Color gradient" class="cls-6" x="3" y="-40.31" width="326.53" height="505.92"/>
        </g>
        <path id="Form_big-2" data-name="Form big" class="cls-5" d="M166.27,406.32h146.45c19.27,0,16.7-18.28,16.7-18.28,0,0,1.54-253.78-30.06-308.36C267.76,25.1,186.31,3,166.27,3S64.78,25.1,33.18,79.68C1.57,134.26,3.11,388.04,3.11,388.04c0,0-2.57,18.28,16.7,18.28H166.27Z"/>
      </g>
      <g id="Pieces_copy_85" data-name="Pieces copy 85">
        <g id="Strutting_Crow_copy_22" data-name="Strutting Crow copy 22">
          <g id="SC_move_copy_20" data-name="SC move copy 20">
            <g id="Lines">
              <g class="cls-1">
                <g>
                  <rect class="cls-2" x="201.22" y="287.23" width="9.1" height="115.43" transform="translate(-183.65 246.57) rotate(-45)"/>
                  <rect class="cls-2" x="65.97" y="340.5" width="115.14" height="9.1" transform="translate(-207.79 188.39) rotate(-45)"/>
                  <rect class="cls-2" x="160.16" y="221.7" width="9.1" height="82.18"/>
                </g>
              </g>
            </g>
            <rect id="Center" class="cls-2" x="145.74" y="285.25" width="37.93" height="37.93"/>
          </g>
          <g>
            <path class="cls-2" d="M72.79,167.77c-2.64,10.08-6.48,20.76-13.56,27.48l-11.52-7.2c6.36-5.88,10.68-15.12,12.84-24.48l12.24,4.2Zm86.88-23.76H79.27v6.12h65.76l3-.24,7.68,.72-.36,4.08c-1.68,40.08-3.72,41.4-22.2,41.4-1.8,0-3.72,0-5.76-.12-.12-3.6-1.68-8.76-3.48-12,3.36,.36,6.6,.48,8.76,.48,3.6,0,4.32-.12,5.4-1.32,1.44-1.68,2.4-7.44,3.12-21.24H64.99V93.97h29.04c1.32-3.84,2.64-8.28,3.36-11.64l18.24,2.88c-.36,.96-1.2,1.56-3,1.68-1.08,2.16-2.4,4.68-3.72,7.08h33.6v32.64h-63.24v5.88h80.4v11.52Zm-79.8,48c.36-6.24-.48-15.96-2.28-23.28l11.4-1.68c2.04,7.32,3.24,16.8,3.12,23.04l-12.24,1.92Zm48.48-87.12h-49.08v10.8h49.08v-10.8Zm-25.68,84.96c-.48-5.52-2.88-14.52-5.52-21.24l10.56-2.52c3,6.6,5.76,15.24,6.36,20.76l-11.4,3Zm20.76-6.96c-1.08-4.32-4.32-11.16-7.32-16.2l9.96-3.48c3,4.8,6.48,11.4,7.8,15.72l-10.44,3.96Z"/>
            <path class="cls-2" d="M186.07,151.21c-3.24,3.48-6.6,6.6-9.84,9.48-1.92-2.88-6.24-9-8.88-11.76,11.4-9.12,24.6-25.08,32.28-39.96l15.84,6.6c-.48,.84-1.8,1.44-3.36,1.08-3.24,5.4-7.08,11.04-11.04,16.44l2.64,.84c-.36,.96-1.32,1.92-3.24,2.16v59.88h-14.4v-44.76Zm24.72-61.68c-.48,.72-1.44,1.32-3.36,1.08-7.44,9.24-20.28,21.6-31.8,29.64-1.8-3.24-5.64-9-8.04-11.88,10.08-6.36,21.6-17.16,27.48-25.56l15.72,6.72Zm70.32,34.92v13.68h-17.52v41.4c0,14.28-5.4,16.32-30.36,16.32-.6-4.32-2.4-10.44-4.44-14.64,5.04,.12,10.8,.24,14.28,.24,4.8,0,5.88,0,5.88-2.28v-41.04h-35.76v-13.68h67.92Zm-4.8-34.56v13.68h-58.92v-13.68h58.92Z"/>
          </g>
        </g>
      </g>
    </g>
  </g>
</svg>