<?xml version="1.0" encoding="UTF-8"?>
<svg id="Layer_2" data-name="Layer 2" xmlns="http://www.w3.org/2000/svg" xmlns:xlink="http://www.w3.org/1999/xlink" viewBox="0 0 340.48 409.43">
  <defs>
    <style>
      .cls-1 {
        clip-path: url(#clippath-1);
      }

      .cls-2 {
        fill: #2e1b10;
      }

      .cls-3 {
        clip-path: url(#clippath);
      }

      .cls-4, .cls-5 {
        fill: none;
      }

      .cls-6 {
        fill: url(#linear-gradient);
      }

      .cls-6, .cls-5 {
        stroke: #3b2314;
        stroke-miterlimit: 10;
        stroke-width: 6px;
      }
    </style>
    <clipPath id="clippath">
      <path id="Form_big" data-name="Form big" class="cls-5" d="M166.27,406.32h146.45c19.27,0,16.7-18.28,16.7-18.28,0,0,1.54-253.78-30.06-308.36C267.76,25.1,186.31,3,166.27,3S64.78,25.1,33.18,79.68C1.57,134.26,3.11,388.04,3.11,388.04c0,0-2.57,18.28,16.7,18.28H166.27Z"/>
    </clipPath>
    <linearGradient id="linear-gradient" x1="13078.12" y1="-2280.45" x2="13404.65" y2="-2280.45" gradientTransform="translate(-13075.12 2493.1)" gradientUnits="userSpaceOnUse">
      <stop offset="0" stop-color="#fbcdab"/>
      <stop offset="1" stop-color="#fde4d9"/>
    </linearGradient>
    <clipPath id="clippath-1">
      <polygon class="cls-4" points="130.24 386.03 82.12 337.91 82.12 269.86 130.24 221.74 198.3 221.74 246.42 269.86 246.42 337.91 198.3 386.03 130.24 386.03"/>
    </clipPath>
  </defs>
  <g id="Main_JAP_copy" data-name="Main JAP copy">
    <g id="north_big_jap_copy_48" data-name="north big jap copy 48">
      <path id="Shadow" class="cls-2" d="M171.52,409.43h151.56c19.94,0,17.28-18.5,17.28-18.5,0,0,1.6-256.77-31.11-311.99C276.55,23.73,192.26,1.36,171.52,1.36S66.49,23.73,33.78,78.94C1.08,134.16,2.67,390.93,2.67,390.93c0,0-2.66,18.5,17.28,18.5H171.52Z"/>
      <g>
        <g class="cls-3">
          <rect id="Color_gradient" data-name="Color gradient" class="cls-6" x="3" y="-40.31" width="326.53" height="505.92"/>
        </g>
        <path id="Form_big-2" data-name="Form big" class="cls-5" d="M166.27,406.32h146.45c19.27,0,16.7-18.28,16.7-18.28,0,0,1.54-253.78-30.06-308.36C267.76,25.1,186.31,3,166.27,3S64.78,25.1,33.18,79.68C1.57,134.26,3.11,388.04,3.11,388.04c0,0-2.57,18.28,16.7,18.28H166.27Z"/>
      </g>
      <g id="Pieces_copy_84" data-name="Pieces copy 84">
        <g id="Swooping_Owl_copy_23" data-name="Swooping Owl copy 23">
          <g id="SO_move_copy_21" data-name="SO move copy 21">
            <g id="Lines">
              <g class="cls-1">
                <g>
                  <rect class="cls-2" x="201.22" y="287.23" width="9.1" height="115.43" transform="translate(-183.65 246.57) rotate(-45)"/>
                  <rect class="cls-2" x="65.97" y="340.5" width="115.14" height="9.1" transform="translate(-207.79 188.39) rotate(-45)"/>
                  <rect class="cls-2" x="160.16" y="221.7" width="9.1" height="82.18"/>
                </g>
              </g>
            </g>
            <rect id="Center" class="cls-2" x="145.74" y="285.25" width="37.93" height="37.93"/>
          </g>
          <g>
            <path class="cls-2" d="M161.34,146.05h-42.36v4.8h31.8l2.52-.12,6.24,.6c0,.84-.12,2.16-.24,3.36-1.08,24.6-2.28,33.96-5.04,37.32-2.28,3-4.68,4.44-18.48,4.08-.12-3.12-1.32-7.32-2.76-9.96,3.6,.36,6.72,.36,8.28,.36,4.2,0,4.68-3,5.28-10.2l-5.64,2.04c-.84-3.48-3.12-8.76-5.16-12.72l6.48-2.28c1.8,3,3.48,6.72,4.68,9.84,.24-3.24,.48-7.2,.72-12h-40.8l-.72,3.6,7.8,2.04c-1.2,9.72-3.12,20.04-8.16,26.52l-9.72-5.4c2.76-3.48,4.68-8.4,6-13.8-1.92,1.92-4.32,2.52-7.44,2.52-10.44,0-14.76-19.68-16.44-45.36h-10.92v26.88l12.24-2.76,1.32,11.04c-9.6,2.88-19.44,5.76-25.92,7.56-.12,1.08-.96,1.8-1.8,2.16l-5.4-13.92c2.16-.36,4.56-.96,7.2-1.44V91.33l7.2,2.4c10.92-2.88,22.2-6.72,29.04-10.56l12,9.72c-.6,.6-1.32,.6-3.12,.6-2.16,.96-4.68,2.04-7.44,3h.48c0,1.08-1.08,1.8-3.12,2.16-.12,6.72-.12,13.56,.12,20.28h12.84v12.36h-12.48c.84,18.12,2.76,32.52,5.52,32.52,1.2,0,2.16-3.96,2.4-11.64,2.04,2.52,5.28,5.28,8.04,6.72V93.85h15c1.08-3.72,2.04-7.92,2.52-11.16l16.8,3.12c-.24,1.08-1.32,1.56-3,1.56-.72,1.92-1.56,4.2-2.52,6.48h18.6v37.8h-34.8v4.44h42.36v9.96Zm-107.75,45.36v-12.36h37.2v12.36H53.59Zm13.68-72.48h10.32c-.24-5.76-.36-11.76-.48-17.76-3.24,.84-6.6,1.56-9.84,2.28v15.48Zm49.44,69.36c.24-5.28-.36-13.32-1.56-19.56l7.92-1.2c1.2,6.12,2.04,14.16,1.92,19.44l-8.28,1.32Zm24.48-84.72h-22.2v4.92h22.2v-4.92Zm-22.2,18.36h22.2v-4.92h-22.2v4.92Zm10.68,61.68c-.36-4.32-1.92-10.92-3.72-15.96l7.08-1.68c1.92,4.92,3.6,11.4,4.2,15.6l-7.56,2.04Z"/>
            <path class="cls-2" d="M186.07,151.21c-3.24,3.48-6.6,6.6-9.84,9.48-1.92-2.88-6.24-9-8.88-11.76,11.4-9.12,24.6-25.08,32.28-39.96l15.84,6.6c-.48,.84-1.8,1.44-3.36,1.08-3.24,5.4-7.08,11.04-11.04,16.44l2.64,.84c-.36,.96-1.32,1.92-3.24,2.16v59.88h-14.4v-44.76Zm24.72-61.68c-.48,.72-1.44,1.32-3.36,1.08-7.44,9.24-20.28,21.6-31.8,29.64-1.8-3.24-5.64-9-8.04-11.88,10.08-6.36,21.6-17.16,27.48-25.56l15.72,6.72Zm70.32,34.92v13.68h-17.52v41.4c0,14.28-5.4,16.32-30.36,16.32-.6-4.32-2.4-10.44-4.44-14.64,5.04,.12,10.8,.24,14.28,.24,4.8,0,5.88,0,5.88-2.28v-41.04h-35.76v-13.68h67.92Zm-4.8-34.56v13.68h-58.92v-13.68h58.92Z"/>
          </g>
        </g>
      </g>
    </g>
  </g>
</svg>