<?xml version="1.0" encoding="UTF-8"?>
<svg id="Layer_2" data-name="Layer 2" xmlns="http://www.w3.org/2000/svg" xmlns:xlink="http://www.w3.org/1999/xlink" viewBox="0 0 329.86 375.5">
  <defs>
    <style>
      .cls-1 {
        fill: #2e1b10;
      }

      .cls-2 {
        clip-path: url(#clippath);
      }

      .cls-3 {
        fill: url(#linear-gradient);
      }

      .cls-3, .cls-4 {
        stroke: #3b2314;
        stroke-miterlimit: 10;
        stroke-width: 6px;
      }

      .cls-4 {
        fill: none;
      }
    </style>
    <clipPath id="clippath">
      <path id="Form_small" data-name="Form small" class="cls-4" d="M161.86,372.5h142.5c18.75,0,16.25-16.75,16.25-16.75,0,0,1.5-232.5-29.25-282.5S181.36,3,161.86,3,63.11,23.25,32.36,73.25,3.11,355.75,3.11,355.75c0,0-2.5,16.75,16.25,16.75H161.86Z"/>
    </clipPath>
    <linearGradient id="linear-gradient" x1="7267.08" y1="-2284.79" x2="7584.8" y2="-2284.79" gradientTransform="translate(-7264.08 2466.04)" gradientUnits="userSpaceOnUse">
      <stop offset="0" stop-color="#fbcdab"/>
      <stop offset="1" stop-color="#fde4d9"/>
    </linearGradient>
  </defs>
  <g id="Main_JAP_copy" data-name="Main JAP copy">
    <g id="north_smal_jap_copy_2" data-name="north smal jap copy 2">
      <path id="Shadow" class="cls-1" d="M165.86,375.5h147.11c19.36,0,16.78-16.89,16.78-16.89,0,0,1.55-234.39-30.2-284.79C267.81,23.41,185.99,3,165.86,3S63.91,23.41,32.17,73.82C.42,124.23,1.97,358.61,1.97,358.61c0,0-2.58,16.89,16.78,16.89H165.86Z"/>
      <g>
        <g class="cls-2">
          <rect id="Color_gradient" data-name="Color gradient" class="cls-3" x="3" y="-68.25" width="317.72" height="499"/>
        </g>
        <path id="Form_small-2" data-name="Form small" class="cls-4" d="M161.86,372.5h142.5c18.75,0,16.25-16.75,16.25-16.75,0,0,1.5-232.5-29.25-282.5S181.36,3,161.86,3,63.11,23.25,32.36,73.25,3.11,355.75,3.11,355.75c0,0-2.5,16.75,16.25,16.75H161.86Z"/>
      </g>
      <g id="Orientation_copy_8" data-name="Orientation copy 8">
        <rect class="cls-1" x="139.3" y="292.34" width="37.93" height="37.93"/>
        <rect class="cls-1" x="153.26" y="212.21" width="10" height="80.13"/>
      </g>
      <g>
        <path class="cls-1" d="M129.22,107.59h-14.04v-6.6h-27.36v6.6h-6.72l5.88,1.92c-.6,1.2-1.92,1.56-3.36,1.44-1.2,2.52-2.4,5.16-3.72,7.68h20.16c2.16-4.32,4.2-9.36,5.4-13.2l17.64,4.32c-.48,1.08-1.56,1.44-3.24,1.56-1.32,2.16-2.88,4.8-4.56,7.32h34.56v12h-36.36v6.96h30.6v11.4h-30.6v7.08h30.6v11.4h-30.6v7.56h41.16v12.12H77.38v5.52h-14.16v-49.56c-2.88,3.24-5.76,6.24-8.76,8.76-2.04-2.88-6.6-8.16-9.48-10.68,10.32-8.16,20.28-22.56,25.8-36.96l2.88,.96v-4.2h-25.32v-12.84h25.32v-8.52l17.16,.84c-.12,1.2-.96,1.92-3,2.28v5.4h27.36v-8.52l17.28,.84c-.12,1.2-.96,1.92-3.24,2.28v5.4h26.4v12.84h-26.4v6.6Zm-30.12,30v-6.96h-21.72v6.96h21.72Zm0,18.48v-7.08h-21.72v7.08h21.72Zm0,18.96v-7.56h-21.72v7.56h21.72Z"/>
        <path class="cls-1" d="M229.42,151.27c0,12.72-5.76,14.16-26.16,14.16-.6-3.96-2.52-9.36-4.32-12.96,5.4,.24,12,.24,13.68,.24,1.8-.12,2.4-.48,2.4-1.8v-22.08h-47.4v-13.56h16.32v-27.48l17.88,.96c-.12,1.2-.96,1.92-3.24,2.28v24.24h16.32v-35.64l18,.96c-.12,1.2-.96,1.92-3.24,2.28v8.16h34.92v12.96h-34.92v11.28h46.68v13.56h-44.04c-.36,.72-1.32,1.32-2.88,1.56v20.88Zm-22.92-15.12c-.48,.84-1.68,1.44-3.24,1.2-5.88,9-15,19.2-23.52,25.8-2.88-2.64-8.52-6.48-12-8.64,8.4-5.64,17.04-15.48,22.08-24.24l16.68,5.88Zm46.8-6.36c8.64,7.32,19.2,18,23.88,25.68l-12.72,8.28c-1.56-2.88-4.08-6.36-7.08-9.96-12.6,25.8-35.16,35.28-73.56,39.96-1.2-4.56-4.08-10.44-6.96-14.04,34.68-2.52,56.4-9.72,66.36-32.4l10.92,2.52c-3.96-4.44-8.52-9-12.6-12.72l11.76-7.32Z"/>
      </g>
    </g>
  </g>
</svg>