<?xml version="1.0" encoding="UTF-8"?>
<svg id="Layer_2" data-name="Layer 2" xmlns="http://www.w3.org/2000/svg" xmlns:xlink="http://www.w3.org/1999/xlink" viewBox="0 0 340.48 409.43">
  <defs>
    <style>
      .cls-1 {
        clip-path: url(#clippath-1);
      }

      .cls-2 {
        fill: #2e1b10;
      }

      .cls-3 {
        clip-path: url(#clippath);
      }

      .cls-4, .cls-5 {
        fill: none;
      }

      .cls-6 {
        fill: url(#linear-gradient);
      }

      .cls-6, .cls-7, .cls-5 {
        stroke-miterlimit: 10;
      }

      .cls-6, .cls-5 {
        stroke: #3b2314;
        stroke-width: 6px;
      }

      .cls-7 {
        fill: #00aeb7;
        stroke: #007a72;
        stroke-width: 4px;
      }
    </style>
    <clipPath id="clippath">
      <path id="Form_big" data-name="Form big" class="cls-5" d="M166.27,406.32h146.45c19.27,0,16.7-18.28,16.7-18.28,0,0,1.54-253.78-30.06-308.36C267.76,25.1,186.31,3,166.27,3S64.78,25.1,33.18,79.68C1.57,134.26,3.11,388.04,3.11,388.04c0,0-2.57,18.28,16.7,18.28H166.27Z"/>
    </clipPath>
    <linearGradient id="linear-gradient" x1="8822.19" y1="-1253.84" x2="9148.72" y2="-1253.84" gradientTransform="translate(-8819.19 1466.5)" gradientUnits="userSpaceOnUse">
      <stop offset="0" stop-color="#fbcdab"/>
      <stop offset="1" stop-color="#fde4d9"/>
    </linearGradient>
    <clipPath id="clippath-1">
      <polygon class="cls-4" points="130.24 386.03 82.12 337.91 82.12 269.86 130.24 221.74 198.3 221.74 246.42 269.86 246.42 337.91 198.3 386.03 130.24 386.03"/>
    </clipPath>
  </defs>
  <g id="Main_JAP_copy" data-name="Main JAP copy">
    <g id="north_big_jap_copy_32" data-name="north big jap copy 32">
      <path id="Shadow" class="cls-2" d="M171.52,409.43h151.56c19.94,0,17.28-18.5,17.28-18.5,0,0,1.6-256.77-31.11-311.99C276.55,23.73,192.26,1.36,171.52,1.36S66.49,23.73,33.78,78.94C1.08,134.16,2.67,390.93,2.67,390.93c0,0-2.66,18.5,17.28,18.5H171.52Z"/>
      <g>
        <g class="cls-3">
          <rect id="Color_gradient" data-name="Color gradient" class="cls-6" x="3" y="-40.31" width="326.53" height="505.92"/>
        </g>
        <path id="Form_big-2" data-name="Form big" class="cls-5" d="M166.27,406.32h146.45c19.27,0,16.7-18.28,16.7-18.28,0,0,1.54-253.78-30.06-308.36C267.76,25.1,186.31,3,166.27,3S64.78,25.1,33.18,79.68C1.57,134.26,3.11,388.04,3.11,388.04c0,0-2.57,18.28,16.7,18.28H166.27Z"/>
      </g>
      <g id="Pieces_copy_68" data-name="Pieces copy 68">
        <g id="Violent_Stag_BLUE_copy_37" data-name="Violent Stag BLUE copy 37">
          <g id="VSP_move_copy_37" data-name="VSP move copy 37">
            <g id="Lines">
              <g class="cls-1">
                <g>
                  <rect class="cls-7" x="160.16" y="188.1" width="9.1" height="231.58" transform="translate(-166.64 205.5) rotate(-45)"/>
                  <rect class="cls-7" x="48.92" y="299.34" width="231.58" height="9.1" transform="translate(-166.63 205.45) rotate(-45)"/>
                  <rect class="cls-7" x="160.16" y="221.7" width="9.1" height="84.06"/>
                </g>
              </g>
            </g>
            <rect id="Center" class="cls-7" x="145.74" y="285.25" width="37.93" height="37.93"/>
          </g>
          <g>
            <path class="cls-7" d="M58.27,83.29c4.2,3.84,7.68,7.68,10.56,11.52,2.4-3.6,4.56-7.32,6.36-10.92l14.4,6.96c-.6,.96-1.68,1.32-3,1.2-2.76,5.04-6.36,10.44-10.44,15.6,5.64,12.84,6.6,26.52,6.6,40.92,0,21-.84,43.68-13.8,46.32-4.32,1.08-9.12,1.2-14.16,.96,0-4.56-1.08-9.72-3.48-13.8,2.76,.24,5.16,.24,7.08,.24,4.2,0,6-.12,7.56-2.16,2.28-3,3.24-14.88,3.36-28.32-4.32,5.64-9,10.8-13.44,14.64-2.16-3.48-6.12-8.16-9.36-10.8,7.92-5.28,16.68-15.12,21.96-24.48-.48-4.08-1.32-8.04-2.4-11.88-3.12,3.12-6.36,6.12-9.6,8.76-2.28-2.88-6.72-7.08-9.72-9.36,4.68-3.48,9.36-8.04,13.68-12.96-3-5.04-6.96-10.08-12.12-14.88l9.96-7.56Zm95.64,97.32h7.32v12.12H83.23v-12.12h7.32v-31.08h63.36v31.08Zm-38.16-76.32l4.56,.24c2.64-1.56,5.16-3.48,7.44-5.52h-33.72v-12.12h46.68l2.28-.6c.24,.24,.48,.36,9.96,5.52-.36,.84-1.44,1.44-2.4,1.8-4.8,5.28-12.36,11.76-20.64,16.56v3h30v12.12h-30v8.4c0,11.16-5.52,13.32-24.24,13.32-1.08-3.72-3.84-8.88-5.88-12.12,5.4,.24,11.76,.24,13.56,.24,1.8-.12,2.4-.36,2.4-1.8v-8.04h-29.76v-12.12h29.76v-8.88Zm-13.2,56.64v19.68h6v-19.68h-6Zm22.44,0h-6.24v19.68h6.24v-19.68Zm16.32,0h-6.24v19.68h6.24v-19.68Z"/>
            <path class="cls-7" d="M274.74,148.33h-84.12c-1.2,16.56-4.44,35.04-12,48.12-2.4-2.4-8.52-6.48-11.64-7.92,9.96-17.28,10.68-42.48,10.68-60.36v-35.16h43.32v-10.2l18.24,.96c-.12,1.2-.96,1.92-3.24,2.4v6.84h43.8v12.6h-88.44v9.96h14.28v-9.36l16.44,.96c-.12,1.08-.96,1.8-3.12,2.16v6.24h14.28v-9.36l16.68,.96c-.12,1.2-.96,1.8-3.12,2.16v6.24h27.96v32.76Zm-62.88,21.24v10.32c6.6-.48,13.68-1.08,20.52-1.68v11.4c-13.92,1.68-28.56,3.36-38.04,4.2-.24,1.08-1.08,1.68-2.04,1.92l-5.28-14.16c3.24-.12,7.08-.36,11.16-.72v-31.56l16.8,.96c-.12,1.2-1.08,1.8-3.12,2.28v5.64h19.8v11.4h-19.8Zm-6.24-42.72h-14.28c0,4.56,0,7.2-.12,10.32h14.4v-10.32Zm27.6,0h-14.28v10.32h14.28v-10.32Zm17.16,52.2c0,3.72,.6,4.2,4.08,4.2h10.2c3,0,3.6-1.68,4.08-10.92,2.64,2.04,8.28,4.2,11.88,4.92-1.32,14.04-4.92,17.88-14.52,17.88h-13.92c-12.72,0-15.6-3.96-15.6-15.96v-29.76l16.92,.96c-.12,1.2-1.08,1.8-3.12,2.28v8.52c6.24-2.28,12.24-5.04,16.2-7.8l11.04,9.72c-.48,.6-.96,.6-2.76,.6-6.24,3.24-15.6,6.48-24.48,8.88v6.48Zm10.56-52.2h-14.16v10.32h14.16v-10.32Z"/>
          </g>
        </g>
      </g>
    </g>
  </g>
</svg>