<?xml version="1.0" encoding="UTF-8"?>
<svg id="Layer_2" data-name="Layer 2" xmlns="http://www.w3.org/2000/svg" xmlns:xlink="http://www.w3.org/1999/xlink" width="337" height="409" width="337" height="409" width="337" height="409" viewBox="0 0 340.48 409.43">
  <defs>
    <style>
      .cls-1 {
        clip-path: url(#clippath-1);
      }

      .cls-2 {
        fill: #2e1b10;
      }

      .cls-3 {
        clip-path: url(#clippath);
      }

      .cls-4, .cls-5 {
        fill: none;
      }

      .cls-6 {
        fill: url(#linear-gradient);
      }

      .cls-6, .cls-7, .cls-5 {
        stroke-miterlimit: 10;
      }

      .cls-6, .cls-5 {
        stroke: #3b2314;
        stroke-width: 6px;
      }

      .cls-7 {
        fill: #00aeb7;
        stroke: #007a72;
        stroke-width: 4px;
      }
    </style>
    <clipPath id="clippath">
      <path id="Form_big" data-name="Form big" class="cls-5" d="M166.27,406.32h146.45c19.27,0,16.7-18.28,16.7-18.28,0,0,1.54-253.78-30.06-308.36C267.76,25.1,186.31,3,166.27,3S64.78,25.1,33.18,79.68C1.57,134.26,3.11,388.04,3.11,388.04c0,0-2.57,18.28,16.7,18.28H166.27Z"/>
    </clipPath>
    <linearGradient id="linear-gradient" x1="8086.87" y1="-1253.84" x2="8413.4" y2="-1253.84" gradientTransform="translate(-8083.87 1466.5)" gradientUnits="userSpaceOnUse">
      <stop offset="0" stop-color="#fbcdab"/>
      <stop offset="1" stop-color="#fde4d9"/>
    </linearGradient>
    <clipPath id="clippath-1">
      <polygon class="cls-4" points="130.24 386.03 82.12 337.91 82.12 269.86 130.24 221.74 198.3 221.74 246.42 269.86 246.42 337.91 198.3 386.03 130.24 386.03"/>
    </clipPath>
  </defs>
  <g id="Main_JAP_copy" data-name="Main JAP copy">
    <g id="north_big_jap_copy_31" data-name="north big jap copy 31">
      <path id="Shadow" class="cls-2" d="M171.52,409.43h151.56c19.94,0,17.28-18.5,17.28-18.5,0,0,1.6-256.77-31.11-311.99C276.55,23.73,192.26,1.36,171.52,1.36S66.49,23.73,33.78,78.94C1.08,134.16,2.67,390.93,2.67,390.93c0,0-2.66,18.5,17.28,18.5H171.52Z"/>
      <g>
        <g class="cls-3">
          <rect id="Color_gradient" data-name="Color gradient" class="cls-6" x="3" y="-40.31" width="326.53" height="505.92"/>
        </g>
        <path id="Form_big-2" data-name="Form big" class="cls-5" d="M166.27,406.32h146.45c19.27,0,16.7-18.28,16.7-18.28,0,0,1.54-253.78-30.06-308.36C267.76,25.1,186.31,3,166.27,3S64.78,25.1,33.18,79.68C1.57,134.26,3.11,388.04,3.11,388.04c0,0-2.57,18.28,16.7,18.28H166.27Z"/>
      </g>
      <g id="Pieces_copy_67" data-name="Pieces copy 67">
        <g id="Violent_Wolf_copy_43" data-name="Violent Wolf copy 43">
          <g id="VWP_move_copy_38" data-name="VWP move copy 38">
            <g id="Lines">
              <g class="cls-1">
                <g>
                  <rect class="cls-7" x="119.2" y="205.07" width="9.1" height="115.71" transform="translate(-149.68 164.53) rotate(-45)"/>
                  <rect class="cls-7" x="147.55" y="258.48" width="116.02" height="9.1" transform="translate(-125.78 222.37) rotate(-45)"/>
                  <rect class="cls-7" x="82.84" y="299.34" width="163.75" height="9.1"/>
                  <rect class="cls-7" x="160.16" y="221.7" width="9.1" height="164.36"/>
                </g>
              </g>
            </g>
            <rect id="Center" class="cls-7" x="145.74" y="285.25" width="37.93" height="37.93"/>
          </g>
          <g>
            <path class="cls-7" d="M58.27,83.29c4.2,3.84,7.68,7.68,10.56,11.52,2.4-3.6,4.56-7.32,6.36-10.92l14.4,6.96c-.6,.96-1.68,1.32-3,1.2-2.76,5.04-6.36,10.44-10.44,15.6,5.64,12.84,6.6,26.52,6.6,40.92,0,21-.84,43.68-13.8,46.32-4.32,1.08-9.12,1.2-14.16,.96,0-4.56-1.08-9.72-3.48-13.8,2.76,.24,5.16,.24,7.08,.24,4.2,0,6-.12,7.56-2.16,2.28-3,3.24-14.88,3.36-28.32-4.32,5.64-9,10.8-13.44,14.64-2.16-3.48-6.12-8.16-9.36-10.8,7.92-5.28,16.68-15.12,21.96-24.48-.48-4.08-1.32-8.04-2.4-11.88-3.12,3.12-6.36,6.12-9.6,8.76-2.28-2.88-6.72-7.08-9.72-9.36,4.68-3.48,9.36-8.04,13.68-12.96-3-5.04-6.96-10.08-12.12-14.88l9.96-7.56Zm95.64,97.32h7.32v12.12H83.23v-12.12h7.32v-31.08h63.36v31.08Zm-38.16-76.32l4.56,.24c2.64-1.56,5.16-3.48,7.44-5.52h-33.72v-12.12h46.68l2.28-.6c.24,.24,.48,.36,9.96,5.52-.36,.84-1.44,1.44-2.4,1.8-4.8,5.28-12.36,11.76-20.64,16.56v3h30v12.12h-30v8.4c0,11.16-5.52,13.32-24.24,13.32-1.08-3.72-3.84-8.88-5.88-12.12,5.4,.24,11.76,.24,13.56,.24,1.8-.12,2.4-.36,2.4-1.8v-8.04h-29.76v-12.12h29.76v-8.88Zm-13.2,56.64v19.68h6v-19.68h-6Zm22.44,0h-6.24v19.68h6.24v-19.68Zm16.32,0h-6.24v19.68h6.24v-19.68Z"/>
            <path class="cls-7" d="M178.39,83.05c4.92,3.96,9,8.04,12.24,12.24,2.76-3.84,5.16-7.8,7.08-11.52l14.52,7.08c-.48,.72-1.44,1.2-3,1.2-2.88,5.16-6.6,10.44-10.8,15.6,6.24,12.96,7.32,26.76,7.32,41.04,0,17.04-1.32,33.48-6.96,41.04-3,4.2-8.04,6.72-23.88,6.12,0-4.68-1.44-9.84-3.84-13.92,3.12,.24,5.76,.36,7.92,.36,6,0,7.56,0,9.36-2.52,2.64-3.36,3.72-15.12,3.84-29.28-5.04,6.24-10.68,12.12-15.84,16.32-2.28-3.48-6.24-8.16-9.6-10.8,8.76-5.4,18.48-15.84,24.36-25.8-.6-3.84-1.44-7.68-2.76-11.4-3.72,3.72-7.68,7.2-11.64,10.2-2.16-2.76-6.84-7.08-9.84-9.36,5.28-3.72,10.56-8.52,15.36-13.8-3.48-5.16-7.92-10.2-13.8-15l9.96-7.8Zm71.88,65.88c1.44,4.68,3.36,9,5.52,12.96,5.28-3.36,11.16-7.56,15-11.04l10.56,10.68c-.48,.48-1.2,.72-1.92,.72-.48,0-.96-.12-1.44-.24-3.72,2.52-10.08,6.48-15.24,9.36,5.16,5.52,11.64,9.72,19.68,12.36-3.12,2.88-7.2,8.52-9.12,12.36-11.64-4.56-20.04-11.88-26.16-21.72l.84,12.48c-13.32,2.52-26.88,4.92-35.76,6.24-.12,1.2-1.08,1.8-2.16,2.04l-4.2-15.24,9.48-1.2V95.53h21.24v-12.72l18,1.08c-.12,1.08-.96,1.92-3.24,2.16v9.48h21.84v53.4h-22.92Zm8.88-40.92h-30v8.04h30v-8.04Zm-30,28.68h30v-8.52h-30v8.52Zm0,12.24v27.84c5.76-.84,11.88-1.68,17.88-2.64-4.44-7.2-7.68-15.6-10.2-25.2h-7.68Z"/>
          </g>
        </g>
      </g>
    </g>
  </g>
</svg>